<mxfile host="Electron" agent="Mozilla/5.0 (Windows NT 10.0; Win64; x64) AppleWebKit/537.36 (KHTML, like Gecko) draw.io/24.7.5 Chrome/126.0.6478.183 Electron/31.3.0 Safari/537.36" version="24.7.5">
  <diagram name="Page-1" id="2cc2dc42-3aac-f2a9-1cec-7a8b7cbee084">
    <mxGraphModel dx="1292" dy="1021" grid="1" gridSize="10" guides="1" tooltips="1" connect="1" arrows="1" fold="1" page="1" pageScale="1" pageWidth="1100" pageHeight="850" background="none" math="0" shadow="0">
      <root>
        <mxCell id="0" />
        <mxCell id="1" parent="0" />
        <mxCell id="7026571954dc6520-1" value="" style="strokeWidth=1;shadow=0;dashed=0;align=center;html=1;shape=mxgraph.mockup.containers.browserWindow;rSize=0;strokeColor=#666666;mainText=,;recursiveResize=0;rounded=0;labelBackgroundColor=none;fontFamily=Verdana;fontSize=12" parent="1" vertex="1">
          <mxGeometry x="30" y="20" width="1050" height="880" as="geometry" />
        </mxCell>
        <mxCell id="AH1il1_bG7945f-aipRP-4" value="submit" style="strokeWidth=1;shadow=0;dashed=0;align=center;html=1;shape=mxgraph.mockup.buttons.button;strokeColor=#666666;fontColor=#ffffff;mainText=;buttonStyle=round;fontSize=17;fontStyle=1;fillColor=#008cff;whiteSpace=wrap;" vertex="1" parent="1">
          <mxGeometry x="820" y="490" width="150" height="50" as="geometry" />
        </mxCell>
        <mxCell id="AH1il1_bG7945f-aipRP-10" value="" style="group" vertex="1" connectable="0" parent="1">
          <mxGeometry x="90" y="180" width="897.32" height="520" as="geometry" />
        </mxCell>
        <mxCell id="AH1il1_bG7945f-aipRP-3" value="" style="shape=image;verticalLabelPosition=bottom;labelBackgroundColor=default;verticalAlign=top;aspect=fixed;imageAspect=0;image=data:image/png,iVBORw0KGgoAAAANSUhEUgAAAjYAAAFICAYAAABDdrQZAAAAAXNSR0IArs4c6QAAAARnQU1BAACxjwv8YQUAAAAJcEhZcwAADsMAAA7DAcdvqGQAAP+lSURBVHhe7P0HuCzpWd+L/ru7Uld1TiuvtfPek2cUUEYCASLZBhufe46NA+f4cXqOL44813Cvr42N8bWNbTgGjI8JJkpCgEBCQjmgMEGTZ8/svFcOnVNVdVVXdd//+63Z8kiWsGRJMxpN/UelXt1d4auvetf7q/d7v/dNzSkkSpQoUaJEiRJ9Ayj97GuiRIkSJUqUKNGLXgnYJEqUKFGiRIm+YZSATaJEiRIlSpToG0YJ2CRKlChRokSJvmGUgE2iRIkSJUqU6BtGCdgkSpQoUaJEib5hlIBNokSJEiVKlOgbRgnYJEqUKFGiRIm+YZSATaJEiRIlSpToG0YJ2CRKlChRokSJvmGUgE2iRIkSJUqU6BtGCdgkSpQoUaJEib5hlIBNokSJEiVKlOgbRkl170SJEiVK9FWVmJUwDBEEAabTqfr71qsfTOAGPryJj0kUIIpjxFGklmkwRWoGZDIa0pkMtKwBO++gWMgjZ9mwdANaSoPG72yL33HJZAyuqyOVSp7TEx0rAZtEiRIlSvQVKSacHB4d4fDgAK1WC81mE5ubm9je3sYBPzs8POTSRG/Qx8xIY140kcoZyJZs6EYG6dkcEaFm0nYRexHmfB+nCSp5HfpCHsV6DqWshcglIPVDVKwC/o/vOYPvevlJlCrrmGXXcbGZgZGx0ajUsFhbgJO1n21dopeaErBJlChRokRftrr9Lh67+BSeeuYil2ewc30Tzd19gk0T7VZbeWj+m3lJHXtUMmmkTA1zx0C6aiO/VIBDsDG0NNxxiOHeALPxFLOQC8FmltVgNHLIFi1ofK9FM3gDjyA0w1v/4d149XIE3czD00/g//zdG3j6WhtLlTqWyg2cXj2J206ex13nb8eJtXXomv5sWxJ9oysBm0SJEiVK9CWp3evgw5/+ON71kQ/ggUcexLg3xsTz4bpjpIYBEMXK2wIuMzEtXI4tzPwYbGQhyMwLFjILOZSXiygIvBB4xpMIvZ0+4lGIaORjFs8wMzRoXLdIAJqHEWJ/ipifAzF+5odfhT93dwFaxsDhbA1//Rc/ggce30SG8DMLYmSmKRhzHU42izNnTuPbvuXN+K43vwW3nT7HtqSkUYm+QfW8g81kMlEUn+WPTSRUL4tlWUiTyOU7GZeVJZPJqM81jYTPz2W9KIrUdiJZ3zBI/nyVsdtb38mPVrbVdRl3/e9/wLfaINvKere2lTbdWl++933/c44hEperrC/rSdue+5msY5qm+kyOMeNTxS3Jd7fWT5QoUaKvdxFJEPC+FkwnuL53BR968H1450c+iKcIDyHhIhXGSE3iY4gJeO/1poSR4/eyyD1UFvVepO6tKaRzJlKlLLSajWLN4f01DQ1pxOK16fsIxgEmnTHi8VSBUYqf56oOUhlyE4FF9in33HvvruJ//547UbJzeGB3jHd8+EmMCUVpwlXo0q50A8TSPp5HxuQRZMjLNHB29QT+6vf9WXzPd/8ZVCs1ZB1H2YFE3zh63sHmwx/+MLrdLr7v+75PAcvjjz+Oy5cv49u//dtRLpexv7+Pxx57TEGMwMP6+jruvvtuBQlPPPEErl+//ll4qFQquPfee5HL5XD//fdjd3f3s/Agn91+++1oNBrq/XN1qw333HMPSf4MHn30Udy8eRPf8R3fgXw+r9bp9Xr40Ic+pI712te+FtVqVX0u48UPP/ywApW3vOUt6h/EjRs38Mgjj6BWq+FNb3qTWu+9730vxuPxZ9taLBbxxje+Uf2dKFGiRF+viuIIB50DXN+/gYdvPoFZeIjXnllGKV/C5f0ufuoXfwePP3aVAEHTERNeuMx8PnSGERGC4vPcfEaIEZCRDwR25KGTwMEbJzIFC3rRhFa04DRyINUgM08jZWiEF8KNH8BrjwkmvvK86HymNAk/Fv+Iaa6mcjzuWM9pWF7OweA9dshjT7n/1JzgxOO6nQncpo+YsCXByCkthbnOJcXjsK12NMVisYBXv+aN+OZvfTNeds+9OHn+PLLP3v8TvbiV+afUs38/LxKAEE/IhQsXFBwcHR2h0+ng9OnTCgIEdAQqXvGKV6BerytAESgQ/pJ1Pc/Dy172MqyurmJxcVF9L/sRqBGKF5hZWlpSACQwJOvI98+VtEE8QuJlEfCR4/f7/c+2QXTp0iW4rqveCyzdAhuBFYEbOQf5TLw8AmbyuW3bOHHihFrv2rVrCswEvNbW1lQ75PtEiRIl+nqUF0zw8ScewO99/J343U/+Ln73E+/EVvMK/rfXvQyvPnsWlVING0sb2DySh7tnkCG3yJ1VwGYuMGPoiE2DAGEAus73llp4EyW8EFoITLJiRssce1AIGyQRxNOZvCBj8HNLQ5zhfmXIKk1I0TOwHQ1FJ42yPkedr/WajpWVHOolg9tN4U25X97jrawG3dJh6CSlKQEojBGJ01ye3bko6BJNYwLTDOOhi2eeegpPvO8DGH38E4g+8xnEnS5sPjAb5dKzKyd6MepzLf4LrFvDOwIxe3t7ClpWVlbU57ck3wlUyFCPfC5en1uSoSfx4sgi6wnYPHfb50qOoyL5Dw/Vus+VbCfR/AI9si8Bmc+XeJe2trYwGAxUe24NrT1Xsl9p5xf7PlGiRIleaMl96v7Nx/HDv/kv8A9/+Sfwy3/0Vjxy8RF4owFyqYj3VQspLU8wMJCeRTAJG2lTV4tMx9Zs8cA4SOUcpB0+vOVszAt8zRNqLIKO3NMdB/N8TuZxY0awAGFEI+hYIxcl10NlGqIw4X3S92Dz71I2hVLdQUXicKpZLFQMLDcsvPy0iR/6/vvwI3/rL+Lv/x9/Ed//Ha8mbNmwrbQasjK5WIQmu2jBLNtIWaQk/k88PBL7MyPsKAjjfzGBTGdTFoIQ2sWL6PzWb+HJf/QP8Yd/6k/jgZ/4Sfjd7rM9lOjFpufdYyNTAMXQnz9/Xg3jPNdjI8ZfgEFgQaYLCjjIkJQAhvzjk3Xb7bZa5HuJfbk11CQeG5lmKK/ibRHgOXfuHEql/568xWMj3hrxrghASTtGo9FnPTaybxlekmEq8fYI5Mh3st4tj83GxoaCIoEjAarhcKi2fa7HRs5Tzk32J8NUt4a5EiVKlOiFlDzK+eEEzxxcw89+9FfxOw+9G4f9Q4zcMWZ+AHMegSiCwsyFlgpRrzQw5fqPPP0E3vahh3DYGQGGjkyOD2yOBcPmK++DEcFinubD5CzmQyUJgvdM9fisYMiEkZnDjqcoIkI1NcW6xsWeYYmEUQ5HKMU+GukYC2YKywSjnJ2BY6ZRF6+NreHuO5bwA9/3g7jj9tfjzOm7sLF2Fs/cvIqDdg+5tIFgHCOYEltSaWR0DbNohgzbI0NUM/EsiQtHFnZAiqCToV1Z5XfLbGKN+JMNAtykHfn4hz+Kj/3ab/CUNCzJvZ/nmkoncTgvFj3vYCNQIBBx8uRJBQQCDQIyt912m3ovEmiQYR4BAwEVeS+gImAjHhCJVRHoEKi5FfQl68nwknwmw1WFQgF33nnnfzcMJbo1HCbfS0yPwJPs9xbYXL16VcXgyH5kiEr2K9Al3ptbYCMAI98JuEhbBJBkneeCjbTtDW94A86ePauG075QWxIlSpTo+dJsPsNe+wiffPph/MIH34p3PPiH2B82EfEe6Ho+/JGHzJRQw3tXyUihZgDh8Ag7ezfx8JUb+IMHnsIjlw4g4TVi7CUYV5NXAkDK1MUPgrnrIuV6SHkTQg4PWnKgFxzUsyYWLd7f9QBnzADn7RjnCjFOFviZEWJNi7CeT+N0xcCJch4nazk0shZWcjmUxesSTgkyy7jjrtfTVpjK84J5Ho8/9QQfMjuYDmPs7Q/gjnm/zmiw2KZ5nJIwoGOYkUYTeHQCiixaKkXQiQk3gI0UMlyIa9gkifX4OiHkBe9/H8xPfBAFx4SezyGVK3IXyX38613PO9gIQIinQ2YhiZdDgMBxHOVdkc8kXkXAQaBAwEKWWxAkYCMwIbEq8rnsS4aUBHoEbMSrI4HG4kURL4nAjQDF5+tWjI2AjXhuBG5kWwEbeZU2iDdIvEriQZJ2yiLf3wIbieORoTJph3wuHp7PBxs5H2mrQJTAnOwrUaJEiV4IDccjvP3978K/f+sv4j+9+624criFICLQTEN4vofxxEdEeLBSGdh6Go6hoZizYGpAazTEZnuAyy0XzcEEYQyVQC9DatDSAg8xAt6PU4SjuRuQhiKk+F06a8ColdHgPf5CzsAFgszZnIc7GjHu2DBx9oTDB9caVpfzWF1dwMpqFSsLRSwtrqJWtLFQqGLRyaNE+igSVnKZCDneR7VsWWUs3rxxBY88dj922x4OW2OMejz+lG2iTcgSpGRm+GQSqaR/KpBY8ujIEBTBpsDvbd7vPe6HLUeffbTL1zEXiWCoYoa3bBRw16svwMrMkGofYH60i1CjzSlXjjs10delnnewEdgQqBBPjQwdCQy88pWv/GxgrQCEQILAg4CLAM/y8vIXHIoSWBAPjcCNgI1AisTkSKCu7EO2lwDkW56gW7oFNuIlkuPe8toIoMg+ZQhMvERybIEROZ60VYKAZb1bYCPHEc+SnJPA0OeDjQDNrbaKZ0f2lyhRokTPt65s38Df/zf/BL/yO7+JS1vX1CwhGUqaiFH3JxgORgi9EAYtes7U4ZgG7JyjZgnpfICLTT6g8T66NwFGwwmm4wlmBIbZJEQ0CRB5fD/0SREhTAKP/HdipYx61cZ63sYp28RddQu3LcQ4tzTHmQuLWLv9DBoXLqB6+jwqJ86hsH47KqsrKC6swK6uIVdaRrHMh9OciQK3z5tpBUyj0QBjglantYsnnn4KV/YO0eq5MvqFnKbzyCnlnLF4DulZBpE/RcAlZDv5lRqGm06mMHmuSwQv2ad85nHLDu1MyL9lhvpJK43v/Y57Uf2W74G+egGZbB4YdOB9/N043GnCPn1Oea0Sff3pBUvQJ16VW/EpXyjAV8BDqPvWUFOiRIkSJfrSJbd2d+LhNz74O/ipX/0Z+ISPeBohY5nIFGxEqQzC2QwzPqxN+XnBzKBoGyg6BsqOjUqxgFwhC4MPjrP0HHv9Pi7tdDA8HGC400fYcQk0IdLTGdKZlPKGmDT0BSuLHKHg9betYOp3sVDM8eEvj5WaicVCjEq1iFxtCdliHUa2xPu8hUxK7vU6jEyMiG2ZhFIrivud+QpIvKEHt39IAAvQczOYEkXmmTma3hw9L8BBm+3iOmE4wV6rj7Y7IYhYRBUNMvW83R1iGvD8SSwydBYOJpgPXKzGEcqkoCiew5/P0CMdydBUI5XGNzs6/u6ffQ2Wvu17MV84BZg50k8H0SfeiSd+87149K5vxvf+Xz+DOh9yM7RVib5+9Lx7bG5J4k0EWr7YrCWBmiQmJVGiRIm+fI0INB9/6gH8x3f8PD78yffAMSIYanp1SsWepDJcJOyEgBCIq4NfaZYOm9Bj895rcDG5Xsa0MNezCPl3N4wQp2j4JZ/MZIrADTDzIqQEbggD4ikx0hmU7SxOlA3U0lPkohHOLeWxtlxEtVJGefk08ssX4DTOIFtegek0oFsVHrsMyynzeHmkjBy0bA5WLk+ocqCZDnS+1/k3dC6ZAmYzHdMwA1MTiCqinqsgZzuIZpLENWT7M3AsGyFm3E8OGVtHsVZAiVAlkJXleeYsnl8wRYEAmCHgRewQjyciQ2wyvGbEKazx4XtxscDjE1yCLrB/EdHmNbS3W/ij+x/HT//ar2LEdRuLi0kc5deRXjCwSZQoUaJEX309ebSNH3/vb+DX3vVrGBzeQDETIq9LUjsgTGVUmYKAxngmIzs06gGN+lQicTWDD5Q6soYFJ2sRNkxMDR1DbrnvjjCeTGjw5zC57bjrIRgFmBNwJNBYI9gYXLdUyKmClnWCxGoOWCzoWFxdQ666gfzSKQLNCZiFJaSNAg+XI7gQXggupBe2R2Ye6SrAF7pN62QhjiR+J40Zl5B/h7GOMIgw8SOMhsSWiA/H5DIzY6CYL8EyTaTmMchhKOSLcBybkGQhW3TglPNoNGpcz0aGfRDzXOZc1+D5ydDcVE8hleXxM+wb9omMT80GE5S6LWR7m/AOruNodxePXz/AR7Y6eNyNsBlM8P5PfBIPP/aYisuU8IYEbl54JbWiEiVKlOgbREE0xP/znb+OX3ngozgbDHByPkFFl1IHM2yHKRwGcwyCWAXVRgSQiUQB6xkgq8Em0OS0DOpODk7RgsxujjNpdKMQ0TREESmuk0Hoh7j++Da8IxcZAk7NzGI4cGHZDhqVPNyhixN8/ZZ71lEtm1g8cRKlZYJNYwFZpwiN0BLHvgrQzWYdmLqhJlpE0wnSKQLHVErqSExMjMDzERGoxEhJeELoBeh3ehiPJggmkmNHI4ylCTIaHEJVhnDSHfSw19rBcBahxXPsBCFMO8tjWUhJXp1wik6vh2s3tuHut1Hj+Ul5CBnayhDwPPFEdTzkpnMsB2ncZ6SwXkvD5zEO/Dl2egFfp9hjo/YJUEMQFtk+SenxAz/wA/iJf/HPk9QeL7ASsEmUKFGiF70kTqSHaTTC33/Hb+LdTz6O8zS61XiEUmaKph9gcxijz9u9N50iTYCZElT8aKYS7c35PpvR4QggOBamMgtI4GIaYTwJUTE0rBYciDOi0x5h64kdzEbcz2ACa5ZWM5SWGnUslArIECbOrSxgvV7A2kYDjTPnUajWYVg25kIz4tCYEx64/ziawx/5yBhZNeU8cLk/8ZrMJYQ3xVXThBgf/kQCfgk84z7G/QGmcw2WQyjKZlUJBUm+l83Z0FMh5tyPOxmjHU3w2KCJwTRGkdCVzzuwCGpe4KFF+Nne2sa4NULB0VUdqlhG6sIA0/4IcXMEvR8gP4hR0+cw0jNMxzFSavp4Cn0e74DnsaelMOTGYkTncmLs31d90yvxi//l/1ZpPr5YqEWir62SoahEiRIlepFK8tJEhJlZfEi46KI1HOCTlx8jkISoynRm3UAqm0c7nUKXptcq2qjVCphnMwj1NEIaaRnmMTOaKnUwN1Jw4xDu2EM8nMDv+kDfwyKhx3ZMxH6o6jjNWwGysxQiP8accJJzJDtwDXnLwvrCAm47fwFZCUJe3EDGLCEMZhj2RuhxGfVceOMAHsFozL+7hz22l23hMh6MkJEgZEuHJqUZNPHmpDCd8jzDEPHEI5SxrbqOtCHlb7gdwSuOJSg6y/Vitn0EfziElTaeHVbLwzQlADqtEvKZbPc0nMLW0gSeLHQjjRTbmpEMyjmL/UDASRH4uPcUwY67kWZAS82hE2T0KQ3njKBFZvHZh76eQcxXyFRygszu3j4++pGPoV6vfTZVSaLnVwnYJEqUKNGLUJI5+P6rD+DazieQmvnouGPcf/lhXNvfRKDpMAxaaELAkFAzmIWY0ZBXizlUywXltXHDCIEbqpwuORrfkJCUSs8R+AFmhBmZ9ZTqTqD7ESFBEtqlEY25DT/LEkLSUhqB/7N4rEalguVaHXnbwcmNk6jWF6BniwhnOkZDH/2+i3Z7iMCbIibkSNkoGWpShSv5n0YAyRiGmsmVSmuYwYDnzeFzfamf6Y3GhJFQ/T0nZYjnZxpMVYbh+Yzt5hYZEokEGMv+Jp6HgMDjpDSUimVYhB6JgZEZT/MwRiZOo27nCDwaLFsjSGWQtQ3Ytkk+4dHJKWQ/dl+EmU6CkdAfvkgWY3MC2ASbmH/7ZKsxtwmlRhbBRvw2Mi7V6rTxiU99EgMC1oVz51XAcqLnTwnYJEqUKNGLTGEU4h2ffhfecf/vYbu9g864h53OEW4297A3HmGoACCNOCPDTYSa1AxO1lAzljSV/HSC8YDw4odqirYYZMnEK+sIyMTuBFHLw3R/iJSKyZnDnpvoHPWRInAUNBPzaQQjY6KUz2N1oYGNpSWsrklcTUXltukTmqbRXC1S6DJDYLEIF7pOSEoTSEg3mnheTFPljZGMvoEkZSXEhISWSUhwkZIIBAaZ6STDPbeGdsTjMh6OFG3IVPM4nmFCINMIN5Z4YQhbGo8lsUFGmsBiWTAkx808hSzSKBGkSmaObc9huVzGajnP1zyKAjaIxA8Eh3Tj2Dx2ltAn3q0U+2ieBlkHUjlrnuN3dQPxYgkxYTFFSIokCJttkVa6Yxef+czDeOKJJ46LMy8uqrYn+torAZtEiRIlepHpP/7+L+JdD78HtN0oOUUaf4vwosODhs0gQJdGXlKAaVqGhnquvBh5ZfBThIQYE64zbA4QB5GaARQTIIxCFhkCkDGJMHB9zI7GiJojQkqEkm0jM6WxHrgIRwFyBIWKY8MyszT+DmGmiKVaFasbJwlFY3SGLvpeoPLDBBMfmEWwLBOpeIrULFTtEDCS4aY4miIOCS4S7hkFcEcj5Z3JEHTSPAnJsTPxfGR0UwUJawQZgaJ5HKvK4mHgq3OKucy4boagJFAjcOHkCzxHn3CjweS+CrqFRr6IkpVFKeugYedRyxFuCgVsVGtYk4SrGvtgHkDPREjZFndiIsxmMdI11W7bzsAq8nXDhnmuCvvkMtKFEjSCTcijSn9Jbh9pgADXjc0tfOaRh/FNr3glFhcWji9goq+pErBJlChRoheJOv02fuqtP4dPXf40CuWcCph1aJzTmg2XRnRMwx5ghml6hvksRlrKGqRSKgi4QOMsQzbhZILR2EPrsE8jHBMcpGhkCoGVhuaHKGoG1yds9CaIfRpp2ujFkuSOmcMhXNSkxAFhID2fYbFaQZlAcHJtA8srawSXELv7h9hu9bEj2eAnAYoFG+ORi8PDI7Rbh4SRGTx+7o5leCng+0CBzJgwFbkjlWNHBeKy/cPBAP1OW/0t6XYkhgaSzI/QIFXGDQl8JuBIgjxDkr0SjiTj/DSK1PFms5TySEneGj3F8+Mi68k07+k8wijwkHMyyBMQ5Ty1uaZib4z0nNA1R+Q4CExLgY1fyMGu57G8VkF9o4DqyQZyGyuwl9agOQVunEHEdrniaeI5CtkIXIlX6bDZxEOPfAZ33HEHVpaXP+t5SvS1UQI2iRIlSvQi0Hw+wfseeBd+/6PvRYGwUCoUaeM1+LMpVLJTARkabJWDhZryb/HMBISUudStM0zCAeHHHaPfH6HbdjH1p5hy3ZmhcvQin0kjbWYw86bQJjOkohlMTUeRYFDJOcrzIcn7pIyNbWaxRphZP3EKC7UFIPBx8/o1PHHpGi5dva5qR506tQaDFHJjcxvXN7cUUBimgW5/DBUwE8u0bh+heFwITuK9kaR8MjTV7/UIXwfK42PyeAJCKZ5b1uZ5ENRmhBgre5y3RhQIUBAuXEKTlLPZP2ri5o2btHI6KtWyGgITyJjzRZISTtMpuAQYp5rDUjWPbNZg/8zR7fQIR+zTrI2pbmHEJbYdWKUSaivLWFtawKmFMpZrNRSLJaRLC5g5JfiExl7oYzyeHNekejbkRqqIp3jsw24bn3zofiwuLOLsqTPKI5Xoa6OkZ79Gevvb346/+3f/7rPvEiVKlOgr0MzHPNyBnpEhmwAZxNBSGWTmGrRZBmnCjZ6OUdAIJxqNKo1phlAyiwLA96ARbqQ+UhjECiIC/h3TiEd8L7CQzsxRojGWmUw+vw+nBBqpGeVY3O/xzKO8aaJMuJFZPoVCmQZ+HeVKA3mniDjwsHftaTx1+Rpubu/CI1gsLy+oQpObfN8djDCXAGTClfgxsqoS+Bx7h008c3UTB0dt9Dp9HDYFKgRMCAdcPyKACKR0e30Mux14oz5ZaELDJbE3KXRbbcLbhEAScjsfLb6XvDeGaaFUrRPugEtXruHG1RuqnERKAnXIUwZ02BkDed3GaBJhqNlIF2swl1bQcmO0mwOuZiPKOMiYRdgEl0qpilJ5iZC0hJN8PVeo485sEWvzKcYeQdHz4LPtEoCcLdkwK+yrio1M3sI8y/O1NFzd28Y/+pf/FL/0tt8giMmU9kRfC72gYPPHf/zHKlOjFJZ8oSSFM1/72tfiX//rf/3sJ8CTTz6pEix94AMfePYT4Dd+4zfwxje+UVXz/lIkRTDl/J6rwWCAD37wg8pVmihRokRfkgg1kf8EYWOA7cNDAkmMdFpDQEMdTvk3DbXMbgoIA8pJkE4hJhBIgOsJfY61zBRLqRhmFCEOCURzAhH3YXM9SxLzOSbqNMYLRVsVvyzR4FcJMIHEuKQJAFkLS5UKv7MJNRZqxYqaCeVkj2NsZFDF6xxg7+gI3eGYyJHCQr2BtVoRN29sYZ/wIkNGtXJJeX8syyYc1NDqDfDA45dx8doObt7cRqd1iD4BaDTm+dImiJdFMiBL/IzwiAwvWUYKoTvEfBagXHbQ7HZxc+cILkEtV8xh3OuhfXQInhqWV1bx8le/GvVGA4dHLRwdttn+4yniszDCzAthxSnMuwG2d1q4tN/FU/sDdKc6RoMQQ1+OaqOUdpAlCklW5HRKh6FZWCYQLRtFnMgUcYdPqGwd8HyOPT06IcYh0NilLPL1HMyaA83WVXBxbKWx02vix376X+GXfuetPKcXzvZ9I+sFBRtxmb7QRl6mAErV7U984hPPfgL1t6TF/uQnP/nsJ8cQJhW/b1Uh/x/pC+U9lArg/+E//AdVQTxRokSJ/iTJUMvW7g0889R7sUuj/JGHnsDvv/vD2Nlq4/pOEzebbRwM+mgOB/DHY/i+hyPfx+EkgJXRsZh1sGhbKNpp1K0U0rzfavEc5jyNiqVjo5bFxnIBa4sFrNTyqJXyKGVzqPKhTip75wku60sLuOPkCWwsLsPJFZC1swgJFVJawSnkEackWHaMzuEuOgSFIrddX1nGSr0Mi+tkeZxTays4s7GKtaUqysU8fN7zN7d20Gwe8RwJXIbGB8wAY94XSyVJpGcjE02QCkZYqORQymUJRGnCFO/XtFjyOhp0Mep3UKoUcWN7F489eQnuyMOJU+tIZTKEpCYCb4xytYEGAccuV9EnMHWaTcwIdRK0LNPDpfyDOUtj3nExag5x1O7CnxF2YBJ+MkhFhEDCoDPXYAQxJtMQrWmAqfQlISeTNgk4edyZigiLEfwoQECYRJ5wU7dQKBmwCwaykh8nx2MWskiXTLjaFD/2f/9bvP0D71bJDRN9dfWCxthsbW3hne98J/7O3/k7aoxYNBwO8bGPfQwf+chH8MgjjyCbzapU1beCrW7evIlHH31UAcYf/uEf4lOf+pSCkKWlJfX9LUn67Y9+9KN4//vfj6tXr2JlZUXt6wtpb28Pv/3bv63aIfv69//+3+PVJP2nn34af+7P/TlIQc5//I//Mb77u78br3nNa9Q2XT4pfOhDH1LtvHjxIhp8KnhuGm0BoWeeeQZ/42/8DfVe/pZj3Don8VKtra2p78QL9OEPfxjve9/7VJ+Uy+XP7ksASc7XdV1sbm4qj4/jOKjwCeqxxx7Du971LrVPOV85xyQoLVGiF7/k3/3lG1fxT3/mJ/Gej38Un3rsGbzrfZ/AU5duwA0i9DBDO56iRyCQJZhFqoBjM+JrnELOsFCh8bZ5W9UzMwQpDd1Ahq5S0Llu3ZhxnRnq1TwW6wUsEmrKksgunUUxZcOJdJRTWTSMHFYrdZQrNTXTSDd15HjvXagtwrJzKhYmHLYx6DQxTZko5Ato1KuoEWCKhZwCoayuwTF0BTpSnDJF458iuKTZjlq1jKVaRcXW9N0JVhsVLC41kJ6HSE1d3o9TKkg4LZ4eI0MISquYm2ari/ZBE/mCjW5/yPvmrjrO6uoydB5Lgp/d0Zj7WpAYXjVjKsd76jycICT8GZLXxskhnUnzO/Fk8Xg8l0kcErw8zHtdldk4kjgc7kuXdsczVQ09IIgs0k4I0KQIkOlUhm3q45Gxh6HE/TgmTFtn20yCnqWyPEu084xgkypa0Eo8Nj+XpDp//NiDWKsv4sKJM9xPEhny1dLXHdj89E//tDLeAhhi0OX77/u+71OeFZEMD/3zf/7P8fjjj6PdbisgeNvb3qZqdDzXm/Lv/t2/w6//+q+r8WABHFnvu77ru9T7L6Sf//mfx1/4C39BuXl/7ud+Dv/m3/wbtf23fuu3qrb86I/+KP7RP/pHOHHihLrp/PAP/7DywIikTe9973vx5//8n1frij4fbGR46w/+4A+wu7vLp5KSWu688041fvwf/+N/VMeS6rAf//jHFSi98pWvVAAkx5K2CfQIxNzyMPX7ffzFv/gXVRCf6IEHHsCb3/xmBWGJEiV6cavVa+PH/q+fxAce+AQ291u4dGMXBwdtRASTmIZe/NyhP1WxLGN/gkEQqtpIk2mshqLECyLVuee8HYl/+PpEhq0Ah8YzS2go83a6uFDEnWdO4ezKMt87qEKHEevQAwMGIcgI53DmBuGjTkgpIsf7USmXR94uICeVt3kv8r0JmntbmIYEh2pDeUIky28un8N0EsIb9jEZjxEFE8ynkgxwhhJpyzHTsHgekjhPwGJr9wAj8TSlY5TzWRRyFtz2AXq9jvLmCIzI1O4UIgx43x95U/ghIWM0UAHEMfctU9slpiefyx7PjmK/5J0sHwKLar10OoNao46IYCX31VnaUODkj4eQGVeSvC/FPpRAa/iuapeWtVXiQtM0EM9jVTxUYoUc9u1pM8vzMVUsUCae4ApBzM06KBEWiwUHJtuR42JLRmNCWSwB2jwvs5iFRsCxeJ4Rj/f01YtYrDRwbu108mD6VdILWitKPDN/9a/+VVy5cuWzwCEGW/6WReJU/tJf+kv4iZ/4CXznd36n+l4A4G//7b+tYOKee+5RXpVv//Zvxy//8i/jT//pP63Weeqpp9Rnv/Irv4Jv+ZZvUd4MieURYLm1znMlcTbiFZJ9C3D823/7b/G7v/u7ylvz1/7aX0O1WsUb3vAG5aUR+BAJVInnREBCoELaJwD1ile8Qn0vbZZ9PPzww+q9ANN//a//Fe94xzvwn//zf8bi4qLaVoa7/t7f+3vqM5kKeOnSJRV0LDE/L3/5y9Vw3Y/8yI/gl37pl/Dggw9ifX1dbferv/qrqh8ODg4U0IkH6EsdJkuUKNHXt/7y//eH8a6Pf0DN/pEkdZBpzhJpIrOfLAKLqaspzik9dTyjiYZTL2Rh0ljmSjkVb1LlQ0+a2wQ0+mNSjRkClQAoEGxOFNN48+teg7Nrt3OXFh69dgmbTz2B9mCO9jANnUDjS0yKloVTKKkZPFbmePpyJkMA4r3GHQ4w8gO0dzdVrab62gneE020Dg55Pzqe8WRyG5mOnVJRuylUSw6KbH8chRh4AVoDF73hGDd2jjDhKmVTw6vvPIF77jqP7v4O2t0+0tkiIu5PkvvJsI1MWQ9AyFpaQ3v7OtK0FQPCiQCVldGwsbaAKfvMI1gFPMbtL38Zrl6+iuHYwwXagdAdYErQsoslOMWymrYus6XkmTT0PVVnSkBswtfQ1uGn54QSDf3pGKliAWnLxiLP58/yGqyyHWJBPbeJ3+ru4kNzQhXPL8jEKvBZwRGhUuKf5DwDbjfV0hiyX6QztdEUWs/HUq6Of/XXfxSvufPYfiT6yvR15/sSL8XR0ZHy2rznPe9RoCPDT8+VaZp41atepbwV4vWQJ4fDw8Nnvz32oAh0CISIp0TAScDm8/dzS7K9AIl4SsTLIvsUz8v58+fVtrKPu+6667NQI5L9y9DQu9/9buUNivgDFm/MF5N4pARIZL/SfvlbmFLaVCgU0Ol0VIZKgSc5L/FmPVfiDTpz5oxqq+zjda97HVZXVxUECVgJnCVKlOjFrZHv4h/+p3+B9z75MaQKuqrdJJl1tZwBq+KgsFRAfqmI0kIedi2LbN6EKcnueP8JXF/lp+n3BujyftLr9zD2XPCOoXLZ+KkZRuKaoEV9+ekNvHz9NlSsAspWCWvVRTVjKkMjLEUJTEiQb0FNve4LeGzu4PrWDjoS3MsHxf5gqO7TEYFJN7OwCkXlpZjxPiR1nOxSEYvLKzhx+iTO3XYWd951ARfOrWKhUYaVc5CW+xghJEND3+sP0Xc9hPEMR0MXW3sHODhscp9lNJaWsby6hJXVFZS5z3wup4bAJAi5KkNeqxsolsooOgVVJVxqZLWbLXgEHUQ+/97HjSvPwM5mMJuwzds3MfF9NI8OsXX5abQIZfLwmNEzXCRrsQPbkJgeEwW7hKJmw0IG6SDCYOghQzC0MyakV6+zK6OIEOR22W8hlk0b2RLbkSdYEgYrlTqK5SoBqohcuYgaz71UygOWjjGhxs2kMSmYmJWy2Bwd4cd/9afx9OaV4x9Coq9ILyjY3HIW3XK/iXEWT4R4KMSTsbCwoGBCoOGLSQy9bH8rd4NI4ECASGJaZJhKFgEXgZMvJvHICMCIl0g8QbLP++67T4HHQw89hDe96U3Prgk1fCQelR//8R9XHiMBDgGXP6mdX0hy/hI7IxDze7/3e6qdEjcknhsJVH6ubg053ZJUjpV1ZWjsX/7Lf4kf+7EfU16kRIkSvTg1Djz8ykffjrc/8F7otkEDacCg4dNyGjSHoJGT6dcGbDMDk/c7I5gi7dHSDgNMxyHCMV+7LibtEWYDD7HM+plJjScNqVlKzaLyghCT6RSGxvsmP5uFLmbBAD6NfkCDLve9uT/DoDVUQ1eSNE8gKYUYOu9BuWIJWdPgzdqFTuDy3SFSBBmBlf2DA2wfHCpIGfR6OGg20ez20BuN1dRmiwBmqHgZyfGSxjQK0OqPMQojBRWGZbKNM+zzHJ66LFPA+6rkQ4r94uhzaJhiyr+7vM/1B7zHd9qYTQOU2KZzt13AQrWiKozLjDGPbej1ZYbVCPd/+jPY2z3gPdTA1B9Cn0eoEpKkzMKw20b7YB8B14smPmaRZEaOVa4eyZ3jpAlQVhnZNFFvMoXbGRJkQkLSHI+z36/LcUYDHPY76I543uxfKZ9ZtvKo2AUs5Wuol2qo5Iso5/LIGSYM2gpThgu5XkC4CUrs16UStke7+Ilf/w/YOvziD8iJvjQ972Czs7Pz7F98OhmNlPfiVnyNGPhf+IVfwN/8m39TQYMMBckw0JcrARjZ7w/90A8pAJHlJ3/yJ1W8zBeTTOUWj8n+/r4CFfkHfvr0aTVF+/7771ff35IAkMTg/IN/8A9UUPH3fu/3Kg/MLUD7YhJvlMDPLQASz4sMSYnHRvZ1q62yyDDU/0gCNxL7I2FSMpNLPEeJEiV68UmmZ99/8xG896mPwCLEZLUMAYbG1daQyUrl7RRS8RwxjWuKxl6nAS6m5ijSQBr8fBbGmPkR5uMpAn9KIJmiS8Pr8VWGfPQQyMU0qPM0YneGx586oAE9hBcG2Oke4pOXr2A85LYjyeHSx87+EW5u3SSgdFDKO2jUG1heWlZxOyEhYB7R+Bs6H/JcuL7MctrGo09dxLWbm7hy9Ro+89gT+Nin7sd7P/RxvOfDn8S7P/QpfOBTT+CBi9fxwNM38Oknr+FTF2/g6n4HY8LMTNV4cqATmrxojs7AxfbOAZrNFpcmoekQnW5HwdO1q9fV8a5dvYrD/T1CErC4uoyFpQZWT6xz2UBBctjEwITQxF7Bzc1t7O0d4qjTxSZt0N7egdyAlbdH4mxkqEuASNNNrj3nvXwOsUqmYaOSK6GRr2IpW0J6MCYM9dWw1lZnhPfsNPHx/UM8OBzh2ox9M5urDMb5tIW6nkPDLqHmlFHiPvLZnKp+XuY5FmkvHEJNnVAopSlq1RKWVxewOdjCf3j7z6qhtUT/83pewUagQQJeBQrEIyNxMeKduAUE4nWRWBGJkemR+H/2Z39WBRB/ufozf+bPqGGan/qpn1Ig1Wq1VLyNxNp8MQlISPsEZCTeRiQznWSW1vXr1/HN3/zN6jORxMtIO2W2lQw/ibdEZjY9N1xJYnXkeM+dzn733XerYwhASZtEclzxTAl4yT/gW8Nwctw/Sf/pP/0nFQsk7ZXjirdLZlMlSpToxafmqIN3PvYBDGNPBbzKzBrxasgyn6dU/hmpZh1xmQURqqaOM7kszlbyWKoUaYBpkLnefDonnIToNz10D0do0/h2O0MYBBs7SqE00/lq4KFnmnjHBz6Kd3zqAfzWJx7E5YubKtaj0xzg4LCFfUKPxKHk8zn1cFkuVwhaBsbdlsonY0hSPqTg876zs7uNze1ttLtdtAgi27wnbu7sqvw1sly5sYkHHn8GH3jgCbzn45/B+z7xCD7+8NN4/Apho9VFf+Sy7WkVVymlHVKmjUiz0OV5PrPfwxM3m7i83cIV/n1jr41hOINLaFF5YwgkYehBalwVCg4MLY0GAWdhsc77d1UFM588dZLn4ah7tCQEfPzSdXzsocfxwY89hKuXb7A/fWizCDqPLdPcdUPqV0XwxwNM/bEaLivbBZwqr+KUyXss+3OP/dN0PTw4muI9BMJPzw3cTOuQqCZeNcLUDBpByUhlkNct5A0HOdNhH5qwCXE5XiudQFqxTGwUi1gsl2gHalhbX8H15mX85h/9loLdRP9zel7BZnl5Gf/sn/0zNdNJgoLH4zH+yT/5J89+CzXbR2JGBEIEJOT77//+7/8cgy3ToE+dOvXsu2PJ++fGv4i3RoJ0BSokeFimaIvX5U/KHyNDPa9//etx7733qqnUIgEc8f7I9s9tg0wFF5iRAGGZsSXAIjOScrncs2sAb3nLW1QcjsDbLYl3Rvb1t/7W3/psVmIBMJnBJTE28p14hmT203OTFko76vX6s++OJTFGMtVc2vJX/spfUbPCpA2JEiV6cckLffzaJ34bne4RnJQGm0Yxb2aUkZ9O5phJLaeJJOKLaQxjLKTnWNNMrGgGTueLOMl7Q8HJwZhpgHhtOj7m3eM6T2OChx2nUYgzWIhtFGmA54QlSYD38KV9/NEDl3DxRhuGl4Y3CLDfIgz1htAzBISFRT6glWFnbRhGBqNekxAxQZoQ1W0fEmh2cMSHsU6/j163R+jpq+BeiYVZXKhjfXURGysNrC/WcObEMlYWSigS2mT6tmNnVbxMjQ+PlUoN586cwhLvc8uEEcu2MYoILn6MQ57/Vj/EEZ8Pdwch9ochBrw1RpDimHKPnGPijuD2O7zfe5ACm8G4D302UdPNZTq5golcnpCoc8OZxDzw6XSuApOfePoadrf3Me53EQzb3H6KAtsjbqAojviA2cWouY9wNIRt51CwDDjiHZO4IJ5zStPRtYtoEVzGbMuU2w+jCdoTF0fBGF4cIiSgkGMgFceFVSSLs0ZoKxHkvuXMGfzZ22/Dy9dWscLruLK0iMbyAh7cegT3P/0gZhLYnOjL1gsyK0oOKR4ZgZQvNP1avA8CJTJE85VIPEASayOgI5Dx1ZbE2si5fLHZSPK9eHeeCzzyj1G8MQJiMnz1XElskHwm/fI/Gta6pVseG9nfl7pNokSJvj7kBRP87Pt/Aw9c+hSNZlrFgHS7LUSEko4XY/vIQ3oSIcd7WZGwY1ka1os2GqUKirx3atkCnh66eHzrSA3f+CNXJb2TWBzJfmvlbGzkKzhTacDULAzHPfgTH4umBTc9Q5rbmxkD1tDH4XYbh4SasTdRtZ9yOQeVUgG1okOMiNA+OkK2VEO318Go21aenaP+AIMx73O8X2ezJoqlknpInAQymWHO+7umZkUZtoV5OEVWhtT4zVGXADWeYHVtA1Y2S+ipYrFWwdQbKc/1zuERRvxe474kv4thHE+8SBE2UjT26XimYEsS/p1cqeP2M6sY+1PC1LIquzCbjDBk/3mzDNs7wJRQMxyNVWbibDqFLEFwwva4PMaJtSUsNkrImRqsPPujwAfb1Bz+oAvf86DJUBVBqLC0iu3tSzgYjHHo8rrQrsiQ12bko14twbdT8LSZqlcVZTIqn07dzKKQ4bFDDwim6PbZb+y7gJD6HffdjR969etRNQw0fQ9/vHUTNzpd2ogILq/jen4Zf+Vb/zcslRfVbyXRl64XJI+NGGCJN7kVW/P5ks8FRr5S3TqOBBh/LXRrWvoXk3z3+ceWcxMQkn+kny9pq5z3lwMochORJYGaRIleXJKn8d94/zvxX973W2poIm+kYMcEkyjAjGCQmnAdf45SOoMzZQsrNJ4riw0+0a+gUqsjmytgQFhpegFBIlIwkaaxFgO9nNOxwPtMJUXjn8mibDqI+R/iEEZKQ5ZGVwo45s08j5lC/6iP/aMe0nywEpCwLJP3Lol/TBMEZggHh5hyvZiAIEPznj8hKAwx8nx4XHJZAw2CidSVckcjNfNoQOPv+QQc3ptGYxcDGmuP0JRzbKyurrAHeA9Ma4QC2W6uSi4s1koEvAzbGKup4lK0k0yh8vOMCVCSjdkhcNk8nsm2BtEMUcRz1mJCw0gl8UvNI1VYU4bt0hkLTiEHjechiQU1iW/h+8WVZRS4H4N9YvGeW6qVMZ8dF+Q83DtERifsWRJgLd6W44khhmXzYXUMf8p+ns3RYP8V8yUM2UZ5zfHh2SUQtQgmO36ADs9dgqalsnp3cvz+iK99vqb1LP7yy16Oly2vqdlchWwJIY9xs9dlm8VuEDyngYqBunPlfHJ//zKVVPdOlChRohdAn3z6Ufz4L/8MRp02CnwAoq2GnQ4ICSlMvRiGN8NZw8ZZGr+zt92O5bP34fS5V6Bx4h6Y5WVMrSx23DGmYUSjPDuu4E1YKBMMFssOajkbeRpEjfAjeWiGXFf8JSaPNZq4cLJ55DPcIphha/tATeuWYSTaZsINEMYxsgIE+pzANIAXZTBSszi3aXCnmBPMfEJNSICoVkoo83gT35OYXOjKY8ET4r4kziVFIJEilL4k7SOM1Almd9xxAT5hrFQsIh1PlbdHpkevLDdQLeVQUhXMCSPciRTslP9GgyEigoTsO6M8KQSfOEJ2LlBCIGQ/xDw3GT7TtBQ6nZ4ahnJsE/o85udZNRuqUCqjXC6q5H26llZ9klbB0GNV2kESD1oy+yuasG95PoSajG5y3wEhyYDGz1KaiRmfzT2H/Vgso+SUYGsGdn0XR+y7iNAmNbV0gopHmOQl5eczdMI5+2+ON64u4Y6lRaQyJmHGxpE7xM1uW55+MSPM6oSbwcTDhMB1tr7+7K8m0ZeiBGwSJUqU6HlWZ9jD/+/tv4A/fvwz0GjwbClGaaQIJXMUdQ1FwsadhXW85u434q5XfBtK516P6vq9WFo6j1JlA7nyKsxiDbFpImNkkBHjH9DAE0Ty3FejlKexnynPsHgt/MBXyyyVVhAkvnJrnkE2pWPcH2FMOJGZTuJRlpw3Og2reFqylgEDExQIW4f9AEetDvo0/OI/CGjkpT4VbTUBJE8jToPt+srbU+HxT5w8gYWlJUguOtlfsVRQHiDxVfuuh5XVVRikqNlsjubBoco90+n2FRRJZXDLtNQwlvRLwcmiThAx0jwGYYqchOF4zL8DlbunZIJwVcDYizDxXOWFKVarkKR9MjSXL+QgVcxDtl3y7Bj8TOOxNQJLtVZmf/Ak2MZ+p4XxcKgqoJN3FNwQ69hGqOnfgTuCQcCJpjGCaE5Y9JBZIKSdWsYS4a6RzyEIXFXCIuUQzrIOqlqW2+gocTvJDyTetfHIU5mW14sOrXAWF48O8PHLj6I/HiEUYOOxUwSjkNfgmfYW1gp1LOS//BnCL1UlYJMoUaJEz7Pe9/DH8CsffJuKJ4xo2CMavoqVQd22CQYVnKtcwJ13fyeW73gD6qtnCDF15IoFlGngyzmLrzZKuSLqtUUsNmhUG4u8m6cwGgwIERoBQHs2W68D2mhV/8ghcNC60/D6KGsWwYe2fJZCp92DS1jI5wswVIBrTAgKkM05Kivv3Osjb2s46I6wc9BV7ZV8NDKspdwZNPziHZHhoTShJJd3lEckR6O+fuo0cgQC8ozy3FSqlePimNxeZjVZs0gdN1coIB0HKhfXUbNFpkqjRlCQUgYCYlIOoV4popy3MWWf+f4EU2ER8YywPZIV+cxaDWmT3xPYJK5me6+FqgQPE/wkR43Uo5IcPGWCiGMSBmehGt6S+J28ZBSWoS13jGF/iAk7TYbN6pW8is2ZhlNV80ngSOIm5ZxlKEyKc17YWMYb7jqNc0sLWCwVkQkniMIYVTOLNdPBMl8XsrZK4FeI59DZljQh7ub2IZ64fB0PXn0GH37iQdzY24QXSe2vCbxpiGAawBWPDV97vAZ3LJxG1vjcfGaJvrCe9+BhmZkk45WJvjGUTDFPlOjLU7PfwQ/91A/j+v4mBl0f03imEty98kQD9526HbXGnbiwcB5L9TXkbEKBqWFCw21wIftAT4kzJaU8JVPevie8n45oLLeOtvDgAx/FzStXMBuPkaZBFO+IzIyazH0+8Wcx4z7sWOJuLBp8ic3L4LA5Qn80gU3A0NJpdHpdHLY7KgbH1tPITLo4sVzEMEzj4s0WuiOf0BTCyRA4CEpDb4pUOkXQkhpRBUIMoYGLeCnO3H4nCvk8WkdHhJYuSrUqOvs7qhzDM5t7WCZQnD5zGtXFReQJXpLU7+ioCTFKK4sLuHCGfZCz0e50lZdHYlYOD1ts4xBT9oE3cglTmqo9de+pOuqElp22q/LfDAgoAkOlrI40YcHKWmisrGBh4wQsgqHX76K5s0e4nPHzRRRqdRVYfe2ZqyrJ4Hjo4t7bTtJmuTCdIuaELX84IqGloBPadPHAZIGTF9Zx4c47kee5IWXiZnMPH7m+hR6hUZf8PAQr8UJJ3FSX115Seuzu7WLz5h6v/wBhKsY0PSUMWnBqRWilHMpVgdgCTAJqzGuSs7L4gbu+A992+zfzGom/LdGfpOfdYyOzeGTGk8wOSpYX//KVzlxLlOilpv/Pf/5X+MwzjyCeRJi4ITQaQIeGa/nEHTh77juwvv4K1BvLNOgWsjaNIo22TWOaE69IJg2DECE5V+Q1K6CiZZCXANhcEbVaA5oKep3B0XQc8X4bzWOEswgWISVPQ1lIm3zyN1C0c8jQWIPv7WIZUxpeuT/3CB2D0Vh5TWS4ZkaIycwmyBerSOsajX8Ab+ypQN6sqauZnOJVkaEb8bJMCQeSwdeQaeI0wtVyAQXH5D5iFYsjOWc8d4wWYaVPUBCvkOSSkWGjjfVVApWjHoA7BKGIIGMTeIpS2JJAJ7lopAZUTjxXhKIcYSVLcMgSAGfxXGX1NfhZd+AiDAIJl8bNrUMVzGxIbE25imw+h5EXYvPKNfTaR+h2ewj8sZqGXqrWj4/h+shoBq9DBRH3I9DnehMeIyKksO9VTI6FPM+tUbfVzFcpdJlJy2SROXYIh1K+QmN/CeTJWFY4nWDijVWAsk/wnLMNxxW95xgTLL3BRLUrwIzQJNf9uJCpTBOfcNt2t4l71u5Qif4S/cl6QaZ7J0qUKNFLUb3BAV73F74bfYJG7E3VMIpDQ5xbXMLtb/x/4Dvv/jbcvlxBNaepWVIyxGLIMA7v0hladolt+WIKeSsfTSMcjbrY29/E1pUn8KlPfwL97oD7MhCEQ6w6OVWd29INQoGNeaQhjDIqe/CNm1sq422f0BISEvK2jVLeAgg2FWOCUqWKmWGi0x3TyI4xdj01zKPrKTX7KWfLdO88poSITIqAwePIMFONxr9UKhC2CEgZU830uXn9Gi5fuYFOz4VtZ1Xwrm3ZOHvhPG67/SwfmiY42NmD77k89zmW6kXEPH+Z+XXQGorLSnlqDJPnxQdlyYBsCfTxvU7Qkliho8MmTEtn21yUsyZWV5dQrdXQHU9w8dImwjH7hdAobOGQPdaWF7F++52qWvr+7hFGPL/VjRUVnG0TPJutDgoELM3Q0eL5ewTTQqWM+15xijDaQHlxBWkrhyv7W/jk1esYpHUCWF55WGSUYuiN0Oo1sdtqwT3qQp/yehFiWvy83e8jJbO4CKtm1SFQFVHkUi2L1yyLCWFyTsD6U3d/K/7yN/+vPP0/6ZeQKImxSZQoUaLnQVEc4AN//Id462//Aby+D7ghijpwsmri1IWzOHvbm3F2eQPL/LCczShvjECN/iVAjUiCfk0aUcfIolgoQ8/qCPwO+oMBZFaUMQMqfNqXGUUmjeVUEv/NdRrNELs7WwQVV02fnhBqJLeMxKPIEEo4T6lkgQtFg9vEyqsgU5/EyEtwrZRWEK9KlmAigJLjtpIw0LYtODkbsyiU8FtYGtvmmND4t8HtNZ5QmTCUzxoErCmC6RSuxAjxmIuNKlZXGjTsReUxmsdSimYGl7BhEMok67EkGZScNjKrSey8pmfU8FnI85RZVLmshkACiQk84o2ZhR46hIqtg6aKv5lzLxOes3i+qtUSynkDGvclSfQkHkjOb85jaOxPjec1J2xJ/FF7IF6jgOeTRkzY0HMlxPxuzHU/cfkSLu0doMvPNd3i/nQ1jbvveRgQYK4f7GC334ExJ0mZGsY8/y5/F1O2X7cId3n2R9GBWcgil5cSDA7PfU4A5knxJK/1dnDH4lk0Ckkg8Z+kBGwSJUqU6GusGa3lw08+iH/70z+NK0/exNybqllLi7kUXnsqi1ffdS821r8JlXIVJZsAIHEcYqy5fClQI5J1aKNVLhkjoyFFkBgMjxCO+gSeNMpStVqGl3QJLs4iIJ8ILIhXRIaENMNU06fTEjtCEJizzSG/96ScAz+XJH0Wt5Uq3O5kygOKt4aYMpsTaHRkaMQd2znOx0UQEDjS2SApMZCZkxa4niSti2ngNYE2trdMeKgWLFRKOSw0KqjkLTVTSrIDZ9meYj6PcikPyxDvjKnA5pBgIgAmsCEDOXEsU88FUzLI8Bxth2CQtTF0fTRbXUTc3dANeK6xGtqK2Y4Z+zRkBxjzKQrFPCoVCTJmPxNQeLrqnMtVSdQns8h4fhbPRde5rzl87rdRsrFQK6JMCDFyFe47hUG3gyt7uxhIfSoCptSekuE6mUEV8VjeaIDN3W30CEcCgi7Rqk+w7bL/2bU8P50LgdZh3xVsFa9kagZ8tptoR/iZEzqn2D7cwWvOvIzX4ivP9faNqgRsEiVKlOhrrJ29Hfy//t8/io9/8FOq1EGKxjJvpXFhQcO9qxYWVm+HU7udT/9lNeNIAoX5P2W4v1SwuSVZd87/Cwgg7TYhgAbX4t+5Z6t3W2aOMBOp0goCL67vEwTyspWqTyT1llJTgkAcqfd6mvDjT9DpjlSQsENgSdPgCtxIjIi0ToJkC4UcsgQbmQ0l2XpnhAhwP5l5pHLIOLk8NOKHFvJ48wlm3ljF10iZgqqjY6FSRIOLTNu2jTR0HltihcTbpKtkgSnkCX6S8E4SBLpeqIKdpY90Qly7M0CscsIQgiwL47Gr2jgjgLlBrKa0S4mFomMpUJOZVmvVLEFGOlpTOXhmnmQU5vmZkviUr9kce2WOMcFPwM0Qr4qlIT0ZK8+T6WQJiiY/zyOWzMqmcQxQsfQLIVLia2JCycTFkNeiOxxgZtsERx0+Px8RrEaDEWYEG4mpkfgdoVOZ6p5jO6JZStXDmvAk52kC1iytht3yho0Ly2fkcif6AkrAJlGiRIm+xnrr7/0efuZnfx7z6HhIQSJt8zkNL1/O4L7FIgpVGqnySfh6AXMa5rkE7ZJO5D+ZKi327kvBGwmYJDNhFEbou2OCzQFcLpJYTiJps2ZeQmZUMK1kQJdjpDVTDU/pqUh5UFJTHy63zYg3w0yjZNPgsj1+RCMr2YdlNhbPIwgiSGbgLCFCglzzjkOjb6j4HQniTdNay3RogZRCIY9CzqCx5v7yFgpZU3lEzKwFXdbnOWZpuG1+Lhl8CyVCEGFFNzQFgTIEBoKZDOvIEM1CraIyNJcJKpJrR2ZOmTmZkSU1r3rotDtsJ+GFMCLxNpLEry8B0QSfhiMxOASxShkn1urYOhhgTNiUWCe7UEC+0kCxVlMJD8dDH0Y+j167izDwMCeoWXZOTUOPphN4wz5G3T4cbhPzezZQle8JJj5hy1Ag2R12MRn1cShgM/FUgHedwBTKjLLQw0gCiedp1c4ZL7aUVBCvW1qmqUO8Ygbhif1m2XDYfnFo9QZdvOzEnXD4WaL/XgnYJEqUKNHXUCPPxd/5N/8cbW+ElE6QoNESg2cTBu6lgbx7bQ3V5dvhWgsYzzK0jZL4zlVDPpIYQ7wkEj8jmXa/GNoI0AQ05MMwxJCGsTN2VVFNr70JfTpAIPEhM1PFj0w8H6YhM65yKitvmUZcvCQmwUKS3UnQ7Jht9twR4WQKy5LhkRx0M8vPA7S6QzVrKvAJSzymzBSSGBrH0mCxjVJA0zZ0QlQGOUtXpQukYvkx4BSRzxeRIwjkq3VUGoso8fiOTC0vlHiumhoqkiEylTuGxl+CddNziaohJBAiBiNPseFMxa6wDRld1ava3m+pRH/NwyMEBIz1kyfYKykM+v1jyCIcBC6BjsCwUJfMwyUUigW0B4EaeltfX8H6udvU0FSaHaVAg9dAvDIynJWezwldGlyetxxfYpOieIpuqwPdysInwPT2D1BvrELjtY5bbcx47Br7pJrOsL8mOCRVhlx3NV9QgcIttwdv5KtMwzLsFfFAc7Zd2i1uN3YtGXiu4LGeZbv4mctr3Oq2Uc0WcG7ltPptJPpcJWCTKFGiRF9D/dc/eife9qH3wqCR1xwTMAgqNJQLNKb3QscajXt+9U7EuZoKio2DMdzuIVxvCHfiKmoRUydDFJ+FG2XMxKtDA8/XUTjB9qCPnaMjHHY6GPQ6iAZNpEZHsKIJHEJFOOXiE0IyBvLFCkrVGgqlIqGiiB4N5aUr13HQGai6TAGhwgu4TCYo2gacUpmAJkUcR+gNxwjF+M4ljw3bFhIMCCC2eKFsi3+Df3MhQDimhjzBRqZDyz5y5RqyhTLMXAkmwcqSmBx+lyVgyZIrl5GvVBVwmZatPDCSEXnG85vHIc99TrAZqYSCDoGjL1W2CQ++66J1eKA8P3nbVAn/pMDm+skN7G3dRBR4CmzEo1Sq8BiELjMjxZiHKr/NQsXBytqymsU1ONrluU1VF0scj5PPQdN15ZGRvEKSVHHMvpa+d/2QbRkruBv2e/y8izzPbxpM0D/cRWt3DwX2zUKugJP1RazUl8A9Ixa3GeFpl/0eeiGvIY8VzxEGMQ89Y//zGoynmBKiQsJThRC2kGU75mm4gY9O80gFVb/y3L2wJZlOos9RAjaJEiVK9DVSdzzAD//yT9I40fgbmho2gZ1RwxyLegqvLqZxem0V1up5TCsNQo+l4lvicR/BaIgJjaVk+J3GMUY0ZDTvNIzH8TMjrjf0PbTHQ9zY28XVGzfQ3NrFuNXGXKY/Rz5SgYsMja4UBvAmMl0ayNp5VGqEGhpL8Rpsb23j8Ucfx95BU1W8ltlGUxmGcQN0RxPCBw1/tQopJSABuRLzIVZfyiMIaEgMjYCCxK5IMcx8hnDhiKeGMEPAyJUqcARWyg0FNVJ3SWYdaZqhjp8ivEjgsuS9Ec+QAI5NELCLBW6fV3EnMSEv4iLDctI+lWdmHqNRdWBlYpVIsFq2sVgrEgIKBLccpFDlhfvuwZXLV1RGYz+IUCbErZ8+BX/YR2d/F+2jNkoFh+uGsJwCOt0ennzqGcLGCOQy5Tkqcn+2abBNbHdGaj+ReNgOVQOLyNkdSs4cH8NOTwFormDDZf8NeQ0m4p0jbUm77YyGc4srOFNZIAy56PC6bbeO4IvXiSAz5zWVeloRAXI6ChD0xphwmXL71UYZRfZ/ai4xNz5hbsD+SuPuE7dhocjfTaLPUQI2iRIlSvQ10ts+9Qf42NX7VUxGVtdohGktaeW8mSR6S+NsNYPV1SrCxVVM7KLYN+UBOX6iP67pJHWgIkLMYDjEXq+H5mCgcp/s7h/gcO9AZdltbu9j1GoRADyko5Db0JjOAmQINgY8lXOm057QKAJFQka1XoU76OHK08/g0jOXjhPi9QawLF2Sm6njtftSV0niO3Tst3rH3pl4roZgArZR2icJ/GQGV62QRZkGvZG3US06PEYNufoCgaaOLP/OFmvQnbya2aSmQRMQ0jx/iYGRMgwyg4iniYymqc9lGEgSBCqvEA8s0SYaz2Uy7KDf6aoYmsODY6+FTPOex1Nuk1IxQzaBSqZHdwktZ++6C9euXEOXsCdDbDbhRco8+O4YHfadeH5sx1ZDcCa/6w58XL6+iYCfV8sOCkUb/sgFu4EnH8hoEeLJBLppIY5i1V4BPZmuPux04E8iwpjF9+yjZ2dXpXnOUp9K6kxBYmzyRdQLJez327h4cwvjrsTmcD3pAKLSrO0Cwwlm4wAztifF/pVZZBn2dUzQGnpjglUa59ZPqESBdyyfl59aoucoAZtEiRIl+hroaNDCr3/sbWiPOmratkGrKNN/J6SLkAYyI7OP8gaMkoYoV0KYsmkI+cROaJjSYIuZy8g06lQKIQ2n1A3q9bs4bO1j82Abh5ubiLpDpLhN4A7VtG3JpyJDHBGBwHM7BBHJTeOhud+lYQcKtUVUamV47QNsXb+BSzT6ErwqeVlyhbwaapGZSofNjqrCvbZUJ+jEBIBQDTNJbI3MlJL4FwkAkRIPlZxFmMmiUshhZaGByuIy8gQ1gRpTPDR2TsXJiIdHZgnJ8JKAyzHYCMhw4ecSK8JuUrEmUjlcKl3OCIACDZLHRuKS5uyXUa+PXqePCb/baw9p6AOMCSad3ghuEKpZSUeHB+h1+zh5dgPbe0fYOWir2VTlWh31ek1N+5bCmJJjR6atx1I7K2ur+JoOISgrMUFODsvLddzYOlTQsXn1GvYPm9jcO8T16ztq+rbsx7RyKkZHEgUKaOWqeURSnFPiZSTuaehi4Mo0c55TLNAp/cZrzuv82NPX0G8OkOPv4Xwpg2WdzCLDW20f8xHhkeeV8iaY8vylz2SG1iHBbqnRwMn6shq6XK8sI2c50nOJnlUCNokSJUr0VZbkVfnklYdw//WH1HCFTH+WANTB9BgSxNshM4ZyhqZKEtiFRejZhiorkOITuQyByCxkMWQRDfiEhs2d0ViGI3QITDtHuxi1OrBmc4LCDNNRG64/VgAkGX6JTwjdPgb9Noa9CdxRhEK5gWK5qvLIDFtH2Drgfg6O1BTsjJlFuVykAWf7CC/bR12VDyaftVRF78VaFcsLZTWzSDw4EqviZE01RFO0dTi6VBQvYHVjHYXFddjVBgy7qIadpDSBIIuAi3h9MurdnAvFz9TCvkmpSBP1p8odI3Aj/ShwMOPfs9TxNrPAw7jfQxjG6PtT7BIMjrojFdgcErg6/SGO2n3sj3yUHBMBz/eg56JB6FpeXkLeFJBKY2mlgVHzEBPCySBMEb40nDq1gS6hTuN5Vet1lTVZvFUyNHddAIcwJsf7zJPX4Lsj6BleR10SDEZklgDFShmlxToCApZEBPkyZEhQkSrkzd5YDTtltRnG7P9KNouh6+LqzQMUrRTuKMxR5z6qWoT+cKpKLKT9CcGSJ20SDAmHEvsk8HZ6fQXVfAmGbinv2emFDQV+iY5FTkyUKFGiRF9NjWl8rxzdIATQYJ1Yx7e9/BU4feIkPM2k+U7Bmku5BE2SlyCwygSLMhx+V3HyyOtpmAQMMeM+jdaA+2pPBmj5XXQnfRrzHsZjvu/sY699Ha3eJg1pn8ZaYl9mvKlPkRbPgMzskSGOSKMBdNQU4tj3MRl0Maax3d47RCCeGseGk3OOvRdcOsORiunR5jF6EpvCdTYWiwo8Bu6Ehr1Dw3tcW6koFcB5HhLULGCUqy/CKpVhSKCr5IORoSbxxnAdZXZppAXW1H8KWp5deCwBmWPjLJmOZV21Mq0UUUiGrghIuu2gXK+oadq1bAareR2FdIzxyMUuwWGrNcSVvS5uNkdodsd4+qlLKGpTLBayuPPCWZxoFKClYti5LEY8t5nJ68G2ibdFsiuPCW5nbzurEvZVK0XEPO5c4pvGPq5tNxETYGxLV8n9Wp0hBr2hCkwOPY9tjeBYFgEpy+3YN/msKjPRHAfoj12M2WePXNnEk1e20TrYR39vH99x+1lsFPOYjQJMhy5fh8hNfDQsXrepXMc5ZpJckN/3D/to7bYhxUtBOA5kVhYBeLe5i8PukfRuomeVgE2iRIkSfZXVGYtxvYm7Vlbwl9/4vfjrb/5f8L+/8buxVqpCT6Vh0GCreBvLgNlYgpOvwyA4GJLNN2cjw+f9WWaGMBVhFLkKaEahCzf24RM+ZGjGjaTK9hDTSQdRhk/2fOrXZcyLoKDN+JCfMXksG1NCTK95hNFQ1vVV/MeVm1vYPWpBii1mtAx5ZoKAxrnbp7H2JirDsD6bwvc91CTLbtnGfquPg3YP7U5PZfQdDQcEKl/lm6kUHTQWF2GXKtCzeRVHI/uV+JjjAGEuMpRCuBJoEWg7/lveEGz4KlO9BWqEaSQsWYaIZFjqVnCxAINu2shy/4urqzh3egnnV/J4xYkK7qyaWDDIifEURYLLuq1hnfY/7HZgTCO87Mwyzq3WCHYe92NgOJ6omCKX4DecxCiVHJ5zCp2DPSxWbdx95xnUayXlHZEWGYRNGa7b3WvxXaRmUQn4SV2syZggGHqEGlMFIUtfypDiKIiQZdvXFnjN7SxKOQPlnK6GxkJCy9HhPmoEq9ecXME8mCuPkzYN2O8T7nciAU3qtyTXU8Bn0hph0nfh8NfRPWii1+moeBuZ1v/I5UeP102klAxFJUqUKNFXWQ9efwzP7DyOH3jZy3Fh5Q5Cho1qroqbm1doPG9CiyYqdkamLNcXGlitbyArM6IIJqPJAL54L2zJfmsgSBEw4glBh3ae20jQKi0jcpqBSi6nqllL+QExwJLcLaRxzUkgbRCojLnDfh8TQotTqtEAB7BSEzx2ZRPN3gi1oq1m/0ilfgGb7YM2RgQbjY+8AhgxKWRjZQE2j/HQxRs4JNBIvSTD0FDLW2pIqk4oOHdiBcunz8OpLsCwHILA8XCPipv5nEVA5XhISh6rP/s511WLfK96UMCG28s6x/+n/pZ9SqyJmTVRrFXV0qjnsdrIY6Nm4+yCg7vXSzi36GC1ZKlhJz2bRca0MCaYDAkyu+0B4ayvZldJKQfxvMzmaeTSEVJ+n82KUWnUVG4aFYzM6yDOI5lVZRBepG1z9uNK2UKBACWxRwYhTjIVF4oyld3iugRQ7klKSCwWpe6Tw3cEHe47n5oruJ0pL5RGoI1x5chF3w15rYEjb46tptTGkkMde6/kGks/iZdLsw2VlVnKQkTsk/1mSwWb333mDnIyaS5RAjaJEiVK9NWUGJ//8qHfRCYe49tvux2mU6NR0jD2PVx8/I8RtreRnhMkaOqkbpNmpJEtlDAjLMhwU89tqSf8LN/LLKWsFJLkf5IEz5QZQzSKWRq1Eo21SUOblzwwNJJTGm5J7JfhmpKhNpQCjRkNRUmuJ0aQT/6uAI45Q6s7wM5RDw2CjQwxTQlLzU4XR4QdqW0kpRYkn02+kEelXETo+3jiypaaDi6zplSMSjlPMHK4jyxObayitn4GZr5M6JEyA8fBwgIqx14beX12YVtuTfOmXVaffRZ4+LdADC2++v6/AY+sr0HKGshwlCFlCSSpX7mKfK2O6uIiVtcWsLGxzGUR9bLD8ybUSFBvNGefhtht9SF1rdr9sZoNFfPzC2dWeZ5zlLJp5DMRxoS6rGMrj5IMT0kNLOl52UeJwCIlDgbDMYq8ZredXUGxUlTT4ItSvTydQamxqM5PooXMnMk2LWKxKmUmJINyBK/bh0EwlGlWY0lGOHHVUN/eMMJhx0drNMcg0DAFfxemobxecu4y+0l+V9Ngikl6BoefS/BNyOt22B2iH4c4vbyG9dqK+g2+1JWATaJEiRJ9FbXd2sMvvJdgQyN6bmUZxcIS+uMxPvPYx3D9sY/CiV2M58AgSiGm0ZrSYHX9IXbGbewPD5A156jlswQQGnjCgRi12VwKOPowaczMVAY2jT1tKw0m16NhjQg08cSnrcvAymSRoSHW+fReyOdU9erxcIjWYHwMEvEEnXYbu+0xFip5NQOr2emjM/BUbSUBF1pp1OsVLCxU1fb+aIDLe21uLVBDyOBfK7Ui7EwKhcwMJ0+dQnHllEqqJ8UiJSBaAm2PoURej6FFwYw4Y7io/ag/jl/VcJW8ymfPApFaX7bLyJCZQKCUf5BhKQtpwoFuOdAdwkVeIKcOS83CclTMT2YWYjaVpIIumj0Pc+4jjMUNkma/OCgT2pYbFZjECIeY6QchJgSXaqXE/evweM1GA0JDT0o0tNHvdHBz+0B5ejaWKzh//jSqy6sAQUW3LJWkr1CtEwJlGCnA4kYDt99+AtVSTiUs9Akg0chTXjWzmGdfh9AJJDIcduTOVNJDQzNgZA2kePyUxVcBRJ6/wb6MeVwZVtRNXn++twhtqbkMkRHa/LGKC3rFyduhSezWS1wJ2CRKlCjRV1G//r534Mr2NQxo6K62O9hrNfHoxQfx5GMfgTXp0einceDO0RpOMQwimlTQOI3VVO507CGvz1DO2yhlc7xD6wi4H1+e7IMRgUWMYQxtNoP4EmyNZpkGbzYe0ohHNIQ25tM5jbrE2xiIvBG2trbRHU8wDuc0hDNMxoSYVgcDvi/TwLc6NNxDj22IlNGVJIInT63jxPoyMmQcqUwtJQauHnQU0IihlZk6jYKFYX+Emq3jzO13Il9bUgHDMvwiQcMCI8ceGoGYY0Dh//ie7RDYEX7h/ogvCmTUq5DX8V/qVS0CKSqAWJICaionTIYwd3wMWQh+4RR+r49hs4Xp2MMs8AkBHibehFAZYK85xD7hZsz+1ufsQy4yVVvatFTIoNvuodlsK5ASr1ia+93ZbSqPydQj4Ehw8lEH45GPXN7CmVMbWKiW4RQramjMH45hmIZK0keyQ5YdJ+UaVtYXkeL1mYwmCIaSPXmOUr0BK5fH9mGL1zCFspNDxsqhZJsI2M8DP4DrThTwhmwLfzCQ0Ou8qauhSZmJlo6mKrZJcgDFhJ3BLEKkzfC6s/eg5BRU772UlYBNokSJEn2V5NKY/uw7fxGwNPT41L7VOsKNrZs0mnvqKT6dyqAV0pD6c7R7PsHAP56eTWMW05jlMlNYM58GL1BP6/uTGK3xSA0rxeEE0STgMsEsmhw/taeOiyKK8ZRp1OKQSIUzFXjqj3rY35Mg4R6y+RxGrq/qDo2HfUjm22CuE37SaHYHqrilkMbSQhX33X0eZ06sqKnJO/tNxDSwq/UiruweKe4QW8tDIm9oBIoAd3DdjfO3w8hXkNYthSPyeeSzvYQHma597H3hckwsx5JDindI9nbML8cfy1u1Is/j2b9T6kN+pPaj6EjNUPLGA+xdehoX778flx57HDtXb6C9u4O97QN02gPMeOzJdIbewMchwWLK9o2GLiFyhOs7RyquqGClsXc4IPz57AuX0BPBzheRJZhI7pl2l9AoZx4TUMJItfPs2iLyWROztA6bcOMNhzx3HW6/p4a7pEK7nJvk/JlI8sP9tpr67k5j2AVH1ekyCCwyU20SxqrkxGqtgM54rIbDtJjgygNJvE6lUsLpRgUbtSqcbAYH3b7K1SOALEHX3mSK8WyKZr+N19/2MpxaWlf9+FJWAjaJEiVK9FXSp598CB+99CAmfGKfpWKYfKqWp22NhlFqL4n3oD2KMCCw9MdT2kpJ1jZTAbkyrVjseZpGbTJ2sdka4uJRF63REHEgs5Ym8Dwfk4mvsgvnNYGaNKaBB4PAkua+pu4UgQIhl8Y4Qq9H4w4LdQKL709pTFOY+mM1fXkUzFTQazRPIZ93cPbUCu66cEoVrWxxu+s3drBz1FZxLa+88zSu7zafLUzJNtIgOzTeZQLcfRdOo7F2EulsgcAVo7ezhe2nL2JPSjzsbKPfPGTbXRWQLNmB2TPHnXUrT438TYD4HPFz8dtI/hoFOAI2/N8sDlW8j9vvcN83cfmxR/HUw4+i3WxCinXWFsqwHQMdgovkmwkJEgJjQ0LN/oD9RxBRQ1KErgFBb0bw0Hk+Nw+6mERz9lgaeclhU86huryEZqun4lg6fRfVggXbzGDIvlvImSqoWDxq4m2R9grQ8PTAzQlf8+NkhxkNEwLrxA1U7I4UEp2yvwXOirbDU4qw3xshxT6WIqIHhCj5HZTyppqNdmFjAScbJTW0KHFRM/6uzJVFVbRUpshPAsmXQ6Dmb0jAt1Is4013v/pZMHzpKgGbRIkSJfoq6dc/+Lt4cusqTfL8uKK1BAHzyVzyjUgG2rFHuCF8DPxIPWlrNJSFIp/6acjExHe6NHTNAFtHHjb3hoQgF3ocIRh5aHcGqkaSFKaMCDECNtGUwON3aXRLcFttjGnQ48kYWtaigXXg8njQDNRqNYy4D/HQpPh0v9vsg01QAbENGslGvYS8bWNrr4Vnrm3joNnBwVELAY8jQy3f8tpXYOiOVUZimVEu5SDEo3CiVsDdF84h31jCXM9iQIg5vHEZ414TkRTz7HVwuLuD7Zs3Me52yTJSAvI4EHo+YwMEbggXsqi/VS/K/wvUyOtxfhvJsTPhPtu7W7hx6Rk88+RTePLJp7F17TryOQO3330O5+++HSsnTqCyUEe5kiOEpOEKvBBu/EmIw2HAxVNQIcN4kqFZKqhXijkMR77KYKwbmgKbOvtEZx/2CSUCne22JAQMVFXwdtdFhm2TmV9BECDgdZRCohJ7o7JJs4PSArQkJhnKi8MIzcOWykwE8fDkCiqpn1T0nkrsFK9vSWpqES7Dqcfv51hezmFjqYCNqoWj7hiPPLWFI663dued+JbXvQlnT5+DSYAb+R56afYb220SosaEm7/0bX9GgedLWQnYJEqUKNFXQd1BDz//9v+KZvMIOctEoZBX06QlXPVoMCTYeHAJOLN4SoMoOWIIDVkd+bINu2xhNJ2jvU/4aXkYdXwENMQyeTc7nWE0GGFOA5qWys+TQCXas2lwx8M2DecY5XwV3d1NjLo95HhMx6nQiDrocTupoi0zlXr9ASqlPDI06tvtIYoFBycXq8oDc3nrEJeu7+LG7oGaTj6U+gs0xDJbSoz1a15xDwHAxqWrN2mpZ/I/Vbn79vUF3Hb+nArcnaU0TMZdlEpZLJ9cx9KJNZQqeUJMgIO9LTz59FVsbe/xXPqYRwHmsZR/mJJnpmrIaJaaKccMyeO/AQ4NvwTlet0m9h9/AI8+/Agee/hJXLx8Qw1Dnd8o455X3IWlk6dUCQcjy/PTdEKHDkdVsfQx8Xy4/hSt8RQdL1Q5ZIxUSgVfT3h+Eki8kDcU6MiMJsu0CBZVAqOvpmOPxi66nR4G7BPJdnxI0JhMImhsn+d5vI4TFCpFHleDlI8Qr9Y0TsHjteoTgqTy+EASHUZzgtZQxUz1uI0UvZRZcaaRQsjzhK1jNO/Dqs7g5OQcAHc8xgNPtwm8vI4ba3jjy16DV911LzYaayhXawgIxvspHbXKAgr1BczZhm+/+5Uv+TibBGwSJUqU6Kughx55GG/97d/GbB7SyJQAiUEhNBzRODUJHHOpTzT3sGJNUTNn6E7mCAkDtMDw0xqGXoyJFD0MIq4bQQ9nKNLwdcWQehOk4jl6PUJPn8ZvSgM9HmFGqMnyGFndItjs0zbPUSxVkS1U4XE/Md9XFhYJNX0VfFsr5nDUkczDEYr5nIp9ubxzhFa3T2M8g2FmVVyMkZnTyKdVfE2jVMTGch3rNPY3Nne47pBnm8J6NYe7Tq/i5Jmzapr3PJ2BlTVRXlxS057tYlVV6C4WbIIejfq4j6OjA2xvbmNnZxe7u3sYtg4QuX2VWFBicNRYHBc1EDWXOlEBAWOEwd4N3Hzqcdy4sU0gCNgmDXefW8CZc6cIbnmEBBePECdZlYNeGxOCkNtuYkKo8KSkAb/vuFN0CSYS1CzeJqm8NOb7iIB4YqFACJXhIAMLjZLKLySVvnX2f49QurXfZh96yOcc6AQmqUtVIFRUCYp5AqJMuzdth03XVV0nia2JUhlEM53H9tTMtohAK+Q2ZP82h+xDwoxtm7BsG71MhBvjHoLZBHmemzFLI8PfQLcb4IlLbf6mgNrJNbz69jtw+tQZ2KbMBstjRpCzSos4uXwaKyunsbxwAsWsg3MLS8c/ypeoErBJlChRoq+C3vP+9+GPPvR+GGXCASFiEkVwacwO+bQ/DyY0VgFWMgGKNGLibfHiNDpxBlNLUwUnQwGRSYQ0rZhARZYGGDieTTTl035/7KE/dJURr9EA97nPsp3BRtVGwc5i2O6r6dbFUgO56gL86YxGsoycQ4NLI16nEZZswXt9F64/QbVSUblrhiOpMRWrYZKIbZZCjpYMn9GYSrmFtUYZpsbtCSh7R20ctPooZQ0slhzcdWYDK2unjpPZSbHK6RQp2cfExZSG2hsNVZ2kOcFNYElPESwiH+Gwh36nie7hITy+WtoMmnWcsE4qfUt8jXhsZtMJAY4gdrSJUWsPth7xuFlU8jYC9t3V3RGevNnEZy5u4qEnruLa5Zs42NrB4IhQMyLoECIE9mQosOMSKDz2r5ZWsU+pGft8BpQcC0Xbgk3Qy+dspNiGmJAnQc/VWgnbWwfojzwVsFsuOqgSDl1eC3m/sVLDxokN5Ms1mLmCmooe+GNIzJCmhpugyjR0CIOWoaNcKWJqpJHKZjBJz3neOmY6EYsgNRDv0oTnm8/zN2JgOk3hqBfgmc0O7HIR1eUFnL77biwtbcDM2txOR8bMYbG8hPX6CtZrS1guL6i8OhcW6uo3+VJVAjaJEiVK9BXKn/h4x+//Lh548hEayxlGXRdzws1I0uvz6T4tQZ+Bj4YeI0PDnw5CtAOCDZfIINyMjw3wTE/TMKVpYE3kCSsq0Z2uSUQI4UaGalI0kCZqWX7O13NLBdx1sopSvoDAnajZPLlCGUahgYxmKjBJzyNY6QijXhs7zT4iAsyEbVldWkCndQRXEvsFEociM68kOPi4hMCErHNmtYECjbAMmzg6jssy+KGaFr5QtHHXuVOor2wc53EhRHiDHob7O9i98gwef/wpfObJZ3D/41fwyJU9XOtOsNPx0Op5MMktNVtD2eL5IsScRl0nbEjWYlU4MyOAQxyTacz+CEHvAOlwDJvrBG6MmwcePnati0/uujg0ynj6oI/93gQtQt/V7Zaa3i1tLuctFNiXMkOp2Q+wz36eEhylZITJxeL+GtW8GnLLmgYmPC+JfeKpK0/T2nINT1/bVYUsbVNXRTXtrAw3BWgPXBUMXSgUUF9eQdbJgZcQJl+lQKbnDeC6fTWs1+kMUCpk0ahXMWObhojUksqkUc7lJRoboefigMC7GczYlyAggfvTcejHKCwt4uTaBqylNeRKFWhSLJXX17IkSWKZ0FpGle2ocl+2aWMpn4Xk8nmp6qUdYZQoUaJEXwV1Ol1cu3EDoeSL2evC644x7Iww2u5Cp4ENvSmiQJLmZZDLzDCl0Tka0nwGU2QJFSka2zmNuV4rILdaxfJGHUsb4nnJ8eneQKWSx1K9rKpNL5YKqi7R7auLuLBUR84qwbRqaCwsoNJYhu5UMJvOkJlN4Xf2Mdq/hr1rT+Pi9U1V1FHqOwnUOJauAlddGu2h5H6hUTW0NDQaa/FkWLaFjaWyGrIZeQEGg6HKuCtDMD6Nvwog1g0VJ6KzPRZBTOJSHn3iabztg/fj1z7yON53cRcPHY7wga0+LqUaOCitY0urYGTX0RywP3QbdRp7GZYZHx0iHA0UkEhFcJk6ntEsSPFL+TtrFwgoJva7hDS9AL+8hH5tFfOlDS7rOH3fffjW73ozSuyfUZyGG6VRKZexsFBXnhjL0NT5edNYwYtMyV4gbEhl7vEkVBXNtw86PFtZR1ByjjjwZMITlxTbksbIlQR7AWzbUHlrZLbU5UuX8eTjTyq4jQKZ/SUBxDpCLYWY4NTzhvAJbv1xXw1RLdtFbBA+Vx3CB6Eux+te4u9Bshz7uom9PQLofl8VSq0U8lhbW8Yd587i/JkLBEKbbWf7Z2mkjSzKxRIa5RIWSvx9FHNYKeWwzL/l+r2UlXhsEiVKlOgr1I3Nm/ilX/lldDs0jDKERKM/pbFUWWlLFmL+LbEdcSqNQS/ElfYcQz+lKkWX8g7XcZAmGFQaZT7VF3CiWISk6BfoSFk06pahhkFkOKhMiKg4FtfN48RikYfSVWK+aboIN7YJF1OC1ABe7widwx0cERgOhgG8WEexVIQ/HOHMyRVIscabWzs0zjTWYYR81lK5UaJ4jgmXs2sNNBwd7SENNtu9xGNLRemdw54q8tigET13ch21pTUVXyKGXqZ1X7y6ic2eh6KTx8tf/U1Yuede7BFIQu4jVS7i3B0X8N1vfBUMdww9nGPx1AkUags8XwN2sQ6nvgRLSjNYWX6mIZain+KpcgrojyJMwgzOvfY1WLjjHmzNMmi6Ex7fxre/9pV47ek11Lp7OFc28PI7z2D1zAkYjg2XUHbYGmLHDVRSREM8QrweFgFFm88IFexrL4TP/tYIPPJKvoOT5mcyNX/kq/wyaV7PrKmp8hRSR8uXIHBC3/buoQoI39hYQeAOELKfPEKRRwgaE3ayDo9DQC0UK4SeGDmCT5H71+T3kcrAIESO+JsZRzMcHjSh85gbBBbbzqNUXcJt5++AU11BrbaEerWGUqGISq6gZrWVstwXgTOvp7hf/qa4SAyRANZLVQnYJEqUKNFXqCeffhq/+Ku/QoMnsSopSIZZvkGa4IJsBjqNYJoGqNkNcLDrYTQBbMdEgUBTqeRQrpdRrvKpm4a/ViqgSpjZHI1oIKeIBDYk1kbXUKUBlqrbE0JJTEO2tliBLYHDBIneaA5vNKZhHRKopuh127i+18T1oxENLNT0aZl+7vX7qJez6PW6uLJ5gDGNuFRaLNJIikGUVP+GqePOtbpKZDeOUlhfrEJLEXj8CY7aIwU/4gE5e2INC8uryluj6jc5OWSzDhoEnTO1Cu4g1KyeO49hSseQ/VGrVvHd3/QyvPLsSazleP6aCWdxCbWTZ5Ey87ByZeRqywSbkgpkTtHoS16XjOnArDTgj30sN5awtLGBpcUVVT7A0nW8YrmGV9ZLyDZ3YHttbJxaxtJt52FV60hxe5fAedgZ4UafgBLEakaXZD8WL4xF+y/BuQHXk+KeElsTSn6YcIqaza4E4YnbNftjvidglvIqqFjicGZRhMOBD386RZqA1FhYQnrmw+X16ezuIsNr5GRNwmsO+XwBWs5Bh6A2gmSwSbENkoV5jjT7e8a2yNBbOgxQ5f4N9mHfYn/Wl5GvraBcXsRCXXLYVFEt5FHm76ck6QI0/sR43aT0hRRW1bgIlEmG6JeqErBJlChRoq9AAgwfeeCT+P0PvpdvaFFoUObKptBa6jJkQOPpWCrmxu/5iEehqkWULeXglGmgCjnUaJSXa0U4NPaVbB7aPMaNkRRMnKFkmBgQNvI04HmJtqHRNOdTGnu+J0jMAmDz2j5SmkWeCZTBHvOJf3PvADcO+/BDmbZNI10tE4/maLdafNo3Vf2jbX4vQcsCYwvVImzxXPD96kJNeAw7hJil5SWcJDj0CE0ptuewPSBMiQEF1tZWsbq2zvNzYGSzaqZOoVJDwbFhTCew4gmKPNf1SgFnKiW8fn0B91ZsFKcecoSL0soiHLbLKlUBIwfTLsAp8tjcj66bPBfp4BnPzTiOKeE5y3R2beKqpTEPcc6Y42Sa5310E3ktIgQQIjZOEgiWoGk6Yt+F127hqDPE5eZIeaMcAozF66EmlvP6dd1A1WySYpXSBwVeLwmGruSlpIVM+Q5UUkMpe1AnhBZzUqQ0jRn7Q2KR1hsFFG1dBf9a7DcZCZoMBogIO30/QraY57V1MM/a6BNgPL5OCa/TwIVMzM4QgKf8TxU65XWeE4YOCZspp6ByBFUJNfXqAl+r/L0UCDUGimaa55s6LozKfUhXybnIqyySf+ilqucdbO6//3489thjuHLlilr29/dx4sSJZ7/9XN28eROf+tSn1AWqVCrqs2eeeQYPPvggf/ApVEn/tyTrPf744zBNE0Vx46p/EcDFixfV+mtra/yHon92+1vvEyVKlOgrkcRNvPWPfh/3X3lCeWlm4rHhklJTi/kknbNkPrbyvgRDFREKPW9DI9iYBQc2/64XbTTyWSzxdY2wUjHHmKekHpSJasbEMI5Qkpk8BJcgCFGk9cwVC7BSBsYHfQyGHgo05Kk0IUDPYWvnCN1eVx7bYRoW8gWbEOSg0+3Dc13CUwoHzS7ao0AFzkaEh3q1pIJqJT7j5FIDR+0eAmh41SvuosGlplOMB2M1M6tK6hGjWq7XsU6wkZINEkCsEUYMgofE58i07NSwhdSgiUrs41wug1UzhjUZQCPYSF0pjUZaz5do2B1V4NLM5tSQkwxDaYQZ4Y6U5HhJZY5jbbiOxMTE7hjRqA3N6yIbDZGFT9CIYNVKsJfXYNcWVIAt6QTReIhxs4n9Vg9PNdmvadoTx0SO0CnXDoSPzjiE5L7JERYkvufc6RW2MWR7DHRGkfLgCGBJHEyZ103ic3KEkTGvaakoUJqHTWAZdVq8Ph5tUBk52wYbgR47TwLAjayDmV1CaOcQ007FvDbRwS4KlolJycIwE6EvIKTbOBTzxT6QmWuL1QYKxSpKBS5OUWWGLjw79GTydybXRuydZHG+JXkvs+leqhmIn3dflWRq9H1fQUmj0fgcOPl8SXE3WVcASBI4ybZHR0dw+Q8z4o/7loSSDw4OEMex+l5ebykMZdzU/+xFl/eSVOm5P4JEiRIl+p+VpNK/crQFlGnMuYBP/eLumJt8YpapvDQwUz61BwIRkjeFT+Mhn+AjI4tZRlfZbvX5BNlUiDMEjvsaGXz7hVP4wVe9HK+7sEojqSFP4NHNOQp5C1lub9AY1qWa9TyDUX+gZjbFBICYICLJ48bDDhzbxNn1ZayvLqFAI9sn1Ei16qw2pwHuEIZ8Nk8KVbKNNIC8xaoSALVSXsWf+GHEB8AlGvKiiimR8Y2rhwQJtrdBUKrkDPjDnqo9JXWbBEJoZ6FrbG+5jOXbbkP13BnkqgSwDEEm7iE9d5Fhv6TyBWSKFVWV28gV2Qe2GnpSM6I0nQZZfCnHxlmARgo+yvRpqd5tLazCXDsJc2kNVoN9UC0jW6/AWd2As7QOu87vs9w/YUg8TCQ3BS/hlKDI85JhpIWyw/MkUPBrOW8pNVEiLBZ4yabTGL3xFPV6CbqdV0NUFQLT3S+7DWcunIAtMKYgzMByo4zVhSJ/BQTZtAaNsCKlLySgOl9pYOXEWSwXCG6wEKW4zNKYGTlCnIP5mJDbHWJCQOrPJiCCIZL8QQSuHCGxUs7D4fXOGLRnOn83/G6Wnh/bLvaz9PUtbPlC9uylbOOed7ARCUWePn0a58+fV8ufJPGqCIi02230ej0FO59PoTs7O2q99fV1dPgPVuAlUaJEiZ4PST2jG14T6VIWaOSQqTvQFnJI1W3MafxlCnHoSgHLqcoMOy8WEcrTO42XJMALpxMa1hglfY4VK8aZ5VM4cea78Jq7vh/f9ao34baNCholW+WhqRcLWKYhLzglZNMGwpGniltmJODV9RASaiaEGsnTUisXuU0OFo12n/dOyU8jwxY5gkm7z4c7msU8jappasjZWdr+OSzTQCXvEI6mKi7k/Kk18ClSxddc3+1iqzNU359YqqIqRSJDmS01QBTy3OSBkvuQARBDgmOrDSycvxMLd96D0rnbYK8SRhorMOpLMGj09XweOvtBhpwkHkRL6wpqSAjHHUtJALVU2hbgkjZI0UiL2zmNBRTWT6Nw+i6Uzt6L4ul7UTp5J3KNk7DsIgHDPDZu0VSdt3hmJoQcyc3jaGkFZzMeR9L3SMXsQlaHZaSxWHFQKVo4bPUxCSKYhkEQTBEMNRQJrDlbx5hwKDlsbAWXDgHSUDZpxvZJn5YbFcSBr0BHqpI7Fq9BbQFpXjOT51jgddP5Ot49wJTfeQS8yGc7ef20aaAquOfYRp4qpuCD+dwjEPlwIxeDwMOAfS5A9idxy0v9wf0FARvxvshw1EMPPYRms6k+Ey+LeGI+3xsjw1D1eh03btxQ0GLzyeO5dTDkAgrYOI6DxcVFtR8BoESJEiV6PjSdRehlPGTyNNAlCwbhprhSwG13LWJ9taBcAlIvKKbRm+fyiHMO0tksLBmemgXwR2PoNLJFwkjOzqFUuw1mdoX3uiWcO/kq3Hf2DizxHmhxmzQBxnFyhIIcb5oRpr4HqUuUlaDUTguhP0Y6DlDI2cjMQnjjMUaDDlKEL/EwSOyLxmN5vMVaNNrVvK2y7UrsSsh7pxhmyUAskHN6fVUl50vx/I46fTxxbVucMlis5lHMF5C1bEJTGuPREIFPcJPhGt675Vi3PDeSU6e0tIHK+nkU18+hsLgBW5LZOXk13CTDPipAmKZIZo0JyPADdRz1/Mq2CiCkCQOStFCCYsV7Y8ix8yU45Tpy9WUVcGyX6jDsPL8n1HDjtLhi5JwINTLc5smQG9vXyGbQcwMcDSUeCWpm2hKBRopalghrdUKkzqslpRcW6lVCYhr9bg/Xr21he/sQE99FLDW6JoQXrudYadQXq8gXCFzFrAo2HrtTwl4Ev9dW2YpLJe4nV4LG65sXiGN/Tdin+vopTDJ5XsMS+43nyH3Op2P+Xnz2qYuhN0TX77O9LbS47I07aPpDDNk25W16FmAErD7/gT/x2DzPEjA5e/YsLly4gHK5rD4TaPnIRz6iFhlWuiX5IZ47d059dnh4qNZ/7gUcDocYjUZqmErgR9YX0EmUKFGi50PtUZdgYUKnUcvkaJz49xtuq+NHv+cC/v73vxrLa2XEfOrPECpSpTxIF7D4pK8Zc2TjKbI0nLNYpjVLVSUHGUPCSY/vcYZmEUhKWCzVsFBtIF8kNJVyKFcqyBN0JMlcgaChE3iGgy7mNIi5XBaB52HYH6rCjKoiN/dlm2K4uS5BRoaaJE5ktS55UPiZDKFwPamdJDlqMoSH86dW4WRmaHba+PRjV5RXxiYcBQSGnYMmvMBXye98dwjPHaukdbFkH+Y+UjS6ckwtIx4hQggNumUXYBFoLMKHwbakM4QariUQJUNFAjeyCNWkFNnwb9oKGZaS4TKJF6L5RprfiSdEhqY0w1IVs3XuT2J05HNZS9ZRgdx8ldpX3iRSJSYa+jG4HfR99EaBCv4Ve3RqiQBWKaMfptGoSd8aCoqMYgPrS1XUCoRCAkyXMCLJCw2NX7PdIY8lU+RliNAy06qv5fwyVgGHB21V1sGSDNGSJJHAKRXfw6mPqNvlPkxoTgV6rCPnNJB26pimdQQyRdxz1QP6NrffaR9iq7OLvf4+toZNHIx66BBYe5JUUdiNACOnm+i/6QUBG9GtGJtbAbwCLK9//evVsrCwoD4TiXdHKtPmcnxKkeAuvj5X4vERmJFaHAI34uGRgOTnen2+kGS4ShYZ2nqpu+0SJUr0P6+DwREqORslgosEAjtFC3/2fAFvXs/jB195Ft/12pejZFvIVYvINoqwF8tqto2TiZEr2Sg36gQAB30vRLfbwqC/o4a3+OhOA9fEYDhGjQZ8uVxFhffNarmCUq6MPA1ogZBUrleU90eyEmdtm0aO97N5qDL5ylCKkREcIEQRgmR7zXKUUZZ8LTnHwPJCCVnTREAjH4QxxpMJcpamZhgdHh3h4YvXVUVxmQotuLV/1MS1m9uYyQwsttOV4NzhAAHXUXATS42nmE+lx4kH06kMQUly5Bi8PxOqaLzVIuAiwzezSHnab92Gj5Hu+P9lHYEwqcgtAcQzyHBXdOyN4SpSX0r+EwkMCdCIURMYUnE6Ah+Eje7IV7Ezsub2MEDEg435fiLJ+sIZ8nkHZ1ZruL7fxWiaRq1RVSUpRlLd23Aw9Nk+CV7mcauOqYBJZjk5jqWCsa9dvoob1zZRWVjBqTOnCYAZ7Gzf4LKPEfvLJgQ6/ggZQknYbyLsNpFxPZgEUEkREGVM8m4dTmmF++Q1SmuE0pm6Fv3BgA/+R+j3ttEdbmJnQMgZtHE0HqFFCB3xuk0VGMp5H/eF6KVs1573WVFbW1sYS1E4Aon8Ld6VU6dOKSCxLFIvl1vT1MSLI+tJHI7MdsrL2KrjYHt7Ww1PCQxdu3ZNxeC85S1vUXE7ItlG0lzL7Cjx8nRJx+L1ETCS4GLZb6vVUseXdWVftwArUaJEib4cPbL1FJ7ceQZyB9FpS+olB//LqQJq+QJydhlX+wau8l7Dx3pkSgXey9LIT1w1JKHTMJZNgRGaYxp3FfQRDmmgCQeTJjpHN9ETL8GMD3WEAyulw5C55LpB8NB5r6RZN7K0YikZmUK5mEc8GcPzJYBVilJm4QcT4sAcNu+tuVweId8H4YStTRGweL/lvpojGnC2XbIOSzD0WsmCmZqhPfSw2+oh4INimoayaNHoazH2ByHcKIWDvouIxnRVil7aORg8hkyxlpiZTEYCfwlDaYKNeF7EmyKGl/QhoCWGdxaFkNpKUrF8howKylWeGEKYysMi64uB5hLH0+NMwKGv+l3ARXl1nv1eIOr471hN1Y643mTYR/dgH89c3cGlgz72vAg+V5HyFAGhRh6cZShK4mVOEfCmPM8u+2JpZREjzyewjWESSq9vH6mYG03WZ9umqsK6h15vjK2dpgIgyXB89sJ5aLye/rjLpvAaErykDle+UIQpMTeEmD7b07q5g+nYVVmCbQmgNi3kCa+alUWkmZiwbyc8lpSWkJ+GlITQ0jPCpAuPfRaxbySQOErxHEh0gjOqjwUE2Wc8RdV1AoafP0T1UtDzDjbiWREPjEzfFjC59fqFJIAjcCLf3wIVjf9QBG4ERgR25P3S0hJKpZLaRsBI1hUIkngcARY5hniIxOUo7597XHmV/d6CqUSJEiX6cvTI3lPY7u3CoAHhszxKvMe9fKmGRr6BcbqKD13fR6/fxVhPIyR9pGkQbQKETajReN9J+1OV0j8Vp2nQMmqaeNofwuvxab/bwTSYqQR9khxHPC1zGZLJmnD4XoZoZIhFctGENOZSRiH2RjTOHhzbUZAy8gN405QasqkWHWSzBuIpgYLb5MTTw3toaxjQEAsUzNSsq4qRQmscYmOpAj8MsHXYo5EE7l2XsgYxHmtOcOCG2Op5vOeauH1jRcXcCNjoPH+5L8uiClqyX8S2SiI62T//7/hY4qmR7LzDnoKGtNSJkqGlZ7eXc1OeF1mfQDCLQzXUJeBGC8/P0+Q56RfZpawj+yTCEYAkYFhyxEx6bbT2dvH4NalV5cEVr1Q0VyUVZOArb2nImRlCQ4rXb44TyxU1VDUaT2inipiEUzgEOZliL1O+TV63oRdyCdAdjHHUHSsg3DixjGq9BncwUNPMBR7TvE6QGV2WASlaGRKGptzHoNnmtZohVauqquDV+oLyrOlyDoSaPgHV5XquGnWQDMIpZAzaPULOTLw7kc/fQ4CQkDMJXQKheGukjwmlbIvMYJP8OURk6Ldg8iWm5x1sBDgEJm4tXwxqRAIp8v3xPwz+jAkm8oOXz7ISSMf3t4DnlgSc5HuBGpG8ynFk3ee+v7UkUJMoUaKvRH987TPojNrQaT9MGhmHnxmGg2kqj4stD5f39zCaEgQmPp/kaQhTUsmaCCSGjwYuCmiIgxgTSQ8czlDX8vBpPA8GfYxp4PgVAcnAlJAw431QakrJoIrBL+YylMLtxBCORn1EYYgs9z90J7x/0pgSkiRHy1zL8p5po1bIYnm5gcFwyHupruBixntjq+/T2Ac0omk1m0qy6t446uDuMyuEFR3P3DxUgaqvu3eVoDPF5UMaVa7jRzEcgtJ9Z9Zg83iSx0bqRimPi0y35inKnTd9C2oUPAnYCIBEiKaBms01N3Iw8mXVJuXxEeDjIkNNQi6y7oyL5AWaKXARsJH93Nofl5kUCSUAcZ9xOFFg43YOcbCziyc3jzCezlVZBykHkeN+S7aORpZ9yV2MCY8e+1Dy+FRrZRw2u4SGGAsrDRhzAZIAAbcTgBQk6kvZCgJStS5B1IYa5tvcbamkhxLv1OuO1HCXR4gtSgwUH8ZD/n24s6e2L6wtApUqpiXaKscg6LK/2J8hj7Hr+zgcjjGQ2XQ85yIf4ItZi686bNq/StqELX3LPhgTOqf8TVQJPmUuGR5TEg263FbipRyBxGdt30tJL70zTpQoUaKvotougYLWMT1PwaRhtech9vab+ONLN/DQ1ZsYuTJNN8B87KqhiICGuT0YYo/gMGgNELkBCnFK5ZghKSCmkb22e4jNzgh7/gw9ws+UBjmSiFwatoB/i5EVoAkJQDTpKleXS5jpDGTYKQOHxlDy0cqDnGTxtXMOYceVtDoqo7AU02xUC4QVHnfoIcV2TQg2Um1aPCVWroSxH+Cg00eVMJSX9P21Ak7ecQZp7qucyyogIEugOxYoIpzMp6pWVDAaE9J8GmlfAUYkQyfPBhVLcj2BFBl2Ew9LKqWpOldaNsdTM9TQlQTLSOyODCnJugIsIpkdlUpLVfMsF0t4BjPuX44hMMM/1NCWAh/+HcmQG9s1Jjh12MchNyjm2B8Er0bewp0NB42cgaJt8ZyB/Z6HK7sd7HXGqLNvckYGvtSYao9VELbNzgsJH3mCTN6xMOX+HDur2nt9+xBXt5uYEJ6O9g5xjde91R3C67vwBj66vT5CifFhO3uHTTSbPTWLSq/WsMtz6imPFh/mea1lOvlBd4Aer6fEDBUJpIt2HnU+6C/zgX7BclAFQXWmYcDfQZO/qw19hqW0h0rKJYj5aA0GOOz1ELDdL0UlYJMoUaJEX4GOel30acwHIxfueIKJGPZBBz3xFnRaNDB9la1XpnwbNOZS7Vu8NJK0ryPVwP2QBmyGZRrcVRreLrfvjoeIJwIBvEmLBRcjT3CQSeMCCSlCR0DDJ94OSSA35JO7zGZq9ceqcGal1lBZgReWF1WA687eEQ10BynMsLV5A+6wx/3JEMacbRvz/4+rS0v+G9/zUOD2psntDto8lx7qjoET507j1J33wU1n1VCK1CaS2VQDQsNOqy8jZQQAnr87QjAe8dVFOJFp4IQPgp2Ue5C2SzI/qSSuLLlACg11JIG87phgRIi4BUMKWCY8dcLKjLAiw2ziqUllVNbilGmIK0iBjOxbeWokZw2X42NOMBXA4rHcaI4mQVBmgS1WSwgIUGrIrZrHbWsVvPJUHVWeowwJXt7cx/WDHmYEvLKjc/8RNo9GaHdHqpaWeLNkptWMfba138aQYLi0VMHGSgXlgkOjOlf9KIHG8t3EmyETZzDmtY4II9VCAduXtzEde4RM6QMdg7mGXZ5/OGwjOxyh1e6iN2A/sl+yuqVy4djsJ1sSA4oXS51rjHYonqMJamkfRjzgcYYogG0dCqARtPi7eCkqAZtEiRIl+gp02O2jRWPUoSEajAgqBI7eyOPnXeztH6LX7sMjm4R80pcEcRL8K8MXklV2RmM64mO5S3CR3DOlrIZpOIaVmsOhYXUIQhoNKSIXs1SIecgn8okLi2A0p+GXXCsujZsqDUDYcMc+YsPG0plzKDeqmBMMtNkEnu+rWA2ZsXRt+0jN1hEvj6FJkrqZKuKYt7NwCAvTMERv7OL0yZN88nexv9dCjlC1fuY0GhvnkbbyGErhTEpy4QjkXCEARQQQgaXApzEf9gl4Axp1Tw3BhBOPsEH44L4FFNgNKj4mlZGkfAbX7aN5/WnsP/0wupvPwG3twhu0CW4DQhghcf8mOjcvwe0ecEOCggxZ0eBnBHDYT3OBRRpxtQQ+Ih4v9F1MJuwPGb5LyxDUlPAXESbSvF4T7I0IQWlDVVxfXyjgNecbqn5VjzByafMIF7lc3WnBkmEgXquWy76eECDZ/iEhcsx9dbpjdLivCa9HVpd2RBgTcFOEmhnPVye0SK4bCXYICCDN/ghTQkzMtrSaTZUoUIaLJoSwHq/H9V4PcesQFZ6Hzmtvzo7jiHQ51wx/GwS+yUxiplyV32Z31METvSP0giH7ZYLM3IcfDtHqHfL3d4AJAeilqARsEiVKlOgrUHM4RJsA0O6PVZmC0YRP0jR63d4Y3VafT88TjGjgppUS4loRdrWIOl/rlQLqxTzhQFfhnz7hxp2GKOgplEwafBo0LYxVIczMzIc+GcMYj2G6UhDTJMgQFGhAvcEYsRdiJJ6ahQYWz9xGYNAwaB0RCvqo5QxlsB3uczwe4pDt2jwcsK0j1X6fx+gNXZUTp+hI7CJw7epVrK4sI+fk1foxAWVxeRnlyhIMfkYrSpChwZZhI767cdhFpzegESZgTCWWaAhvSLAhmARsd0gYC/mqvDDiseH2kvlXRpxUjhp+1n7mCTz5vnfj8Q+8G9cf/Cj2L30GB9cew87FB3D1E+/H3oMfRjzuqNgbqGEpLoQigSMZl4oJTX6/h4DHleGpwJMq5BE80qRM7bbYJx2ep2NIQC2wOwwINZq6Vi03ILwYuHOjqJIOSj6ag6Munrp+hEtbLZRyWZQKtjKYkv1YkgS6Ic+V18YLYjx9vYmr2x1VOVwqnds5E/1en2vzTAkjUoeqVKkp79I1QmUwIVQh4roGr7eOmOBo8jy6XDpBiEYmhYViDku1KizTUbOgpqmMgqom++DA7+BabwdHhzfwzPZlvPX6VXy63cZj7SN8bPMa9to7GAyOMOXv6aWoBGwSJUqU6CvQQbeD0cCDT+AIYgIKjaUPDd5EphTP0ZvTbssQQi6PYrWCSrWEpXIVdbuA1UJRGc0Mjamkyz8YDVHJSpVuGj53iGg0gkbDmCU8Oe0uZjS2Kdoqg2DjB4GawSNDPu3OgFA0x/rpM5j4E+zfuIF+v6+CUfOWCdtIKw9Ns9kmgIyx1/XQ5DYSMDzi+oEYZMNQw1YCNuPBgOse4dSJdbbr2IDLzNKsU0QuLyULZDq3JnyjAn2bfZcAcMDjicGe06AeD0n5AjdDwobbV6ARBD4kZ43E9kjxBZm5kyIk2KUKCiunMM+Y2Lt+A4989AN4+L3vxKUP/j6OnrwfCF2U1zdQaKyq6enSSIE3NeVbBtimU+WpCYZtTH32G/8OPRlim6tZYzIV2rYMBVRpUo2dNQmgEa4e9uGw/zd7E1w7GqvhrLqVhmXpKo5p6Ho4bEkCwhCOnoZJODT5Kp4Wmc7uOCbWFipYaFRhs18a9RpOnl7HqVMrWKyXVJ6hmapRpaHBtq82KijmNCLNHBsbSygRJDXteEhvpukICXld20ZUzmNWy2NO+M0QlGTu05hnKoHHY/4uDjtH6I7asCdD1IM+3nvpIn7uwQfwc5/6FN7z6CM47O6jO2hhSvh9KSoBm0SJEiX6CjQZuSqA1MzqSBeyAA3lTNMwoeGe0uhPHYPG0ECJxq2aITxoFmy+rziOSuxXzhJsUlBDD5JGv+8NkZXQC4l14VIa+agQRKb7fUx6Pg1xAe2DIxVoK8NAIy9UQyKFXI4g4WL/5k30e12MRjTUbJ8Yd0ebKw/N7oHEA/mYRHMaPhe9/hh9N1AZhcuF3HHQLkEhn89ib3dPJaGTHCvBTLL5xirAV7Iel/i5gAL5hGvP4XoTPHx1m4DVUcNi8l9IGAlohEN3wGWMiXhuwkDFvMQ0PRI6JHE2MpRkcn9Lt9+Be7/zu3Hb616H+vISjDTbbWWweOIkzrz2TVi+5zXQcscFJ2XIS6Y+y0wtie2JU8SpFAGC+xFQkhgdyUkj+WUOey5s0+BlMdUQ34CwYhFuyC+4sdfG5e228jp1RyEubg1IoaGaei15gEhPkKnmIy9Q2Ybn3L5WzKJasGERcDz2/+pyBX/6e9+EP/U9b8DJ9Tp0tkXKS2QJQbpMaZe2EEIlh5AUBz1zoow3vfI87llbxwbbW+S5lLheJH1FmOqVCpguLmCcz8El8I4kUWMcwOV+pMsgAdTcxmQ/FnndGrzuBYKRxG11+FscsK8Hoz76456KaXopKgGbRIkSJfoKJB4AzdQwlfgYXWZsxwhoKn15uhZOoHHi17BIL1KAsUwjm9d1vs9AkyDUsYsJgSRNQInGHobjIRZNGw3DwlLWxoblIAsbbqgjXyghTYM2DSaEjxz6/SFarY6KU5GZUL1WC1LDaDweHcfdsG0qv808Ul4Nybvi0gBKyQSZziyGX/KelAlYDtuoAm+5fwmS7QwGCPhePDVj7iqOQ+XNcWhIBWqkGKZMWJKCkBK7c2n7EJe2dlV5Be5STU2f8vMpVxL4QEaHDEIFbM9x1vdADc3I1O8MISZLMKyuLuPUfa/Avd/6FrzszW/B2Ve/CUvn7kG+tqpy3AiAzLkPycwccdtp6PE1RIrwJXWYdEKfzBwTT1ZIsJGg5qsHPX6koZ4z2X4iFbct2wbBg/DJdS5tt7B50Fft6vIadL0pz18qX5gEzpTKxuxOpiouai6By+y7nGNhsUSISvHacmUpklmwgAMC5yNP3VDBx7DyGEsNLe5LHEsGr7ueL6nZaxtLVfa3Dod9V+C1tGVWnW6hb1mwigWk2LcG2yzT10cExD6hsBN46neV4nq6bWMmfcp+KztZ5MTbRpDKcbvYSKM94Tbi8WP/vxQlXZMoUaJEif4nlSN8zGhxp3zapnVUQx+9SYR+OMOEFl5yuExDHyMpFul5Cmamk1BlBHYHfcSEmUBggN9luT+NFBAPXFT4ZC4AlDNymGo5pCQXDY3qtN9DqVpSGdwlk7o8xsssqAwNoQy1SOmA4ZjH86cq50yvN1DDUzIENJCgX1rZhgxxZDT40zks8SbRyEcS+8J9yTGMDNvAdo7YNhk6a0nGXhlmigPkis7x3zxWmrAmsCETnIYjDw9f2cIB2yTlFSToNSYgKe+MkUU6m8OcRllm6riDNsb9pvLozKIJ+2hGcMkgSwOdI9SVS4torN+J8vJt0FM01p0ewv0DBDtbcHe30N++ifbVy2jdeApun33A42e4fzH6cswpj+p6Pi7tdjHmdSgRmsidKBJoziyXUc5bauq2AJxP0Lu638NTWx2VkViunx+E8Nh/sl+JAZKhIgGH5UYFpmWrgGMBHalyXi7mMCGctg/buHhtl/uRcgcRJimNkJtSCQdVwU9uv7C+QSidq+zGsnMBxZgQ4vH30CY0tXQp8Gly/wQrriFB101vgP1hj9dghAGv4WSegsdrNGKn+77EWcUqv40Am/RjmvDc4+/taDDk+chg30tPCdgkSpQo0VcgyQqbpnF0ZjPQdsInIHRlGvc0gqTUj2koR50BOpv7ONzcw/b1bfQPm/AGA0QEAE88K7RkdkpHUTMxJZTMCQl1zUHZKhyvRyPtZLMIZHYTn+LnQYDDvabygpSrdZQKeZiGiUqBT/s0upLG/7DZw/Zuk/DTVdPNJdsuUQTrS3WcWawpGJE25gk1qrQBgUOmU5cci+wjs3GAASHKSEll7Bm6h/sEpBFqlSKk7MHQ9ZXXppCVKcg0JfM5NtmmJ67vYEhDHEqgMA2xeE6mQkxsq1TwlmzDnZ2ruPLgJ7H55BPobG+jc3MT7ScuYvTY43CfeALexYtwN3cx4f7GV6+h98Sj2PvEx3H1D9+Dp37zt3Hx7b+Dg4c+jWjcY5t9NdNKoC6a8Vj8W8Bql+d/vTMiLOlqppepzXHuxCJOnVhQng6X16VAiBBokTxE7WGIviuJ7eYIJC6GkKBxsdg/MvQkwcoLjQYc6WOea2vgkUIzKrOwTGvv9Y+nZwut2ISY3b0DAu9cxS1plkUAiVBeqOHlr78PWbtA4HFQbSxjYmfhS8wRr/HMc9F0R5jxOs/Z10f9Nq6x37e7HXR8Fx2e6xGXHfZhd04AIxA1Wy3Cok8KImwSsHzCkMtreUjwlSR9L0U975mHb0lqNYk7UjIIPx+SApmPPfaYylQs2YlfjJLsmpcvX4brup8tIfFCSdqyt7enXiVDdKJEL1X9/O//BjJRIOlIVNr9Po2NxMIcV60GZtM5DQ6frI/GSI0CrjtDVhCDBlBqDhk0oi+rLeIsgaEgT/dhhPVSFYv1RYJKFV2uc+XoiMYrBAgeUpH6oD1Q0411/tszrSwKjo1KKYdSPgvPJVSN+T1fxWshU6ybPQ+jMMZSpYC7Ti9xXxPstYdQGYwzKVUqoFTIwdDEwzLHld02CsU8lkoOjPQMj9/Yx9p6Fffdcwa+N8KHP/xppCMZriFsEY6kMniasJA3M+i6AWqOiYItdaPSCpIk90xaNyG1reKph6B/hD7vH1uXt3Dpgcdx+dOfwc0HHkKL97fR3j56uwfoXb+B0fYWBtsEnJFLYEkhUyjDrtVRaNTRuOMC8qsb3K/YkDThbIqJ28O418Y2QenRpzex2/EglbplGr2UsDh56oTKMvzo5V20hp4K6pVAYZtwWmPfsXnHni/2cdkxUOdn1YKDtcUy+l6AxUaN0ED48UM1C87JWqiWc4hDT82ianXHbA/3Va9yHZ/HJgytNHgcGQYjB5kWYXeGQqmC6okNjOHhIxefxnAcQuN9vT/xMcEUPq9f0+2j1e6g3+mDvx5uL0VNM/B9Qg0BZszfgsb7b4ZQ3SfEhPMZwjGhsT9k21wE4wh/7jVvxonFleMf6ktILwjYiMvzJ37iJ3BwcIB77rlH/QP/Wksqfv/gD/4gvvmbvxmLi4vqs4lQ/e6ugisZg32+NBqNcJFPJJ/+9Kfx8MMPq6KcUt7hfwQIMrXzR3/0R1Xh0De84Q28WfBf4QskOYcf+ZEfQbvdxjd90zc9+2miRC89ve09v4M4NVHp78deiHFfnrb//+29B4AkZ3Wu/XbOuSfP7GxebVIWiiAZIXIGY8AXcACME5ho7jWY34CxL844ArZxIvg6B4zBNhmUs7SrzTs7OXTO+T/vmWkxrCVZgtWuNDqvaHq6qrrqq+rePk+d74S2pjL35O6/U5e75kIdDoEdj0ANux956UUQ4Ik5vHjG5BZslxsuRqA4BRIGQgIoA4OAP4RGz4W5ahvHZmc0hdotoFSWfWvAr8+tvY5ikTASiSjYzBFi3N2uroCGAFahrL8ZLNyXrTThdHmwbTiOdDyAWXqQCFkyGvarCvtdOqXCbKdTS3nMZYu45ILdiHsc6v04cHIJ6VQAF+wZhrNTx1e+fjfyuRKqcsPIfkqsDuz1uHSqpyoAwN5KYZ9TA2iZPcRpKQbhskCgoyfnKcuC8RhCoYiAHhAQ6ImmkogMjiA0MAJPMAJvIAx/MITolu1InrdPHnuR2LwFsdFhhMeG4EklNNW7J7+DDBZuVJlinsHizCncfucDuOPYAjwCPUmBk2DAI5+RC6Njw7j5nkOYWsij1uqgI2CQjgSxZSiOwVhQbEJLgMyryzlGr1ybzXLN6BFi7RzG7yzJtWFNIHqimALeFIBhvZ6ynHdeADYRCyEp50LPVCzi01RvNzO4mOmmHpQewokUam4C40HcLABWyOZQWMliRzgAj5zPgZNTyBVLqGVYjbol4xDY0lgtAUPW0inWBGz5+TngYCZeQWCHBSKrdeSXS9qc09d04lXXPReTw6OrX9SnkM7JVBRB5vnPfz4uvfTSswI1ffEfufYWWRO7hP/u7/6udgA/Wzpy5Aj+9//+3/irv/ornR9nCuYXvvAFvPnNb8Y999yzttXDi+fAx7kWIezlL3+5ApbJ9FTWUDi2GjNDYyMA0y00tQYNp2Z6AhRgPAXBRv7uVVooZytYnMvBU+7gGZt3YFKM3EKphvtnM1jIluAPRLRDdLnnxgnZ55wYOP5uhd1eBFxe2W8XYUcLCU8HcZ8Y5pBAgrONrhj2fDYjIFPD+OQkguGweozKYqyZQRWUu32OaWaFQcEdTdNmGrTX7UI05FevBftKzayUkEzEsWfbpBiIHjLFsgbRFLJ5ZBdOwl2fRzTQ06moQrmKpsCYy+mS93s1NifidaKQyeOeg1OYmp0XI5tFOZdBYWkOheV5nU5jR3JfNIn4yAA279+G3Zeej/1XXIm9V1yO3dc+A7ufcwN2Pf+52HT9szAiy+NbtiIgRt/RbYLZVvUeQZLViOUayzlqz6lSToz6Ag4fOo47jy6g3HIgEhXIkAdbMYTlBnZpaQmLC1mdwiHQ8f1RgcPxZBCDst34YFzhIRkXYJGzZxCxFhgUIAmFArj9wCntI8V4pYi8ZgL5vOxvWa4pATIiUJRORAQU3XINQwjKNrVKWbZvoZhZQvbUMTiabQ3+nhMAYzZbzB+AUz6zQmYZu+Sa7HSH4ZPPwDlXUC/fgIDslq4XwXoX5SKz5uroyHepk63KOdc1sLkj8NtcKGN5MY+cQGt9IQdfCwpET0WdM7Ch5+Tiiy8+q2BzuorFIo4dO6ZTYmdDU1NTCjDXXHMNfvVXfxVvectb8MY3vlH/ftOb3oRXvOIVq8GAj6Bz6aVZL07nvehFL8L555+/tsRkemoqGoojN5tHaVkMYKaqjQjd8u9UU6crDTiKhJqGWMgOnPJoF2qoLhYxEQghIXfhB2YWcHBuBfO5KtDpyl24izHIanzZj4jtA9KJJJKxODx+gQe50++1S2Jwc3B15a69VZEH2xEUxVCuYFr216jVMTY6rl4aVjtmI0S3wMecAFau2sJQIqavGbcTDngR8fkwnynKGMpaOO+SC/ZgUIw0+0XlBK5YZyefr2Fpfk6McAbbxwPqKWEaNTOkCEdMjw75nAh5HUjIczmfw6FjMzg1u4C8GO2yjK24soRSbkUzt9iaoN3toNosYGnlBFZmD6MwfRz1U0eAlXk4ixm5bgW050+hduIA8g/cKWBwEMXaikBHR6eLVlO+2eKghXq5hNmpk7hVgGqh2NCWEHIrKODgFohxIBwM4NTMok4faeNjubYeD4HPqRljyVgY+3eMCdzEtF1E0NHT5U16pMRM3XdiAcvLeRSKVRQKcs3luKz+zJgqdvzmDeemsWHs2r4JAXcPQwMx9VjxtzIv12J+YQnz01NoVjMCwEuoFQry+fixJR3HhHweWwfT2LJlO0KyP6cATygvn22mgoFGFwMdD0ba8nkI8FQEgtsCM718HY3FEhry/WoX5Psl59yV7yAEelwynpDDLZDmWf2SPsV0TqiCtEuvxZ/8yZ+sLfnv+u3f/m2drmJsDPV7v/d7CgWcUqI4hfNTP/VTD4LAwYMH8TM/8zN45jOfqVMjb3vb2+ROIafrHkok95//+Z/Ht7/9bd3vK1/5SlSr8qUQMXaE77/66qvVI/Gbv/mbaMkXvK9/+Id/wI/8yI+o1+X666/HZz7zGf1Sf/rTn8YP/MAP6Hte85rX4OjRo2vvkB8puUvh+fzoj/4oXv3qV+trrue0Ujab1ff97M/+LD72sY/p3RnFfdKbQ4C44oor8GM/9mMKR+vFbe69914FI27D8fzar/2aTm/1deedd+Knf/qn8fd///d41atehUsuuQS/9Eu/hDvuuEOvGT1nP/iDP6jTcn0V5B/dr//6r+OlL30pLr/8ch0Dr3lfPC73xWvQFz/X/fv34y/+4i/0eJxmJMTxs3kkcTqLcMdrwGvOMXFZXxznG97wBlx55ZX6+f7hH/6hQmlf3JafH78j9CLt27cPH/zgB/HlL38ZP/mTP4ldu3bpNCQ9dCbTmVbUHURpKo+6GBlka/DQoSpk4iw2NabGIWDgEEPDO/X+9JS/00NKzPOxk8cxPTePXkMMqxjZqNvLMBrU5K6cVXp54+cRIxyJxOAKBVFty53+wgIWFrMolytotmoolgpYFmAoCDBEAy5MDsbRrJTkfUAgEtHqvD6/HwF5f1N+WqICM9VWT6dWgmLkh9MpTGUrAlgZgYUetm0aw9UX7EK9IqBUqGp6eCToF1hq48Shk1iePYG9416MJMOaYu6UfbIlAxtPalaOnGQq6MZwxId2raKgNSNGvVgsyW9sZa3NQg2t5mpGj8PtRsvVwWzmJO594Dbc9M3/wC1f/jfc+ZV/x71f/xLu+K9/xj03fhEnT96NggCdQ86Dqd+rN8UO3Qf7TC3OTePmO4/hwMmMTouRXbYzvkWgjMUMGW3A2j3BoA/JOIOtxegLvMgO5DqyunMLw6kIIuEQlnJybQUOmSFVF6rJs51CtYHJ4Yh6d9irydkReHI5MRANaZPR4aEBbN08JpAp16EtD/ms3R35KlRqOH54Csen5tGQsfYEKNnnyd9xIQ0P0izeKNdx0yBTwDuorSygLd+ZpoBkWkx0u9bCioCORz6zRraKXrmJHr1kNYG6pSpqswU0ZFtWn3YItDrlc+IUVdQj+zWwOXvqB56uN16na8uWLbj55psVQCgaeHpXCALUV77yFfVe9INoCTH0AP3Wb/0WPvrRj+Jf//Vf8U//9E+67qEUi8XUGE5MTKjxe/e7361fLsaOMI6F8T8f+chH8L73vU+NN41kX6zo+aUvfQnf+MY38N73vhfPec5zdPmHPvQhvOAFL8Cf/umfqvdF7wrW9MUvflFhgctPnjyJX/mVX1Gw41g/+clPauomQeH48eMaHEydOHFCAYRg8fGPf1zhg0HX68VxMkwqHA7rfnge//Ef/6FjJmhQBDYC3H/913+pl4hQ9rnPfQ6/8Ru/oSDEcyRk/du//ZtuTxEceKfxzne+U4/NGCBe2774GXKs6wGKsMPYoc9//vN49rOfrefG8f3RH/3R2hYPrd///d/XsRE0eayrrrrqQbgjuPLz4fH/4A/+AO94xzsU/ghPPB5F6Pza176m1+vtb3+7Qim3/exnP4sXv/jFCqac5uNnYDKdaQ0G4mjlq2ivVNTodOVu2tHgFFQDvZI8i7Eh1LCXU41TN5WGFuDrVQo4Ob2AhsCDr8sS+nHNcHLKvztXT94nv28sie/xOBGS7z8zrAq5PKqlsgb41sUYZ7IF+e3LCBiVMRgPYnJ0AOlkVHtDzci/PXpFIrEEovI7SbhJRsKoy1iWBWTCoQCi8joSjQlYuNUYhAIeXLZnMxJ+ufnL5FGU3yXCQzIsC2Rf01PLKMrymKOMeLCNFRlLSSCMFYyZbO5or3pSQj6XGHw/0gIRXVk/PbOE6YUVbRTKooI9gQWnGF0XjXoogtjACGLjY/AOhFEJdDDXyOBkYQ6L9WVU5bVjKIbQti2IT25BKJoSsAnI+73oCVgwI2lpdgo33X4/bjs0T05BNBjAzslRjA8mcGQxj0OzGZRLRbmejPHpaAp+MMjaLwKSmgXV0R5P9NAwdZ+duJkOPsDpJD+hI4qnnz+BfVsG5JoFFBrZnNQnkLhrxxb5jb4Q23dtRSFfQL4gkCvfgXyRVYvzODGzgkxeoE6WxeNJuJxe9d61SzV4s2xa6UHS54e/msPy9GEsZLJIugV+5HviF3gbiUWQ8Lr0PLvy2blkvE6BGldDILLQQHumiEqmjIYAKCEP8hmwAWckFIJfzu+pqHMCNo9G27dvV28NDRtBgs+c9qAxpdEj9PA1YYTi3Tzv6llMilNLNPQHDhzQdQ8lvm/v3r0KOBdddJHCA0GE3gV6CAgU9IBce+21uu+/+Zu/WXvnqggpDJ694YYb9JiErGAwqDE03DcBhnDW17/8y7/oMo/HowASkTspepx27NihUMbljFsJyZeR50sREBjYTMNO78fznvc8hbf1ogeHmVKvfe1r1VvyrGc9S70a//zP//xdU2yEHEIP173whS9EOp3Gddddh5e97GUKY7yW9Pz0ReCj5+Syyy7TYG+e23qPzSOJoEeg4DOvzwMPPLC25r+LnyUBhOPn9vS28O+BgQFdT0ijp4UeKX5OHDvjs/793//9uzxy/Ax4fekt4/tHRkb08+M+n/vc5+q1obevD0Mm05nSlk2T6Iqxhtwpyz80MT4tuOXu3yN37Q4xNg4xkPLzAIezB3a2ZlVaZrNUCiUBnbpAjhi2cBADSQEQgRt3d3U9Y44hwBEhlAgotAVeWBWX5fxZ7I2HZDfxoFjZgWRMA4hpkI+cWsI9R1ZjQVhcbmBgUD0+nIIJyb9j1nUJyW9NIixGO8DgVie2jKThk/2MEI6SfszNzODA0Skt8MZ057SADeOG8oUumlUBo/kixiNtvalgQT+nnGDUzYadHYUEhglrvEk0iHhIfqPlmrDD+NTMvBYUrFaq8o/fCV8wgkAshUh6GIOjW7B5937sfdqV2P/0Z+CC65+J85/1bHm8ALuf/jxM7L8K8eEt8p4o3OwK7hFokvuf7NI8br/jXnzzzhNapycV8WNiMI7JoSROzi/i0HwW89myHHtFp90qtYZmr1XqTUTlGpTlY2PfJ6a0LyznUJYLzxo10ZAXcTlv1r9hUDY6PRTqba39EwoFNb1+WYCWFZ45ZRdLJ+FPROBgTyk2OJVrkslVNHvNKzbBHwjC7fKgLODSqZXQLS2juTIDR2YJA4StEvt3FTGfryAmn0XE7xHIdeux9o+m5Bo24ZefdJdc/16lDYfs1yGfb69YE6guo77Mrup1tOQzYKo+46RCwZB+R59qesKCDQ0voYMeGnpHaHj5IKzQo3H33Xd/l5Gn94dgQ8P3d3/3dwoJnO55rKIRpReCnoytW7di27ZtCjV92OiL3gyu64tgQy8JA5Hpcfjwhz/84DQaRSggJHC6h94DTkeNjo6qYScAEWD4dx/KKE4hMYOLRruv02NsuD/uZ2hoSF8zu2vnzp3q2VlvxOm2Zao7RXji8Xh9KUIVj7kehPheTvns2bMHH/jAB9Tz0p+qeyRxfIS2/jg5tvXX4XRx/Pw8OebTz41iiv7g4CB27969tgQKKvy813uv+mBI8VwJRnzdj+Gix4eA1vcEmUxnSjt37YIz6kPPL7fx8h1miwHOObHar3wtxRLJMhdTnuX7LatY24Vw02x0MBoNYyAagE/utKvFCurlGpqlEujgYVWcUCwhhly+xwJK9DIwBTsaCyMkRpXp1syIoRVjKf7lTBHfuuswvnznIcyvFFGo1GQf8lsl/w5Y3yYm/8aZRRQKhDA5OoSxdFzgJqAZPmMDKSQFQAZDLuSXFnDL3UeQL5YQlmOzLk5bfg+Y8eRyBrG0VMexUzUEOy0MBlbPKyrnHpBzbgpYFOpdFIQD+FsUjQSRjMkjJGAk5z0zI6Bx5DhOnjiBEj1NMkB/KIpQQn7vhycwsPk8jJ53MSbPvxITe58mr/cpzIRTYwjG0vAKCDGw2uH28FJqptjdd9yJb99+SMZb00aX9C4xQ2x+eQkLGdbhkd88AYRTS0WEBeLYDiIs4CI/BhqfwyKKJ1ZKmC00cdehWRw6viBgJufl9irITMm6O48u4r6pJZ2aqzfaAjVe+R31oViuClxWcPLICRw/cEggk4UGHXAmg4gyVd4fQEu27wrEReQ6VHpVzBcWkSvn5dzrAoIV5KaOYU5uTn2+sFwLFg+Mwilgw+rGbflsZwVQ2V3dI5DsEQprlxoClLJPQo3AGKe8FHBKTbTzdbSrLXQExlLymRJkn4p6woINDRE9KjTujGmhp4HeDU7jcFqIhpjr+2J8Cg31V7/6VZ3O4J3/QxnK9Xqo9YQI7pseIU6X8cHpsL/9279d2+LhRQjgdp/61Kd0OooeEop3NZza4bQZPSf9ZwIUPUQ0wNyG02f0NPSBgwadoMQYnL5ON8w04BwfPUgU19MzQXj5n85/vU7f9s///M/Vs8QpQHqOfviHf1i9NmdaPEeqP+V4uiYnJ/U69WOrKHrU+Bn1r5PJdC61Vb6jkck4XCNhdKNeMYhi2NjYMOyBJy6vxcg6vC6FGxpT+T/4PW5EggH4BVhmpxdw2/3HcHJqWg21tiHwCnCIMfb4PAJCQjDyPt71x9IprTrsd8sdvfyTZWG8Ur6Kk9PLuOPwLB6YWpEbCU5UOelgkJuMqGYu+cTgx8Sgs8dSWADFK/udGEhoXZt4VG50xOCPJ8JoiYHkfuYXc1qfxe/3Ccw4sCIGnb2WoqEwTswLunVdqDScGAm6NKtoe9zNaBew6Sebcc6WOii1nBq8HAgEEROAY9o1cWRlcRkH738AD9x/P5Znp9GQGxv2i3L52CogAq+AjjcYlterNc54Q8LCgezezdgS1qvpNFuoloq49/bb8M1v3IZctiQYyLgSlwZFMxVbrL6clxupkFevF8dVqDQUckZTEVy8YwxjgzGMJULCnj0cn8sIdNQVEgcE+MYHopgciGFiOCm/pwEsMQ7p5DIWsmWdFmR9Hp/PrdV96TXLLi3j+LETyM7Mo7SSw0oxLxBUQTrmh/wPCblWLhb9k2vfk8+jKiOmx2dpuSC/8SXtlxXyejAknw9r54SDPkA++1GvjG0xI1DmkeO40ZPPqCHApYEGbvlOyfk4ZRzOoBveuA+hwSDC6QgmNo8KxBrYnFMxfoYA0/eM8A6coHD48GGNZWEWVX/ahh4UekXWG1rGdtDzwbsEwhCBYT0E8M6dxpv/SPqiZ4Hb0GtAbwS9FPQM0JjS40KooLeB+1rvzXgocVwEAMbocOqKU1ucNqN4LtwvxzU+Pq7TbH/8x3+scSIEnG9961saB8LzZCBzHzIYp0JPCWGN4EKDft999+m6vjhlRFBizBGPzev49a9/Xa8Xj/u9imMndNBjxDHw2N+LB+x0MZaI0ERApThtx7Hys2eMDM/h1ltv1WNSnMqid4mBz/xu8PvAben9olfPZDrX8st3ePeluxAQuPGOhjE0EsDwSBDBgSDcAjqusJhcAZsuq7+tbT8Uj6hhrArIcPohxykEMdjVahFNl1dL9tPYdpo1udvvCDJ0EQhHEZHvvFcMPptqesRYM8sqX2yIQW4jK3frTGFORvwI+7yIyc1NLBlHSX7bCDSsEuyXcbD+zXI2J88upGRscQGwmmzDarr5WhtLYtxdYqiTAiMECqYTFwWWqvzplN+mXNOHuaITtY5Pp6BGAw6k/C4IAqHZBapCVAulBk5m61gsCijQ8AsoRMOcluLUDmGsgPvvPYC777gdU0cOorCygGaNmV3ykGvCR7NaknEVBWBy+mAwMzuG18sF5JbncM/N38JX/v0/sTS/LGNnoUGn3PAEMDiUwvBgXM+PFYeZsbRYbmCx2sBypamFDunIDcn168rYOJXGVPemnGuVdYccLpQFbgiHTIffvX0cV120Hbs2pdFmLE6tgTLT+xtNhPxe+U2ryW9jS1PeC7L/+aUSMlOLGiCdSvixdUzgKC2gJpevW2nBKxfJJdc7SDANyGcSjSMmv7XsU1XNZ7ApKJAZDyMtQLw96JH39XDXbF7HFo8GZPwNGYeMz+tETz47h3zejqgP/tEIEtuSGJhMYOv2UVxxwZ7/dsP6VNETBmzoIWFmzPqaMgQbTg1xmoVAQO/Epk2b1LNBo79enNoh8DAbidCwefPmtTWrIgTRi/Gf//mfDxpoQgGnmxgATI8EvQI05Myo4XEZq8EAYwbX/k9p2AQgggqzbxgEzGDct771rWtrodlFn/jEJxSwGMDL6RRmARGgGBRM7xOPs356ixlCzEZiEPMP/dAP4Xd+53cwNvbdVSQJYQyYZQwPj0swIrAxjfz7ARt6yAh7PC4DiAluZ6JiM4HlF37hFxRe+uL152fCoGaeA4Oa+0HJ5513nn4ehBmO5Ud/9Ec13ohxR9/P+ZlMZ0r8N33B7vPEOIVx3s44Xn/9CF5xxQh2bYsjkvTDG/OJEXJzbknAwqfAwMaTNJB1MZRjMY8Y/YB+n1nOv+V0a7o2DX01t4RWtQKm+HiCIfjkwcJx9J7QGAfl3q3ZIzgF5d+n3K0zjsbnQToRRiIeE0BhJ2gBo25Hp5JG0zG4BZjY9XlqcUnghynBDgUb9kxiZdzhgSR2TgzKzZwAjRjb5XxFi/DV211UBHAC/gBOFOVmruFCqeNCrdVFrtpDoenAQqOHRqeLjBj7++ZyOLZQwEq+ql4NVvllXE8yHNb08lalhiMHDuH2G7+NA7fdhOmDd2Ph2AEsHj+A5alDyM2fQDE7j0JmAbmlU8gtnMLK3ElMHboft3zlP/C1f/8SFmcWUBNQaAuUDY+ksGvXJoyNp+W3q4aDJxZx17FlTAtgFZndJOewLIAjWKMp4CzrUyhWcHQ+j1mm4AuQ1WTsLLTITLCMLDuyWMTMUkFAoouto0ns35TUwoP5UhULcl5Myee1zRRKmnHFaaeCvM8t+0oKgE4Op3S6j1lcbThQkPetLGRQk+0ZbxUfFNsmN+Q+gZvZXAWHDh/TYn3uVhNJp1xrgZqj+RZypToWVvLwCKdwetEl0ONLhOAlMKWD8I3HENsUR2o8gWgigs1bN2Hvpu/EeD7VJJC+zq1xlkSvCVOXacyZCUPxTp135JyK6VcBpgeFy0md/fgQGlsaQb5eb9joUSF8cEqHAMR98P2EGYqnSWjiekISf4y4jB4EBvxy6ougwwBiLmfcB/fH4zFOhF6RfpYTIYbr+Z6++vvilAqf+56UfowHx0f4oqeJqdD0QvTF9z4cWbM6MmGAx+Q4eF7cdv376fXhMQlTPCavIdf398nrzfWcuuEyXheOn96SPqzwNdW/Xtwnl9GLwuNyOc+B+++LXiTuox/bQhFICFb9/fKz4vv600bcL/fJz6D/vv71pueMYyW88nj968338LvBaUFec04Xnn79OBZOT/H68DW/NxwbHxT3z3N/PKbTTE9tsYv2H/7nJ/G5r/8tnj/iwIs2heAQI/6VEzX83W0zODFVEkMt3798Q70aAZeAjKeH/eMRbc4YERDJOyJIBv0CGqvTP2zO2G3XNEYinh5EOBZWA8rfvOLiPByVKtq5rBj+Ek60PajKnf98tij/TgoKMnyfL5FG0+FCVn73to8O4hK5i6+1mzh0Ylb+TfVwcnEFr73hEjSabdx74ATqsoyBymGfW/795JCvdnFwegmzy3JT42EQa0CnqybSERyfXxEwY2+lBjJirBk31JP/GK+ik23yb9DvdGHHQAz7RxPYJg+v2yn/Pvl76EJBfldLrJRbJ9y14Q94tQdVLBZSMAvKtWBskJwwWNVYTh49GV9ZYGhRxr04K0BTa2GhIL/Fsnrz+CA2bRnVgOpTc8s4dmoJK8WqBkrzd4THYLHBicEU0rEA4vLzxEagKyUBoOmsBuzKSajHi5lccYHAsJghp8BiwMsihk4MyLkvrhSQkevMgoc9efgEM/j5ZQXk/PKZuVw9ROVctk8Owkf7JO8rl+vy+1QXAGRQVBfesA/Dcq5jchMdTw3KcdtazXieWcICsaeWcpiVE9mUjuNotoJ7lvLye+qB0+PE8FgSp+S3rB3yIhAVYBL7wqlLn1z0YMiDwXRUqzxv3bkHv/mqdyISXE3CeKrprIMNDTSNED0LzJwh4DxVRMPMQFwaek5VcaqHGU38CJiBlEgk1rY0mUxPFvHf7+fv+Dz+/D//CG/Y7MbOuAseN++0g/jDb5/EAweXsHhCDGe5DVdLILtYwXDUhwsn09g+FEFM7ujnKi7EBeYZC9KTmy+Xo6PTMoSc9MCgAH1CM11C8Rh6AgNO2aaRZR+hEubaLmS6TpxazmrGUUIMc4Qdx+Xmb2puRbtHbx8dwFV7NutU1KFT8wIIVdx+fB7XnL8Zm4dSmJ7NwuH2a+fujBjYb993FBfs2IK5XBmHjp8Sg+9EtdnB5nRMU5/LNK4tufFsdzCdLQvg1NQrw7opHYEQBrf2xOjH5QZnazqMfRNpxCNeBQemmLNgXkXew+7hJXkmsLQ7LfVGMaaHBQF5Uyg4o0DCKa9ep6tTMB05LgsgVuWCFBo9xCIhuAXkijK+6fksCgIS9IiJfddMJ8bvsCklU7s3DSYEAPMoVurYNpxEWiCjK8c7tFDESblWbHeRZlYVoYE1eYJhlgIEqw+PCNAtrFTk5q0o+3LL8aFZU7wN53lEPQ4Mx/2aYp4tt5CVz7kpsOQXAIpHggJqHrTlb3/AJ7zTQzrg15s7t3xXPB6/bF9CMBDGkcUsvjq9jKGBFBICXyfmlzCTL8v1ECSU8frkGE0Br+GJMUR9Lqzks9q93S/jHo7JDb9A4djwNnzkFe9A1L+aiPJU01nvFcV6Kiy+R7jh9E+/b9NTQfQyMduKHgkGE9O7wXgbAh7jRR7Oa2MymZ644r9bZrl89e6vYHPMgx0Jv0BCCKfKThyYz6HMFKGWQ4N5mZ/MKZG4wAfzpzw+H86bGEKh1gVL/gsmaXBspVhGvVGX34myFrJztBiD00QgHIHbI++VO3gGoHJqKNfoyqOjtWvokU6IoZfbe5TlJpLeDbnR1+mvcTHMLFbHFgjdbgOZQkUDYglTqVgasYEB+MT43nv0BGaXi/AJDIyPDQu4ddBqNFGTcadCYqDX9kGDzVo4qz4ah2bweGSZS/bHAF5Om7AiMftZjSXDAm6r59eU8yMMejwuLfnPXlLyP7CXVFvgqNlooV5tiLFuoFVroi03gh05His597oONDty5YRajuUbCIi1L8o2RxdyyBbqYBdzHY0sJxgxuJcxTWEBRJ8ATL5aw4yASU5AitNsBCCmpI8NJnUakFNLLO43KmATkGvhFhhyedwolsqCN/L+Uh0NucaRgEfGLODVBfJyfE7jbR1J4vzd4zgwlcPsSkn35ZD9B+WzYnZYROCLafqNck3bHjBNfK5UhEPG5hXYact+GUc1PD6BqWxWvUAMaxofSen1arTbKMo28VgQIQHQ8YG0TqdV6nUBQgfCAoxB+Q655TEWH8dz9l0tQEgP2VNPZx1s+AFxOoExJ5yK6k83PFXEKRpOU1144YXqtWFQ8fr0aJPJ9ORTuVLCt+7+pgBKWe7io5ir+3H7XF4MYhGFspjaNmGgq6nCYuu0ZD+nXDhFu3UoKQYvqIXtSuWKmE8xVtWqenbZoZu9ldhriDEZAZ1KlS34u+n1Y1EM5HKxhjJjYMRou8T8+oRklsTAs+M2i87R0A+n4xgfTKnRzpVW07gzeTGsAjDs8bR9+2Ykh1KYnZnGgsBQtSnjFJiICEht3zwiwFCV3+6uegjoPSnLeRDO2EaBBffqzY4Yek75iDGX/1jVNyT7pYcoJhCwfTSJiZEBJJJxndbitE+lvNpdO8T9yPVghWWOzy/g5JdnZggx0JkNLENBr4CBT47b0fc76WVZLMMtZ5eXZWwD4RNAKMj1csn4wgIliYhfxhjQOCZ2IKftoQeqJwAmb9fMKcJNTc5FwW94EMsCe6lwAEk9nl8bhi7LdeLn5pbjLmdL6pFiSnkqzKl8GQEBStZdtGczqgJdtx6Y1m068kFzGo1eIB6fvbVacl2ZdeUW4GMmU03eGxZQCQqYhITuePXooVsq5rEsn12d3wmCnow1zOsh5zTA6Ul5T9tBmK2jXm+gJ/sKcOpdriG9P5dtuwiXbP5O1vBTTWcdbBijwZol9NQ81aDGZDJtTLXE8Bw4fi9OLE7jSBm4b7GKRTGInSYL8XVQK7XFwIfluQoW86Mh3yZ34ttGh5CKxsRwB5ArlMWIltRIMx28JnfijH8h3LSFTtg40ckifwIFNMqNZh2Hp1ewIu+rCPyUBWx6jEcTOFrMFjROR4N2ZV8RMfpjQ2mtLLy4khcIcej00exyAeMjQzifLRTKZTxw4BDaYkzp+WHGUEMee7dvUiPcq1XBrt2yGiUBGXbF9omBZhC0xo+I2HGaIMWpK3pC2KOKWT3JiFfgKoHU6AhiyTTCcjPH1gu1ehmRUFCMslvOWQy3AEk4wFR4j3bZDoW8YIVgLiM85MoNTU1vCTQs5OvqIeo45b0CGC63Q4ExHWJaul+3mZXPgIX4OE7ePBJyhhNRJGS9T97bEvAo1lpatG94IIWhRBgB9yqUxGQ/Ov0k8Njo9AQg5JrL+XnlfYS7sVQYm0cTSMRD2DyWwu7tY5haKmFpOatQpan68jnRynGKzSnA5hNoirBoYSyCWDwioOqWc/PC2ZDz8gdQk8+e280WSzjFKsYCVLyeiwJcK/LdYRHFuN+PvABkVr4PNfluVJmh1W5ptWGvwKUrGMJLLr0BE8mnzmzI6TrrYMNAUAav2sMeG/3BO8R+8LhpY4uxIwfmj+Pg3JQYwJ6mAndrAjTlDpYyVRSzZQQcPpBQomK8x6Jy5x0NYTgeRdjHOAsX5pYKYrhXY1WiYuwrlbIGvRblrpxwsjpN09BYl8VMCYWVJRxfLGuGDmNUGk2mMrcEcOoaQEqD6RZYcMqdPqckztu6SeFoPpNX+GG/qKVcGZddsBsD8aAY/h4yyyua9swaOyUx+AQUZlPt2DyGuflF9VgQvJgSnQoz5dypGUTCC7otqw4TjOhViQXlvFysedNGQKz7+FAK0VQS/kgMAYG5SCQMZ6epXo+IGHoteidAE5RHRMAjJBBAbw7BJiDnwOmtluyb/65YEyhbagjUCDbJv7GoQMhwbLXYIIOgl0s1TMs1Kgmw+GW/9L4QSDYND2AwFdN4HbezC1ZTpveHgciLuZLAZlILK66U6wh5XRhlMK7YLDrJOJdI4PP4WJXYp/vJVRvqJep02kiGPNi1bzeCkZAGHnMsDOLmZ8vU/MGUwFw0IPvoyDlwejAk+4+jKftfLlbk2qS1RQSnHTPyGXbb8h2S7RwCbgy6rsq5MOOsLN8HBkbX5PNmQ8wC+3llyjrtxc8gFI/jR655OYJrdYCeijrrwcPMGqKL1WTa6GLm1vqq0aaNrf9347/iz/7zMwIfNa0g7BDgqBXFCGUqqC2V0S3JXbWAzUgyAr+A74AY4mv27ERUjC4r6d5871GBkqZ6JyZHBrQjdi6bFfgoqtFnbEtQjK1HQIhBs360UGJGVLuLrBhiWkuCRrnOfkcOjIrhZQp4QYzklk1juP6yvViem8bh6XmBpB6yAkPM8nntC56BgEDE4GAaxw4dwqmZBTHUXZxYLKjRjfi9eM61l+LQiWl8+7aDcHsJLE5sSQQ5w6Zp0dV2G06XVwwu43aKcg4BjMh6GY62lxgMOHDlxbuxbddOeKNJeJjx1GygsjSHdrOGYCyu0NBrCaw0q+i1W8IRq2npPYEGxp8w5iabKyCTr2mczdE5AUEZQCIZQ0qAganb8/kqMqW6gFtVp8gcAhcxgbSwwEY0FMCeiWEcmF3Whpx+gQ+2oKC3jLVsagIpw8moekXm5BxYifmS8yYQdnU1RbxYaeLeYzPy7zoo58b2FD6cmF9t61KWz3rfaAjXPecZqDkD6JRKOH7wCGoyhp4AR17GHZXtuzIOxuP0BFDTyTCGh5MCo029ZkMjg8g2KogLzLYjUSwItGTqHazIuFZk++WCgK7AbUu+Iw1G/Ag0dmX8rUZHoBQIJuQch+O49IrL8Tfv+ZiO66mqsw42TF+m18Zk2uhi6nk/3dy08XX7yfvw6//6x5jOzKEoBs8pd/K9WguF5bK8zqNTrKFba+tUiNhb7N80hGdefJGYzAaKAkL3HD6pcBAJB5GORuBydpBfXsD03KKmVdMrQuihgSzUe3B2xQA6fchzKqXJKQuHBpEyCJYds7cKHEV9crcf8OOi8/djMOjA8ePHMJstwOVw4TizgDo9vPiGKxCOh+GV95YKORTFSM8vruDUQh5Z+btRb+LpV16oVXr/9cu3oipjCbgd2DwQQ0GOyyBXQgQnXWi0FwXEIgI2w9GggFYPQVcPQwFg5/Yx7LvwYgTiafjCUbCqbiO3KE+yv2hCPSP07nRZlFBARuNUBHI6AkBsAFmvVAQQiljOlVBu9tBy+ZGV6+CXYxUEAmYWs3IFegp2nGJijFFTzo8VjyHgGAv4MJGK4Jaj8wqB4zL+pJz3FoELV7eB2VPzWMxW4QwFNQ3cIfvYMZbG3klWow/h1GIOB4/NaZPRSMAFdkYvyrFqAhbZfAUpdwMvevF1qAhyNuWaRbwOZBYXkSu0kFleVkDsBCKodF3IyucakH34ByIIe91oyX5SiQiK1RIqmTwaY6NasE+hplbXYOiCAFCmLtciy87jTW2jAHlfR47P+SpXwAOnwM073v4OfPD1P732rXxq6pzUsTGZTKaNpkylgLf/9W/g/qkH0F7Mw9fsoiLQsTC9jPZCEc5GG60Spzg82JSOYs/kBK7Yfz48vSbmF6bVYDPLKSZgw7iTeDSMQn4Fh4+cQKFQQrHR00ylVNivAcNsNNl0eNAQqBDLp1NUbIDokf0zhmOMTTWDXuw7bxu2bB4XSJrD4aMnUWHcR9eBu08sYES2ufaK/fC52ygXC3D2OggGQ9p64IEjpzA1n9FYm+TwMG64+nx865Y7cOTEPAIO1oRJouFw69QIAagm9rUlY2HMTdjP1OMg/GLcQ54exkIuTEwMYO8ll8MXS8IfjKjHoSHnJzQDL5s1ynEcAjaddgvdzmqn6q4Y+laVsT11NKtlrCxnxeDX9ToF4wOoVLs4trCiU2qcdmLjyKaAXUSuUb3R1Ngn1oBhq4dOg/ExTpzM1xCXa3yJgFaK01eyLJPJYWp6SQCRVZKDGkPDbuXjyQh2Tg6gLdf5/qlF1CpFTA6s9p1zy37To0NYWGKQeA2eTg2Xnb8Zk/svwr33HNRsr9G4F8uLZVRKZSSiIcwWO5gpy/izWQEyP3zDYxAOEgjqYFM8ipW5aeSWczg1HMeKfAY9odmsXJ+414+qE5hr1VHIltBYLKKXr8NZFRCU8+4RZgV+OrEQbvq3L+LS3fvWvpVPTVkAgMlkMp0BpUIxjMYGURN4cYiRd/t9KAoAVPxuOCM+QKCkJ8sG0zHsHB/CUDwmQNLRlF4aV3aTZnwLvSmcwqERTomx2zYxhEv2CATtm8S2sbRsK0bXBTR7Tnle8wo6GaLak3UuDcCdGExjRMBjmwANA2VXZqcxN7eIZpeenh4Wl1awkitorIsvEBTDzho4WZTLFTGSDLZl5hG9HX5tG5DNF1Bi3Imcg18MNrthM5CYmVJsZUAPCLN/eJvMQN2Epjd79G+mk/u8bMIb0VRkduZ2yDKHnKfT64UvmoDHH1a4YeCrJxyFJyCv/UF9dgfDsiymy50CTLqtjJnp391GFc1KFVXGFckVYFA0YY6F69ihOybjjcozi+jx+pRqTcRCAewaT2tQ9k33nsB/3X4UXzkwh6mKfFZdFxbZkbvKisICCwI47GEVkLHv3bsN+/dsx/j4IFKpuHqFCIJ++TxYv2ZyfFjG0RAAq2P3nvMgi1HKlwRaWtg8OYpoegANAbdCQeBMIDJfriGfq8LRCsrnPIG624uWx42Ax4/N8TS2DSWwZTCG8wYS2JaKYot8F3aFA9guwDgyFIU/6oeD82nyHvnSoCvnPDE+gQt2nCfn+tTWWQ8eNplMpo2qYrWMf7n5v7QgXFfu6FfEeIl9REgMLqd9RlMpXLlnF3YMpRH1OOH1upAv5LWmVVhgwOP2y/ZdxBJxjI2NIOyhx6OLEbZCkL9X6NWp1MSwhzT4l2nVrLfCyr+kCga0jg2lsGNiBFtHU0iGfahXylhYWEZRAEArrrfbODmzhLlMEel4GFsFnOq1KpbmF3V9NOAXo1/R6RVhG60TQ43KmFlJfHYhowGwERkPAafKINZ6U2DMhZ6AHO+W2UYgHvJpr6aSGPtwwIPd521HODWsMULMEuo0avIsYBaKwOX26N9OMe5weQQonLIfObiABYOVGQyt8SSyv7qcN7whCFlgYSWnU2/M3mL2Fb0k6VhYxrOa1eXotcFLwymyYrWlwbd7dmzC5oEophdW4PV4UZP9sqif7E4gjc09mxqIXam35XgteX8PiVgAwwKKzN6i94XTfpwiq5Tkmsr7GRPElO7FfB0Li3nIrgRgEzo11q6V5P/lHHwxZKtdFHI5nSbzxRMo1OsoryzCz7YXMs6mgA/T+y/YtRcDkQgC8r1JCOz1PB505LsifIiAnGNUYCYa8KHE9HECmNeNrgDcy174Irz4mc/SYPGnsgxsTCaT6QyJXpt/vPXfBWpcYnRaqMmdf0yMZUAsXSoYwBWTm3DZ9m3wdVtoNqroinFczOTUYA/KHb0/EIQ/FMT2HdsREdCplWRdo6GBtAuLy5iaF6Mp+4rEY/AJSDBug80eOTUSi0axf8dm7BgbxIAADavjamuUcllBhVEHJRlPQWCrKq9pFIcGEhgTI+90MMi1K1AlICWwVJVt2mJpmVXFmjX0jgwMDWhs0OETc5qqzcy/poACwa3W7Gg8i0vWM21bcASxoEBVp43ZfBWlrgMX79uJqICd0+NDhxk/3QYCsaQcg800nTqV4mAJEHnQm0PRayKHEkhpyTVqaKHAFjwCI8CpqVkBqyaINIxnY8E8emOi8Siqsl2pWNZUaG39QO+IABa9L9ddcb62ncjmiprxRTBjMb2aXA8W82OhwIq8h9fOLds15LgL2SJOzS5jUaDu5KlFLGcKcMg1p9eKhQkZIMw6NTMZAU85VqlSR6lQ0KKMrk4LywKWlS7bzwTh6tbh8UcQHd2OWHIQ2ewyPI0iyqU66l0BvZgb8YFhOZcoFuTYx+TzX5BrXRaYafh9JBuMxL3YNzag3poZGb9TQNotkPrON7wJ+7btVE/TU1kGNiaTyXSGFPIHMF9axIGZYzp14xWD7nH1EBHjvDkWxh4BkoAYy2MLS/AKANBgE0oG00mtTJ4Q4zQ+LIAjwDI7O681ZzyEHYGNTqsB9lVwefxIpxIIc4pF4IGwwayqi8/fi20Tg3JMMdKlohpVtrBhlXMW/qPnJCdgU6nWdYqIQcejQwkMR/3IZ3NIpmKIJ9OIRqJiGFkhuAu316cVb+kpGt80BhksDp6YleeupnbTQ0KwYIo3iwQSwDguwR2FHLYzKAgYTeVq8Aqw7du6RYy6gI2cC6eavIHIqqeGUEMvAw2ynBANM+FGTkFBQ7tZtztauTlfbuCB47OYmluWtazoLNvKcYICLYPMOPOH5NisIlxXT01ZHlUZA5t4ppJxPP2i7erBKrH+jyxnbE5bLhaPyc+EQENvkVeGEqEnRE5kqViXz6KIucWC7EvOs9XUqUJ6TxjvEwr5NW4n5PfIcpeeO4sj5pdX5EOQcbR7WKmupphH/W603EE4AvKZJ4fhC0YQdsv1rgvsso/YeAwZAT+vfKYlGfOhSh5NGWNDjtt0O7Al7cdw0CXHC2AkHMaBfAk9uea79uzFW170KgzEv9PD8KkqAxuTyWQ6gxpODOGfbvx3OGodBBl50mtji1i6McZPiJE7JkZ1KlvRTtes1hvxubUNAqeVPF4X6mLAZpdyOCVGNBqJaawMA02D8n6PGNJirSugs1r11sH9CxRsP2+nxtN06jXkV5axnMlrIb9iWYx3paIF51g9N1eqivH16XGZzZQUqJlIheELBDSuRHamlX7DLB4XDaFFgyz7YmDzxXt3yN9ZHJ1e0DYNNNY8drvbBeu0EDIYI+QQuGFBQE7nsNt4VbZbyJUxnSlih4xxbGRIgcgjAOLxeuGU9+oUmTwUbPqSvznlow02Zfx8Zh2fw8emMJ8pYKlQUfiip4jxNCNscJlKyhWBeoticn1jAhwEEU5B9QTAUhE/xoPAjEBRnsXtmm0EBbj8waDGJsWjAfVAETZZiZBeL2ZUMTCbdYQmRpMYSoYF6poCpW1EZOyJsHe1m3oiIu8PIcqsNzm/EPtBybo822M4/QIwYfidbQHVCFzeELqyX380qZWG2Z6iJOfXSIYQiISRE+AVeoJXRr0k35+2gE1HPruW/L17KA63y6eQF5H1xzIVtAI+vPCqH8BLL/8BBaKnugxsTCaT6QwqGYrjnmP3YEXu1sVswy8GfkiMdkiMcLvSQLHlgFeMNtOgmRbtE6PslDv1rsOLjkBAvbnq/QhGY5gYGdTUanRp6Og5KWAuu9rewC1GjtNLqdFxbN66VeM8lubnMDu/pIGtrLJbqtY03qQuBnwxW9Yib7HIqgeITRoZg7NlOIHk0Cg6DjcKuTyys7PIFwpaQM8lhnhhMQO3GMu9523BkWOnsLDM6TA5voAW69m0BCzYCoFAw7o39HYEXS40ZRtOS3EJwaZca6EgkEEAGxkeBjuVe3xBne4iIDnl+Fjz0tBo89wINPyb3dKZDk4P1NzcEjyyXVIrH7vlWrXVGzWSjgskROF2yHUVoEmGw+rVSIboQXJqLA3bVrAacq5QFWQCRlIxbB1NY8toSp4T+jzAqsECfvRqRQJejApYsligq9vGdhbwc3SwsCKwUhco8nkxNpTA6PAAEunEavsH+UyTqZRsv+rBcvkCq947uUb8vOGLIJRIy34cWgjR3RNIYp0eOWY3KQArx+zI96Eq7/XKOVdlvLVWAx75m/3BQokEYh5CMacMK1gsNxCMJPCaa56P87fu4tV7ysvAxmQymc6gOKVRqVfxlbtuEWMvACNg4ZG7e6Z/++VOOyzAQuOaCAUQFuPLgm8uX0jr1BAYvH6fFuJLx6MIyDO7czdrdTFiJRxbKqJa72h1XMZ4dF1eTG7fqZ6PYmZFez0Vy3JnL4b82EIemSLBpoPlfEULwbFKcDDoRyoS0LRsVuPdMZ5GaiAFp9eP5aUVZBZlP4s5AaOWFparVSrYsWWTTrEcPzGjzTNZFJDxLKtg00FQ4Iw9kNjVm8DA6smMu+E0GT0hRTk5eowIUzXZft+OrUilxLgzNkagyeV0C9y5NLuLgcL0RNFbw6k3DSR2M/ZFro8cl8G1LlkeEyhL0rMkkMbgYbcgVLvZ4EXUgGonoUmuC2GI5xsK+LQacaZYBdtPcGpnIM0Gkx3k8iUFHw54NB7ApMDekAANvTLsXbVlbAADsaAcy6nHXRZIZGG/RCwMfygk+2vA7Q8hOTgo/NlFs16Dxy8wJI9QNKKB3TwXxuO0ugI0yZR87n44OM0mY2/1nPAIEPsjUfiCLgTjYQQTMSQ8Tu0inpFzYiq8IxrHyXACg94wWg4PctmMAuOmwU143Q2vQDQkxzIZ2JhMJtOZFuNbbrr7NgTEMI7Ki5AYtIhLQCYYFYMYQjQYREiMGKv4Mr2bBpAhJpxSCYdXU6y9jh66zTrq1bJ2u2YfqZliG6mQT4N5CRAsbDc0NqJTH3NTxzEtQHJyqaDgMb2U1ykeajXIlZ2oG3IcFyaH0uq1YcDs1rE0BgfSAiVdTE3NYm5hBYVaWztfs1FmIhbDpnQEU7NLyBXLaIiRdtLLIgOm16EphpmeGbYmYE2dhhyIUz8cH/stsW9SAy7NriL8zC/n0JH3Xrh7J0Kh8Kq3RsbEcQnloCeQwzYCTrkuhB2HwJuCjVxDhR65LtViQSEmGQ8hnZCHwAgBhK0N2FqAvaMCoSBnxzA9vyLPPYwmojKGhrZOIEzwM2rJBj05B8YQcUqNIMh4nKCf7RdSyFXbOHBsRqsiDw8IaER8YJPR+eUSQvI5BcMhASg/Ts4s49Qc21F0MTIyirwABwOWh0eGUK/U4fa5EYnHtfv4klxfR7OmbSTIO9w3Ac8nwBIKJhCTY0yOxXHJrl3YOZoSkCvjqIy/6QbGkyNYYrq8gF9JQLUux2kJcD7z4mfguouuUag2GdiYTCbTGZdPDHNtbg6dzDJiYpBHBGRSzACiARfbQ+NIIx0RMAkFOf3gRyTsQ8Trgk/sO6d1mA1VqwhI1Kuolko4kmnB66XXwI1QwCsQFEA8lUAimcDK3CyWswUcW8xrmwDWxEmx7xKP0+2oh4IxNTTmbFjZ7rS04q7DLQDl92NiIIFCsYRDR6Ywu5KHL+BDUWBqKBnHnh2bBaxKmgnEVOuKwItwy1q8Djt4s9GlA36/QJTLo1NL9ODQ+zEcDWj9msVSXVa5NN6l1ezg+Owy6jKunZsntBghDbxmQun1EdBT2GFQsUCOGH3Ch144AR+XjLndbKFebwl4FWUZtOt4PCjwQC+SnDOrBjPTLBgIoNtpgJ3RGYvD9PkiC9/JZxSPCGj6VzOyCHk+gQ96vhZyFawUqgI2aYGRBL5+1xE5f3YNX+3W3WQzUAGYgM+LilzrxVwNXY+M1etDbnlJ9uzQIGVOmVXluhezWVRlrIlUGkn5vKZPTstnW9G4Kr9co2ZbwKbX0Vo9Ln9EINGH/dsHsXNsTMBtEBFmcLXqaAq8hgVqkgJ5PhlHu16Ds9tCTI71hutfjVQ8rd89k4GNyWQynXH5xMiV8llMHTuEATHMg4mEGEag0xFQ6bTFKAbBZhuMn/HTUdGtw9kR41UpoVGtaMVcthBoyt16oVzFkVwXyzXHaryIUMWQwExHjHxEjKPYO2RXlgU0GoiF/Th/2wgmB2OIyB1+pVzBshhqpnl35HguubtnTAwrBMcYkCyGPVuoYHIoikJmCYdOzOl0FRliKB3D3i1jOl1Cz0arWcd8vqZNH+mZYH8l1rNh7RfWd+G+6KlhdWSt39Jsg81Bk7Egjq9wCk3gglAkx2822jg5u6R1XEbSScR4HgIs7HHF/zgZxakbdWPJ30z77giM8W9O9TDj6NDMIm56QEAssxq/UxIQXMxWdKqsJBDH6aGIQBWLCjpaLfhkfL2GQIiMkdfCL6953E63rTE51UpN435YSTkn5zg5MohxAb6v331EU7lZ/ycsH1ZJ/m7JuXTlPOgQW1rJwSnrvAIgnAIj+Cg0CRzOzC4KtAkMybmU5ZoNpOLyuXQ1Pd3HBpmOLqLpIe1FxTo4HZdfroEfg6kgkhH5Ysj5+gV+l2ZPqretxGyptlyahnxfem3EBEr3jG3Gs5/2PAU006oMbEwmk+kMS1OHfX7MH30AYbkj90ZjQKuEULAryyMIuj3oNWtolAsoZ1f0rr5WLYrBZ18gMexi08v5HGZzAjUlH+ZrLvicXYRc8mDXbgaXNpqa3kxjXBdjXBFDvmkggnTcrxWETy1mMc+AYQEVwsdqarbsW7bfMjaqhpEdpukuocFHu4GTC3kx+B4MxHzYMTGI5XwZrXIZXjHSDHKZXS6tZQ2x8aIY61pTvR8M5GUbBQYPM+iXcESvDgOHU7JuqUQoqvDoAgOKLeqlOTm9IPvMaPwLPTceuS6MP2JLA27jkG24XYdxKM0mCsUiHjh0FF++6XbceOAYSvUmGvUWirU25H9YKTa0vQO9MkyBd3gEZgQGSgJCjNrxyojoESMiuWQdrw07hbMTelyghfFABJ+ew4XtEyNyjj187faDmiXlkwENpOPqqZnPlPRahYNelt0RuClosT62cfALwY4OpxGNBnQKcFlAKyRA2pZ9sg6OR64j44fqtRpKBdmHgIs7nEClw9IAcm1ack0F8kaHIwo+xUYZK9NTmsVVIvjK96bVacBDKBI4e+W1r8RgfEjOyNSXgY3JZDI9DgqHI3DUyiitLKAlcONoFxEPxjSAuF7MolLMo0KwKZTQbIoh7nbEijPzp45MtojDK00ca0RQajm1oN5wxA0PxMDqlE5Hp5MmRpI6XVMsFOStLbhl/YmZBdx1ZBbHFgsoNQReIgINYs21UaYYzGQ8in1bR5FgI0cZ46AY4OPHTyGViKIjQJFiNeLhOA7P5XDg1DJ8AgNs1RBJxbEgYFOtN8DWBbKpNoAkyDD7KBb06/QTm1ASdtpdhwbksrcViwGyhg49EIwnoReDKeesZDw1u4gH5Pgzi8vI5EsoCJTxkSmWNAtsaSWD2flFHDt5Ct++9U58+Vs34q5DJ1ASmPO53HLOAj6kLRkQgYEA02iyuKAXLRkbqwcHfW4t1hdjujcLEsr5sNlnW9Yzc6nZYlyNXJsQ/WgCpQJpe3dt1sakh6YW9NzS8t54PKbHygusrAhoxOWaxQRaVvJVhUa3g0HhXmzZvElgJqAFBeeXsqhXqmDUUbFYFsARMI0N6HU6emIGdQHHsYkxNLwRdDxhOGsFNLsueLy8Vg0cPHUc+YUVrXBcqgn8tuW8O21t2bB9dBuee/kLzFtzmgxsTCaT6XEQg2uTg6NYOHEEK7PHxKx1EY+m0G4UURNjVhPoYTE4Fo5r9dg6wKHNJ08tlXE078apZgi+YAjV4gpq1Qq2JIPo0qCJwWafI8Z8bJ4Y0n0w5oTZPZlsHtOzS8hU2pqBE3Q5EAn4EPQ4MJ2tab2adDKGSyaT6l2IxJIYG0jgyIlTul9/iPVyHFjMVXHjoXktXMcU7Hg8gqAYdRrQzHIOHrGqYZ+Mgx4TjbnpIuR16ZiKAhU08rGAV86niiEBJ6YvlwhjXcEOgR+dDmpxzJxi6iKzksM9DxzHLXcfwM133osb77gX37jtLnzt5jvw9VvuwLduuRNfvfFW3Hz3/doQlIHNNOVdjRfqCggIFMr1Y6PJiNcDtqXIV+syrg48Ail+gcGOnMfw8BDGh5MCnazqXFHvEffFQn7Ti3nttD2UjGBCwCQQDOJfv3qbZi/tGB9S7wy3z+QraNTZgsGBUCoJjwBlUN7H6ablcg1jAoDbd21fm5YqC0AV0SaU1AUs5bNKDwysNv1kvJTfh2gkgqHhlFwjLyougSEBH3+vjaVsAffOH8DcYgbedkcztDxOeXYxsLstY/HgpU9/JcbSY6tfONODMswzmUymx0msRbPtwsvE+NbFoHsEahroNZvaFNIT9Ikx86ElyztOPwotLxbLDixUHMi1oF2/u5WctkMolkqoixFvCGhoTRbZD2NVmNrM6RMGItM4syHlxEAMQwkWp/NiOBVFKORTDwUzkbwet2ZBBeR1veXAyMiQTk0NDiRxbC4HsZ3owY1bDs3KrjvqeVmptDC3XMTKQg7RcAhen0/G5kRAYIH9oJiBxP5KiwUx+GLAXTImjjUUDmMoFlLPAjGE7Qo8AkMet1cgRICCUy5isFeNUE+NPptGnjw5i7vvPYS77jyIO+4+iHvuP4IDh49jem4ZdWZWCcMwzdwtx2dQMYOQub96azWoORD0y7V2oVprIV8oawDvsgBjQcYWGhyBKxxHLD2A3Xt3Ytd4AgOJoB6f01onlkuIJ5LYOjmGew8cE/iixyuA3dvG9PoRBunl8QkssfJwVvY/V6jLWBxIhb3aSbzl8iMQieq1Y/2foJx3VK5DQ2CvKp8z42l41iNxHy7ftwXbtk6gWhHIzS6gW69qHyl6kErZKu49mcdxOUaD2XN+uXYaaM4Cf35sHtmGTUOTevVM3y0DG5PJZHoctWX/pQgPDYlBF8NYLqJRq652ZPaw03UQHo/cqQuUiF1VQ18Wy90Uo19rMl6kjK6AgS8YkNctja3hNowJ8XqcKOTLDHhRr0c8GsXwQBphtm0IejEiUEMvAysbl9s9RCMhbBsbxL6tY5iT93Wcbm0F0O11tO4NwWQlW0BEgCQViyAl69qsZVMsIyPGdXEph2KxJiAQ16wu1tzxCbVEAqx060BFwILQUWvIeMQw5wQoWI+HHhF6dNxOh4KXZjy53QJUrKsr5yxAw+Bg7oNp6+xYzqBjt4vbO+ASkFBi6clDQIYVmuk5YYXdAL1RDAKWsbLasMfBoOWGdhSn94YF9FYElkpVVhnuybVJIlNZ7Q2VHEwiJtsMRIMoynqaw0bHgXAihXypiqlTs+qFigu4MWtphZ4aOS/W6GGae6/TxtxCRuNxyvWePNrYNJDA1u2bEJb9MjuNjTh5zqy145DPjv078wKtDLZOR9yyv7oCS0vOb2V2CuWFKXRrBZTkO+JgbFbTjao/gGY0CX88JWAThzeQhC+Uwp6tFyIRTsi4TafLwMZkMpkeR7GU/gVXP1eNdKPC4FsHCrWeGHi/wg4DWHOlmhaYY1fwti+Cptz1M5B4KZNBuVyDX5YzxZiPSrmkact+gaO55QKKpQbCYYGYSAQhgRuW6qdXZOvYkFaxJTgtVtpIRcPYv31Up4CmZ5c1bqYlBpQBufMEJIGCmsBIpVbDeeMp7JpIY2IoiWg4CJbdawuGLC1nxGjQS+RdDbgVoAh5XAIbTJX2oNbpoS7GvFQRKCNQ1FpYkb8Za6NtFOQYBLueGHKFG9atId4IvDgJMXI9VisOr4IM07Q5BaPeIy6TbQk8/eBiBjHzURfoCwf96NTrWGAGloAKvSfjQwIDsj09ZfQw8fhTp2Ywc2oapZVFOHzyHgEIdioPCKClEhGEY1HMzC8iX66gyCm/TgsLS1lk5W8WOmSQNkHSJ/DVkc+O0dQlgSY+JuWab58ckGtcU2iraN0gRv3IuclzWICGxfuaKzM4tbCCqZUSlnIlBGIJZAtFHDtwn9at0TYSctyQw4eBgWEgGEI7Ip9FKK1ZU7H4EC7cfoECoOm/y8DGZDKZHmdt33MpInLHrQbc6xdj6IZLfn6bYpBrDZo9BtMy4Dis9VAYN+MXlBALh7oY5aIYWaZK01B2GmIYmw2dQlrIVzGzUhFIYHaOG10xnqxiyykQegUG02mE4nGMDAxgz6YBBJxdTJ04iamFLJqtOnILM5ibZ3BzV+NefD4fqs0uarW61li5aOsgLtszjmQihsnRQYGvroynpr2kxgR6RhJBzSZKCfwwiJmp5AQYelY6zTay5SpOLOaQEThj526CVrfdRK1cFNigl0TO3eHUQnyM39G0bgENxhIReDjdRkCgurx28tyQ/dJjw6BfensIamxYORoPwc9KzbKMxz05s6j9qjhdxo7brk4TpeUZLAhQHD02hSMHDgnIVZETUInKtUr6nJgYTGiLi3K1ItbRoV4yVi5eWMko5FQF0DgexvCk5HgjAkINOX5Dxs3qxONpgcDCMoq5nBY8ZJdvHafLgy0jaYW5ZmYRmeUl3HVkBodOzgtoCWRll7WycD6zhDqrEAt00lsWEsAdDkbRkc+6JRDm8QQRaDuwfXgbNllszcPKwMZkMpkeZ4UTQ5jc+zT1irDzdcArBr7nEAPtkkWsfxIQ8IkhFg3A02sLVHQ0IJVxKezJxIrEjG1hsb268E40FMBCtohitaa9kvLFOloCCqXy6tQUexwxRdojsBMQaNgzGkdQoObIsWnccXgG87J9u1LG/MwsZuezOnXEIn5+MZ6Tm8c1DuSuo/NYXMwiJIC1dzyGzYNh7NyUwv4dw9pWgAX8yo0uWuzxJFBDmOGUS1SOHQt6QVJjn6pyvSFgwTYGDT2HYDCoNX1a9Sqa1ZKMu6bTRx2BEI6D+2HGFPtnueTc2RyT4OORvxkjRKPFGJuI14mhkBcjYRnzYFzOFejIftucJpLtwz4PTp5aQrEox5FrsbySx8LJEwqTbPjJtgjzM3MCcU24BCbbjRYCsn+CDIsdEpDoIWMGWlHAiB4czpg5ZRvWoSE4ap8oAZwdw/LZuTpYnJ7B0nJeq0RXBA7zct4EPl8oKlAkYNZpoZ7LoiyAVK/XMbeS04y2g3fdg3I+i6iArcsflG+IAJ+caLchEFcTyJUXQbk0BL3BZArPu+i61S+W6SFlYGMymUyPs5hxtPmipyOUGkFHAKQlRpS9itRTIY+23InX2zRmPQxEvagJDBA0GJfiEWMdCQTFmBIWxKAKGDC+pViqwM3+QS2BAjG45VIZWTHIrNnidTvkjr+NiuyjI+td7aa2WLjj2CKOL5XU61ATQ53NF5EpVgQsmppdxBiXVDKBdDqmFYanV8pifJmF5EZTIKbr8OjU2pLs65Q8OPXE+BzGjjCeZSgRVi9GXMAmKKTRFYPMejI8nxKNPOR8BG48YrzpYWILBAIZq+gSdLpMe+/xOgicyD45jUMPEAsLMmCX9W7YpmE8HsDWRAAJvxvpaAiJWBQFIb5lAba8PLP43oCMhY04WUmYQcZsBzE9vagVlPMCNvP5OpZzReFAgQcBFbacIICxQCJbWJSrLTm2Q7OZhHEEUBxaY4dVonm+LXqXZLwcw2gyqp/JqbkspucyWFlawfz8knzG8vl4fHKcqlZbdsr2QwMRMGU8Ku8jHPHcT80vYj5T1JR/TrERbjk1GRBYc8jn42924RAgq8vnet2lz8JAJKnfK9NDy8DGZDKZzoJig2PY9YwXoloUmGAvIQERp8sLbziCQtuFqcUsMrk8Iu6eAElV40Y8YkwZeMtg1aDc9bMFgl+MW6FU015S7IVNeEimE2ADSgbB5st1ea/c5Yci8IXCGox8ciGHqeUClktsByAoIga6IIaenoimAA3jVGJ+FsejAQfCYnS9XgYdd1DnpJmAV7nWRccTkrF10ZTxMXOHYS+aei3jYwzRcCKK8aGkGPqIvIZma7EzN601U8TpaWFhPzan9PgCAizMkGJssMCDwFe7VRcQq6PbauqUFTuWsy8WpVNZfi+2D8YxFPZoJd6GXL9AOISsnPOx+Yycn0CebO6RbSOcgqq3UGAmFc9DQHJBQK4g4KedxutdZKttVGsCmp2WbO/BSr6wGpwdCmi6Nj1qnGbSCsohtsWQa+oPyL7aWMlWkMuVNLCazT1j6RScAm0V2f+SQM3C4rLG7HScXm0/QVBlm4zx0QEMCQjFnG3sTXqR8HLKraMFBumR6zVk20pVCw2yYnQuX0NVrllN4G7z+HZsHdum18P08DKwMZlMprMgxpLsf+aL4U5OiLHKavxGvedA0+lDqdXDfK6G2eU8csvLAgU97cItb9H2CoyxSSfiSEVDGlxLb4Ff4MDHDKbBAcTiETH8DgEJyHYRRMIxsCBcSQwkAYleGTagZKE6BtEyiLUu8MD0ZUIOY2piAQEb2UezWkaV2VjyfqaXC31pFlSTXoZoGI2KGHHZ1iNUwyBXxucwyDcq402x3o1AQTTi15ggQg+bW3L6KeRj9g8LC3bUE8P6Mp5ACB6vAI6AA8+L+2PMDD1IXXnmlA9Pit4dGqtNAgQc/+GlMhbKXUQF3FoCMpyWY00dToNxO7eAQEUgr19tmb2jWOcnL+DD+BhOL1UIJ8UGljMVNASSKvL+6eUclpcyAmYxhPw+RCKr00Kcg9oxPoyJiRGNRYrL+TOg2clzcghkEZYaXWzZuQWRKOONnIKDXXkW4PN6IAPR+CgCI8eRFghiHBTDit3BANLyGUaHRjG4dafGBZ1cEEgrtwRKBSLLbY0r4rV62tYLNRbJ9MiyK2QymUxnSTTor3z3RyBmSkxaW4xdFQW5K2fGD+uk5MtNFAtlBGU7hs+WxThrXI1sF3Z1sHtyWKdxaOQC4QjiUQEaRw+BkFdjM6qyLxbva4lRvffwSSwuLmutFYeY90TQg6FYAIOJsIIEPSGc7nESlAR+mC5N4Fman9OsonggoJ4Ppxhip6ODcCykWVQeAYuBZBzJoBxTxsnCgsIPSISD6u6p1pqYY08pMcouMepsLOn3C3DIRsVyVffNA3MKzusPaM8knZpye9WbQ2BgADE9UAwYZhBvMODDBRMDSMkxj2dKyNbb2sSToMZidXzE/QIQAnbsVcXzYONJrxw7KssJTIzryZSacAkosfIx07a5DTt6L8p4F/N11AVubr7/qBbd2zEUx47RFGKcMpLjbxpJolQqacf1SMCtvbQIegGBqRbjnLIlxJNpDI0PIZVOYNOmEcRTUYHMgICdD+lIQGsL+eSzYZo4QTcsyydHh7FbgGj/3h1IDA5rlWmmetNTx5o2jUIRlXIZ2wYmEQ9G175JpkeSgY3JZDKdRQ2MbcIPvObHtcieZiYJCNCIMcuJ00qMWyHU5Es1bchI6OGUVKNSwGA8oPEkvGsfHOBdv1u9AyGBipYAwXKuJLDgw7HpBazk8phezuPIbEa9Gqyn4hbjzqaQXoGTIDNtemICZJlXjDPr13A6aWlhUbcfEMPNOi/xdFI7f7M6MLuNs0hfNBZHLBKEW6CHac+adCwwQENcrDWQq7bhY8fyYEDHyKagbKVQ5RRWXc6JXhv+J+floudJ4MYfCsMt2xH+CDRsetnSbdsYjvg1poZTaUulBtICBKNR2VaAS7gOIbeAYLst17GHySEBHgGpHt1XBB0ZHL1H9BjJpgpqjEEibLETebXVQr7a0Gw0YTHcfXQGN91/Emx6GZfrNCTXgNNy1XIRvWoFYwIrA8NDGBweRiqVQkjgrOdwa5B3WK5NwOvHprEhbJscQDrkhqddxUQ6KuOKaTuMgcG0diJPBlyaTj8u64bDHkRRh69VwlDQiWTYr9+DhgyYtYNivQB2D2/VoGrT/ywDG5PJZDrLevpzX4idF16GWruDslgvpjnTu+B0e9AQ48r4lXqjrgGprDeTCAXBuBt6Otgtmw0xoyxIJwadU1Zcns8VwMaYbp9Pp5boRWGTyoBsQ29QSCw8M4XorUmE2HTSp1MkjINhrRpOOzEjqCZGvuukRyKB0YEEyuU6jhydwvLiota50ekdl0CBPwjI+GOyX06paIXkSlVr10TEwKeT8dUieQI4ijECGW16pgQYWq2mTktx3Ozu5JLjeWV/9EL55Jk1bThl0xW4Ye2ZIb9Tqy8vy1gYBzQWkeN3mnAKzDE1vC3gkpFx01vDXlCrtW56cp16Gg/DjCo5WQELt0KbR+Ap4HXptBQhj1NmhBy+n9le959axJG5HLLZHKoCV/QydQTaNg3HMTooYDOYxKbJUZx//i6ct3s79u7Ziv17t+r+GTvk7LYYnY1OJY/M7KxcIzd2TY4gmUrAFYpi284diKZTMiQv8sUiZk7NYurYSdTzGbjkvfl6Ezl5FDusGuTGleddhIGoFeN7tDKwMZlMprOs9PAInv9Dr0MwPqDeC7YaYIwKY0MY28LsGLc8mDmTFOhIhAPIi2Evlgro1ksIecUwB3xIRAKIBD0o55ZRKhUVOjjFQnBhVhRjOuIRPzKlBtxej2YtxcJh2WdAvTGsaOyXYxOsggHPauwLPRc9h2Y5Lcyv4P6DxzWGpCnQQxip1BtoCwRkuYyenQi7cgscCFxwGqosIJGvNAQcfDLGAEJyXgQHtpRgTReqzUBhxtEQbkSsUMOidw63G8FIRAAnKufiVhgKumUsaGN6pYBcpY6QvpZxlKuoVGoCEV2BwQ78Hq+2cOjJOJkxVhWAYqVgNv/k+GSoYvHccAnIML6nwMBi2Z9PSInryzIeZlN55dwYMJwhWMgy9n/yhGMY3XMRdl1xLbZd9kwM77wIwxNbBQ7DcDkEvoSbXDImtGsIxWIybhemZlcwvVBELl9CdmUFqXgUW3bvhTsQ1pYLvkgcp+YzuOfQNO45voByx41sy4H7BagOL2ZRVE8ecO21T8dlF14i+5SLYXpUcvQYsfUkUn+4D/Uhc92Z+PDP1H5MJpPp4cQ4j3/4zF/gzz/1aU0JpvGursxjvtLS9gYRrwMjiaga2wRjVJw9TA5E0cjnEBscxeRm9hgqwM35JVcPN976gMBNA4mBpBaUc7HAm4APIePIbBYT6TC2DiXESCcEApzwoo6pJYGlSlMDcvdsGUOv3ZDjeXBoLq9G9YETc6tVg7stjKfjGB8ZQDwWZ0Mm3HXHXZr+TK/OzEpeO2CzwOBsqY77ZjMCUTGEYxGtpzOznBNwCmDq1JzWrCG80TtFiHLJM71I9E4xroaeFnYPZ4E6Nz1Tcvu9O+nH4XwN+WYPW+J+DPt6qMnfDiEK9qrK1NrwCuhtT0a1ls/JZbYlEAATQGnItR5i/JCcY0OALR5woSDwNZstoSzbsB6O1+dHrtXDmEBVgSncA2lccv4+PPfZN+DCa67FxOTmh7UJjH964I5bcOc3/gulueOQ4SgE9gSijh0+hlqhgIRAzcVXXIaJLZuRXVxAMZeFS445vZjBonZyryOQHpZxdQUiy9puI55M4cpLL8b73vYTen1Mj15nvbv37OwslpaWkM1mUZAPvCVfXkbM9780mUwGc3MMXqsiIl+y/nKmw60I9fL9fK9W5hTq5vwy98HlCwsLuk+PuhTpjq3pcoIKt83lcnrsUCik+z158uSD6/i6SJfgzAwWFxflTqCirmHuq6/jx4/r+Hh8bsv38L2Utt+fmnpwHcfEu5X++E0mk2m9+NswuW07lufncUp+WzyNimb2ZFrQ3lERAQUWjGO5f69ATa3RVC9FvVaBJxhBSAx0o1pEObeCTK6IXKklBjSCtsOFpWIFg2LkB+IM6F0NyG23e0gnk0gmUhhLx1AslNSjkRJ42rZ5TIsBMiXZJ797s4s5BYNSlQZaDL/ABYOAQ8EAgqGgAFQZuXweHjfTwr0aI+STv8Oynp6XhVJNgSUkAMTA5Gq9ob+JzFTSQBf53eUklAbBUPLE6QOuYkdubfAp27jdTk1vd7TbWJaxMDXdJ9et3WyjKI+uvIvwUmt3MZ4IwyfnmpdzyJVr6oXqChCwqzfbPjAImNNtDDjmuTELSts66KF6Gm80NrEJL3rZy/COn38v3vDmn8Ceiy5BLJ54xN9xTmENb9qMi655JnZfcR0CkRhymbxmtpWKBRyYzWvbi8HBpDxSKAt0njx8FM5WHUPDI0gODCAxNAxXOKpesBKDnmWfO3dsw0/9yGvl8xGQND0mnXWwufPOO3Hs2DE0m00FCEIMg8sSiYQS+z333KMAkZd/NMPDw/qPhiLU3HbbbQoufTAaGhpSgLn33nvxwAO8Wykp3DCIbGRkRAHj7rvv1v0OyJfn4MGDOHz4MCYmJvSL+o1vfEPhKSn/2AkyN998M+blR4ZQderUKYUVruvDzVe/+lU9LrclABGUYrGYAgzHe9NNN+n4+nDGc0yn0wY3JpPpIUVY2LlnD+6//RYszs8h32jLr7JrdWqHLhMx9Zx6aQrUMF5mFQR66MAFl5P1ZMrILK9oZpWYQ8SjISzkyqt1YARafAyuFThoNZkaHcJAMia/WWEkYwGtfMv4nC2ThBo/TswsKGywN9NSvqzH4zQObyJjAZ96UdiA0itj4+9cXeCAhQfDAjo0xGz66PMTZnxYLDcEcoLyW8zqvS1tOsn9kVe02jKnmeipkb97sl/hirUzI2WsggYBiQ8WyWOETEP+pqeHDSO5Df/m8VlYj+9Nh7xyrA5qTdaEkW3ldz8qY6GXhlN8qaAHTJNvC2ixOSh7SDXkOrLTOa/Nq17/BvzMu96Jl/7gK7FpctP35CXxCcgNb96ByT3nIxhPYunY/Ti1IGDTcWIoGRF7EEe9VMT07IJ62obkNTusT24ax2A8Kp9LRGOI2Pfrh1/5Mlywd7fevJsem87JFaOhf9rTnoYrr7xSvzyEDapcLiuMbN++XaGCgNAXIYj/wC688EI8+9nPxsUXX6xuT0LM9PS0wse1116L6667Drt379b3EHroUSHw8L2ED9418BiEF35h+t6a+++/X5edf/75up9du3apt4eAsl4EpmuuuUbHQcghcPXF/W3ZskXHQNghoHHcJpPJ9HBKy03Xj7/t7eglRlBoCTyIyQ57V9OxWQOm2WN8CL028mBBOwEC1qVZzuaxuJJDtlBFsdpCT3/byvJ7V9Eg4WpNllcaiAi07BgfwrbRAcQiIYymY2gJKPljcSRTSfndreJrN9+tcMSaNVWBK2YwlbiNx4V0xK8ww3o1DGWtVsrqoeHvJkGIcMIGlBWBCgYOsz7LoNZygYBRUyGF2V4dAQw2vWRLAp2GEijRQn0EHLED3BdToBnnw6wvwgrhji0k6nLkqGwbYN0Y4Zq27CvsD8Af8GvdHI6T78+V2H8KGizNGKK940kMJ1jrpqfQE/G5NAOKYLV1NAm/UATrAL3rF9+Pn3//L+CSyy7V3+7vRxx/cmgU51/zbPyvX/wd7NtzHkaGkloxuirHZnp8dCCNXjiOuYVFlPIZONtVDLqruGRTFC+8ZCt+7OXPwTOuvFwLA5oeu84ZChI06NEgVfc9IvSAMCqfYEMo4Wuup+hxIcTQ48Mpn/6Xj96ewcFBBSF6XAgtfdImtHA7LuN7CTWchiKM8I6D3qD+fggg/Jvpe1xOQOEY6Z3pj4Hi3xw3x8bj9Kei+uIy7mfnzp0PQpTJZDI9knactxuv+l8/DG8gJBDhxlA0jImBhAa2asaOwIOmaQvwEDCYAt1odLBcrCFbYRAuG0K2BXbkdwkCF0IFgkbwiIEPupwYiIUxkIxgLB1Fu1HDzMKKwE0HS5kCbrzjALKZEiKxhNZj4fEYgMzgYdaASTKtW4z1yMigTjVxSixbqel2YqO15gx/E1lwMCOQVJQbRPY2YkG6tsBZrcUpI9atoSemi67smz2h2E6BWUkEHz7WXDUM/FSoEcwRwHEIkHRR7gBeOf8ROY9YOAiHgBanxUZTMSQEbkJ+L6oCQAwiZop0Rd7jEHBiFeRtwwntOcWAYL9YPO6b9WvYu+nCXVvw9l/8Jbz89T8mgBTmR3HGxDo9g+Ob8X9+74/xvOc/Fz6xCyy05/LKzXbXhamlAo4ulTGfrWJ2Zhb3330Pjtx6I3ytBq669obvCoMwPTadE7Dhl/jWW2/FXXfdpWCwd+9ehQjCAu8C6Fnhcj4TWChO6VxwwQUKJvSufOtb39LtKS7fsWOH7oP7JfzwGIQexu/Q5UqY4T45tdSPg1kPNnwvPS59KOrXh+Dy1X90q+JUFaekDh06pFNlBK6HUn8/66HIZDKZHkpMR37ec2/AK17yfPTcHk3ZDshvHad3aIThYCZPAG0xy/SseD0+Wd7ESk5uvGQZp4pYw4Wl+wkNjGthVtJALIBExIdBAZqRwbhW/T14cg6FXB5Hjk3hngPHUJH9jQylEAkFtZ0Aa9EEBCI2CxSw6J5XfsuYDh71uQRUehr/05QHWxyw6SVBhGngXJ4p1ZDLV3Qf/O2ry/jZ5oHVelnMb9UDQYDpwCHjZYQy6/Qo8MizQg/bK3Tl/bKNLpcx1wQIqj0nhqMhbE7H5PxXPT8xga+UgFdkLV09IL/xhBr2leq53Fr4b0jOjf2pHAIKnAZjWwQ5KDruIN7+gV/Gi1/+Cv2tf7wUS6bxkh95CybP2wtHp4HFXBH3n1zA0YU8lrsBHM81cHx2BSfns8i2fNj/3NdqPy7T965zAjaEl23btimQXHbZZQoIhI++h+a+++5TTwm9KnzuizE1l156Kc477zxd15/moWeEy7gvAhDjY/rvIwhRjIkhxBBEuI7QRLDpe1wY48MxcNqKYqwOgYbvWf+lp0eHY+c58P30LJ0ungOPR7jpH99kMpkeSfxt+bE3vwnnX3EVCrUG2IWaHa45jcPpC6fHK8vr+psTCMrfhaICBkv/++RBw87YHLTb6vUZSSUxMRBFMuzR3k7HT87j/qlFLGVKOHBqEQdPzGqjypFUHINDA3A7ehq/QkCKyO8ig2oZs5NORNVb1JSbzDrr4zigxf18Mh4u5/YsgMfEbXpxmjIOBj47XE6ticPzYLYTxeknp0AaRWhRyf7oneHvbY++HX1eW0EGku34G8/mlnU5yEQirKnxLOLHNhEJuRbRgF8Dh5nuzpibkeE0xuRRZsiSl0kmAobyex2PhbVi8GBarvXPvh0XXn2tHunxVjw9hGte8IMIRRICMMvI5ks67ejwhzC7UsAh+TwQH8UL3vR2jG7btfYu0/eqcwI21OjoqIIK42QoemYIG4QdxrAQUggPjLPhF51emq9//esKPYx7IWwQSggpN954I772ta+pF4WeGLrw+sDB/RMwCCr8Ox5fjTBfXl5W6Oh7Vvbt26dgQy/SLbfcgjvuuEO3J3RxHH3RA0TvEEGI3ht6f/rqAw3HyYwrBhYzJsdkMpkejYZHhvHhD38QV115hRpiP+vMyM0VvQ91gQ5mNg0mIqs1U7ptBARokklOtfgEKrqI+ORmS36vBmXZYDKOaq2FQyfm8Y3bD+O2QyexWKjD6Qvg4FxWbsxY4yaMZDQiv4U+VPIZLQJI7wrjbphJlYoSIgSc3E71YtM7w4Be9j9KCyTwmdP8DAB2yW9uJBLS7dKJmMbPEGq4P/42atwMf0rl/wgu7VZDvTH9X1cu4299fwqKv7usTKxbCzBx23yrI2MOak2YrIyxJKDFfkwcJwHP73FjEwNykzGtxeMWqNFGn40GfEJk8XgEKVn/v37iLXj2S166euCzJE5LXfVDPwFfp4ntg2GtOMzYGlejgmAoghe+5kex6/yL17Y2fT8662BD4Fif3t0XgYQZSgQPekmi0ah6V+hB4Zd906ZNup5Awjgcemi4rA8a3IbZUoSdq6+++sH5Sb6HgMLtOA3F13zwGH3IoXi3dPnllyswcT/chnBFgOmL76GXhjB00UUX6THpNeI/Wi7jeo6Nrxl8/PSnP93mSU0m02MSf/ve+t7/jS3yu+Zy9DQwNxqLYkh+D/dvn9C6Kx25CWNLA5bw7zjdGt8yEPah02bMog/xREpjUw5MF3D70WUsVOTGsdpEvdkWUAojJYZ/dDCpwbeM23G2m6iWy9oBu15toCzPKYGUTrOuBeaa8ptWq9fkRrKKnkDGoByXRQPVEyM/5cQTrT8sMMH0cGZH1WQfsqkCi/4Oym8+U7m5vbZNECBiR29usMY7XKHr6Hnha0Ec9fBwGSswN2QcsjNEAl7to8VAanpkmKrekN9jt+xsz0ga7lYdjXobyUgAC8t5bVo5yKyoXhdbztuPK294vozx+wsSfsySExqa3IbrX/HD2JEO4vIxH/bFe9g2EMJLfvDVuPzp133X7IDpe9eTrkAfXZKEiNO/ADwNxsNw3enQ9FjU3w/vOkwmk+lciL9D9997L37vt35L7+h3DsfQE3gp5nOo5LNoCBSwsBu8QdnaiX27NqG0soyp2UUkkils2bpDm1kenp5DTm4aWdG3JdvF5Ibtqov3465DhxBzOzESC2n7gVgsiPuPzKHe7sEn4MDUbke3hVZbQKfRRLPjELBZnYZi7ZpYOILBVFTjZzhtxsJ5bAHAdWPxiLCHC7dOrSBbrqmXJyAAxakp3vg1ZTvWmKnXqzIiB3yhiJzDaq0dQhO9NAoxWvOGgcXMwGIyyOqU0/Mv2QlHp4Vv3H8cuyfHcd54WmCshq/dewRbB2K47LxNOmXX9fjRbdRw15FpxJxtxEPy2hfCy9/8M7j2xT/4fdmJ70eFlSX81a+8F9n5KYHYEC654eW48iX/SzPRTGdGTzo8JPk/FNXyS6qu0u/zy9rfj8lkMp0r8Xdoz759eOvb34ZnXnkRwl4n8rmc3tixQJ7L40WtzeSGHmIpAZktm+Xv1WJxvlAU/lAIPXpJBBLYxqAkkMDYE2Yved0ebBkdg5deEGdP+znJAVFttuWJqduEHTlesYzlQgVLxTrmmX1VbWvHbtaFqcp+2KmbHpBS14FMo61QEvXRQ+3ATLYERtD45TX7LxGQWIuHVYj758eWCfRu63SU/m6vTlHxb/7Gc9z9FgycbmJNHHYIZy8tpq1z+olBw5ziagoUEZyC4YBWKx6JeRHsVnB8ag4Jp1wzlwCSy4Oh8Qlc/Izr14736MX4z7/7u7/DJz7xiQcfn/zkJ3H06NG1LR69wokk9l77PMw3vZi85iV42gtfrRlUpjMn83uZTCbTE1A07rv3n4+nv/hVyOSZXk3PShyxREKnYRgwXK3WsG/vTngEEoryt0OMdzSVhkdggp6PsN+JpN+tNXBY24WVezPZPDaPj2gGlM/nRzgUVihijydOHbFmjXCAAkO51sZSqYZSo4U2gUOgiJlRhUoVs5k8lsp1VNpdLdy3dTiJ0WQMuVpDKw+zrxTT1Bl+QOhhTRp6ahg1w/85nR71xrQbdTpmdLqJ57yKHD0BH9bI4fNqLyfWsAnIuTCzi4aLN7lBj1tuRGVrR1ebX8b8Lq32m13J4Nj0EnPRNbbGIzAYT8Vw5bOejWgipUd4tCJMfupTn8JP/dRP4V3vetd3PV7xildoIstjEYFu83n78bLXvxnPeP5LtUKz6czKwMZkMpmeoGLBusHJbXjDL3wQu/buQTqd1C7XmWIZDY2zCWPz5CimZ2ZQaTThDkYwODyMaq2MbD4nRp2tBvwCHBH1CtDTks1mEI1GZJ1LK/py2mshW0apXENQgCgQ8GoQLqe7+l4Uv4CR0AOiTPYQIKkLFDH13M3xBVzYlgwgEQ1jpVzFnICT1q6RN2r9GnkrPUA6zbRKNFwqBl0ASsbAIOJOq65eFA0lEBjidl6PV4DJB7eMhSzLuzkAADGGSURBVBWSQ0Gv1tNhxWBmRA0kYgI6Hvm7IwAE7ByMIup2aBr8fKmO5VITqXgYHgHAsDzcMpr9V17Hy/qIYjA0PTSM52S85be//W31zvzgD/6gVq9nlXs+/vAP/1A9Nu9///t1Oz5YVmR9Ju/DaWLbDlx+3fXw+wN6/fkwnTkZ2JhMJtMTXIPjk3j+j7wZkYFBzM4uCtS0tKUBS/9DoGBpcZ4UhNTQIDweB7K5PGYzOU29nhhKYMfWMYULUkqpXEFXYMLjdYkxXkFmYRmHT84LJHgRkGUEipAAk1cgwe3qaZE+Fgxk5+zx4UEMp1NIJ1NqlJMhHwYiIfj8QRyaXcbxhRVUW50HWyf4fF4FI9ba4XNPQIh/0BvEh9vDyu9OOYWatoHop4DTs0MA4n7UyyPbMGCY7Rvo3iGsjA3G4XH0UBCIiQcDiIY86Mg1aLs8yNdkDAJfY0NpnZ5jJhcbhw7IdXwkMb7yc5/7nFa3Z4IIK9y/+tWv1uzYt771rRgbG9OMXj5e85rX4C1veQs++9nPPrgtH29729tw4sSJtT0+tAhwDHnQqTgGRJvOqM56ryiTyWQyPTbRmxGMxNQ4z52awsrMNHyhMPbs3416IYP5mVl0PT5s3jyJVqOKux44hsVcBclYGLsnh9EVI3poIQ9npw1Xu41RMfgnTk6jWqqgJoB0PFuC1+eDo8f6XH4BEjdKhZxmgTK7ajAawc6JEaRSCZ1K6Qp0cEooKvtveX1ou/1YyBQ1lqclEON0ulfjfTxutOT9rHPzHTnIYHpOhJvVhI3VGB3um68JMwQhhSBhIZdsO5qOY/OwQFWIFZHd6LRaGkDNisTD8SDKzOaqt1GpNXFquaDnunPTMFpyvjz6Rc98PnZceBn3+rBicPPrX/96rRz/5je/GTfccAOe+9zn4od/+Ic1E5dTZSwLQhFOrrjiCs2AZRud66+/XjNp6d1hNu1VV12l2z2cCDT0DnE/6qniRTGdEZnHxmQymZ4MEsM3tm0n3vT+D+NZL3sZRsdHEPQC0ydPaXBuLBpFOODFLLuFzy1r8DBruTDtOrOwhGKhiEa9ATZZrDXamMsUkBUIYJwMp44YfFtp1JErV5AtluBjWriAC9PNWZV4YiiFmDwnEzF0el0x8g6EQlE4BGo4kxIK+tRAE1wIJoyp4ZRSm24X/sXpKBmPUg1pRZ65jPVuCDRszdDpyEOfBUbk/dwmGPBr884Up90Gk0iFAygUizg5n0G51dFifE6PgIHbg1KpqkUBCTisetyqVbXLeaVSx+DEFr2MjyTCBuuTPe95z8OP/uiPKuQQauiJYS01xtQQXggxf/mXf6llQV71qlfpdnz85E/+pBaJZf/C/0m8Vv1pKJuKOrMysDGZTKYnkWKpNF7/nl/Ei37oh9CpldEQGOH0EWtxscnk7GIWeTHkLF63lCtgkVXaswUNwHULjAzJdi32dhLgYRhuRkAgHY9iMBqCz+NEvlTGSr4KbzyFRruLdIy1wEKrcS6yDWNwWq2GvA7B6/eDbRLYh4lVhbUKMaeiBGZ05ksApqVTLQwEXvVKrBbd4xL+H+NqPAI3AbFGLnQFalh4sKeBxh19+L1u7BhNYedoQmv4lEslHJtdwXy+grGhAaSjwdUqzXK8QNCNnuyT1yFfbWFmbgleV1fHnBx8dMVSCRmnZ8ayhc8rX/lKLb7KXoaMo3njG9+Ij370owpDfdGjw/c+GlDhtlR/W4ObMycDG5PJZHqSidNG17zoFdj/Ay9CQAAEAgfBWBJLeYGSQhXJRARtgZJyq4fZlRJmCzUkYzFEwxEMjY3A4+xo/Zc4oUAMqvACEpGANrlkBWOX14uywEK+XEU4GoFHAKbjYCBwF81GTYOGa7JdudlB0B+UAfnhlfdGBIBSiSgGUlEko2HU2edK7LVOO4khX4UagRn+vyxTyTPhiP2cGF5M5NH/l//zCB1NyLlsS0UQcjtQLle0/cByuQGv24ktIyl0axV0G00FL6/HhZqcN6fQmL21KPAzM58VuHEi+D22t2GR2E9/+tNa5PX222/HP/zDP+DLX/6ygs0v/dIv4fDhw2tbPjbZ1NPjJwMbk8lkehLKK0Bx+XNfhJf/5Luw7aIrEIn4kcstrXo5fF6tTMyWCwWBANagCQV82LV9EpsnRrVx5PbxQQEKh/ZbqgugROIJ+AIhxARICDgziyuYzpQ0biaejGkmVDG3IsfIotNro9npIFepwinQs3liAg6XW4DIo00mWQG+2mgrXDHLiVDDFg5M6aa6atNXDbt6KhR8uN6lcEMfiEdgZ3M6ir3DMYTlvflKDUu5EuaKNbBpKD1MKQEznb6SdzFeqOP0ap0dh0AYPUC1nhNzcg5HTy6qJ+l7ETOkmP300pe+FBNynhSrQ//QD/2QemsIO6YnlgxsTCaT6Ukq1kA5/4qr8cNvFbjZfxFcjoYAzGqLBTaKTAUEKgQ4YokY4uEwztsygUjAg4DbqbVn2gI1NM6JdAqVjsCF14dtk+MIhAJYyuRQExjI5QsIh70o1ppYmF/ESlbAptWCT+Ch2Wqi3GgiGgkLiQRkm5Yem++rtwRqBE60PYI8CCz0zNBrQzHcZvWP1UBhzZRSsFmFnfF4UKGG2VAsVpMtVjC7XNBpp6AL2Lp5QgDHqWnlrI68lMmj3IKCDbt/d+RY2UYPc/ka5nMVFIurDY4fq1gvh+1ymMq9XnzNcRJyvhfZ1NPjJwMbk8lkepIrkR7A1c9/BV78v96EbVuG4O11EOw24RQAqQm8jKSTmEyEEXQ4UMxk0Ws3UK42NXA3JEY7FotgfjkHr9+HlGx7cmFZMKSHoLxudzuolooKBsVSFe1GC27ZT6/TVgNSrtYELNpIDw5ofEmx2tDlQcbfCLwwo4nVjhmvowDjondGVsiLnkAVsUZNvCzSKSsBHKaW7xqIwdProt5xoiRQVZBjF8olxD0CG7Lt0EACtVIZyytZga0CZotNOXYT07kyGl0HAmGBkVoDK5Um6gJ3i0yJ/x7EYGAGDP/VX/0V/v7v/16zohhI/Gu/9mvaz/AZz3jG2paPTf3YnP6UlE1NnTkZ2JhMJtMGED0L1zz75XjLu38JL3n+9RiIRzU4OBqJYnM8gm6jjmyuoJ4CejjmBQYoBgwvzc2j12oi6HVhYXERJ6ZmkQj6EA24UWesTTaLmkAFO3izNk3H4UKr59D9VGt1rXoc8Ae0GjKDhFkzh2DElggspsf/PGueGtpzZkf1/1uVbKdbQafPJlNRtOTvRs+l58XpMIUVtwujqZiM04N2KS+gVcTMUh4H5kvICAB1vH404MaKAA6bZ9LL1JHxwOvDocNH9EiPVTz+j/zIj2jw8M/8zM9o02Wmgfdr3sRisbUtH5sINoSZ/sN05mRgYzKZTBtI5114OX7if38YP/jjb8H+iy7G7u2b0O60NbCYVXr9XidmFjLqQWEvJ3RaqNWq8Dl7KOUyOHz0hLZVqLfaKAsYsNM3BBICsi1r3rCpZSgYVG8P42rod6jINkyv7rLTON8nYEFM4ToCCyGAEMPpL7Hiuk4xhgadNMP5JHnwZdjnFphgn24G/MpxmJ8ucNKGC2ODaa0REwv50WmWUa3XkWl0kW12UWn1kK+v9tLi0VpyfkypZtJ5V0Dq1htv5OX5njQ+Po7f/M3fxO///u/jPe95Dz7ykY9oQPE111yztsVjF6+JBlQb1JxxnbMCfbVaDXfccYc+OH95OvWyUNKdd96pgVnsNRKPx9fWrIr9O+666y7cdttt6v5MJpNra1bVbrdxzz334JZbbtEvDlMh14u0fO+99+Lmm2/WOxi6G9eLyw4cOICbbrpJv4B0OZ4ulte+Uf6xsLEc15/+BWW0PNME6brk+n56n8lkMj2e8voD2HLebuy96BK4HE589atfRzzow0gyKmDSwvHZFQQiq7Ehy9nCakVfUS5XwHKhjLwATb3T1eyrWDiEvVs3aSXffD6PoN+jgcNtgR2/7MPjD8EdimqV4NnlLKrlClzyW8eCe9rEUqBCn8guiisOdFbdNvro9tZ8NfK3/lZHAhiMRRBhAHQ0oMyTE2BZzhWxY2xAY3a88lObSkc082mp3ESpDQUtVhimt4jPLlnHtHbuU0GtVMIzn/d8RB/Bw0K78Xu/93vYtGmTFuTjbzdTu/mgHeDyffv2qddGA6Sr1QfX83Hy5EmFHxbuY62bhxPtC20cx0aPEJ9Ptx+m713nxNISSt7whjfgyiuvxEte8hJs3boVH//4x9fWrurHf/zHcfnll+v6bdu24WMf+9jamlWxlDXnPbmeVSI537ledBmyqBLX7969Gx/+8IfX1qzq537u53DhhRfq+r179+J973vf2ppVvfvd78b+/ft1Pb/IpPT1+oVf+AVdzvUXXHAB3vGOd6ytWdUHP/hBPS7Xs9w2x2MymUxnS263B6ObNuMFr38jfvVTf4nNW7fA7+qi3qihIOASj8fQJE+IQSUIMIamUK2jKoTCLCMWyPMJLKSjIQUfNsBkvRu2MeCNIYN6o5HgavBsryPWxKlTVatGWn7nSTq8mWOKt8AVM6LoOSGYOGUDWasGHgI6yjU66p4c04VYwKOZXSz3t5xnZlYNjm5bp81q9abciKbgE6BKynjiIb+minOqqt5oaWaVw+NFsdVBg5lQLtmLHJdHvPHL/6lHeTgRMl72spepR4ZemqGhocf0oE3gPp7znOes7fGhRYDiufc9NgY1Z1YOubir36ezKDqJmP+/Xlu2bNEOqtdee61+qQgO68XeHH/2Z3+mc5u//uu/ruCxXvS4cP0LXvAC/O7v/q729VgvVojk+pe//OUKUQSj9eKX8S/+4i+0Lwi3Y9XJ08XlBLLPfOYzOudKQFsvtrJ/05vepO3tuR0Jfr04LgMck8l0LlQvl3D4m1/CXd/6Mv7+C9/ERbsmcGxmQQv6eb0eOLsdBGIxzDH4ttlGVR5jiQi2DKVw4fYx5AplDQauN+soNR3oCkwgkkDV4UOl2YUrmsIDhw9jaeoEXA6BC05TqTdG1O1poDA9OMx7YmYTjTu9ID150INDU+T3uPC07aMYT4S1cnHE58ZyuY62wBEDhceSIXkPcMn+HWjVq5icHMGhEwv44r2nkJGf47DfD384ImMtopDLwdOtIyggFRK+SsfDcrO5E+/96McQkG0eTkzv/sIXvoBjx449GOD7aMVaN7RRvGl+JNETRPvB2QjOOBjcnFmdk6koQsHprd75QdNzQhfej/3YjyGbza6tWRXddvTsEHx++qd/GgsLC2trVsUvCRuUPetZz8I73/nO/1bSmv+ACD/Pf/7zFZr4pV0v/qMKh8Naq+BDH/qQTjOdLn4BWT6bYMVpsNPFf6gsv01XZn+Ka70IOg8FTCaTyfR4y+31YXDreRjdsQeR1CAqxQIyyyta2bfXaiPgcSKZjKNSb9HJou0UWO8mHQkg7ndrHZgQi/HJyhY9LE43yj038gI1LcEVfziqv+uFTEZumZm6TQ8Np5x4dJ1sWv1NlAeXExo4XdX/j3NZiZAXE4mgrm+3Owi6gZDPI6scWMnm0anJzaLsdzQdRanakPF4EAj6cXwpj5oAz8DAkIwjrN4iHo/rHK0GRiI+7N42gVTYC58/gNGtOx8WJBgaQW89bQ17QD2Wx9VXX60NMx9JPG/aO8b/0KZYnM2Z1zmZiuLc5Onih8sPmeIX63RxPb0q1EO9n1+M73c96ZnqP5+u/nJWtXwoPdr1JpPJdC7E6aDBTVvxyh/5MbzuXe/D697+Hlxx1eWIBT3ak6knMJEIetVjslkAw9frIMLCevL7GIhGBBjaqNYaaHU7aAigVLsO1LoCMb6AgpNTfsNZr4b/aRwNp5nkfw/e461yDX9wBV74x1qsjQAODX4s4MNKoYwpAZU5AZlipaYwEnY5NDi50Whp7R32verJjeTJ2WX0alWEBX6C4SD8Aa8CkdPt1bhMQsZIKoHxgRi2TY5gIBbA8XtuRmZ+RodzLsSbdMoaXz5+Oidgw7bup4sVHRlzQz3Ues5fkogpNho7XYyUZ6t5iqWuT1coFMILX/hC/ZvNyk4XoYdzqxSnox5KrDRJcTqrD2Hr9brXvU6feRy6JE8X44ZMJpPpXIs3iiObJvEDL3oZfvpXfxdv/chvYGxys2ZIpQMujEZ96JWLCIrxZasFds5mFeGWkEmVgNEBsrW2FuPrOpyIx+KIp1LwCNzQoyK882B1YRpvbaWwBjUdgRmFmrX1/JOeG7fbpRYpU6phsVhFvlrHgjxX5BhhuSeNyw2jx+2BRyCnXKnC1akhs1JANpNDxNkROAvA6VrtFs5HKBxCMhzBeDqG88aTGAjLunYVmemjuP/mr6N9WijB2RBnDgg2tB8EG34OpjOvczIVxaBeZhJlMhmNfWF8Dad/nvnMZz64nvS+vLys6zdv3qzBuP2ALAbr8ouxuLio00eTk5Mas9MHFwZw0evDLq1cz0h2ru+Dy549ezTgbW5uToGHUPWBD3zgQXBhG3pmUXE6q7/+/e9//4Pgwoj4wcFBTE1N6XoGmb33ve/VKTSKU2YEMUbIE3A4Rfaud70LP/ETP6HrTSaT6YkgQger/Y5u2YZrnv9iDTZ2CtyUS1UU621s3roJjk5DIKOBQDAkQNNFpt7BbLUNj7zuuH1w+ALw+wMYkt+5XD6PlYV5nVbilBWntLSasNLLGszonwIfjK/hs3p22N9JjL387ZI3cQk9PqxUHIvGFQg8vbYCUKXe0IDnwXhA+0UxXoddy5c6frQcHk1Hb4h9oVeo06gh3iohhYq8vwlfMIyZmXnc+NWvY2BiM8a3budlOCviOZTLZb2J5qPvsTGvzZnXOQkepgg2J06c0PRBgg1BYb0YM8P1DOQiuJw+b8l4FoID4YjgMjLy3Z1b+SUieBCOCB6Ei/UiOJ06dUrhiIHJ/R4g68X3M5aH++YxThfBh3BEiOEYT/+Czs7Oyj+iGU315np+kU0mk+mJrHZLfpsfeADHHziAVimDw7feiOX5BcR5s7aYQ7YN5FpdDA0OoAa3gE1QQMONTdt3Ym7mFO769rfRrNfVu6LtFGSfLOJH4CCQOHrMzGpqKjankzryYMaSW8AmKEiTDHnRFIBpwYmA34s9m0bgbAuUyLpOraqtFQJBH7aPJ5GKhnVqaj5XxIFOHF2/vG530V6DpoRXblQdBaR7RYwMx4BACAeOLSCbryA8vAnv/u2PY3Tiv/+2n2nR3jA1nGNiqEI/toYysDnzOmdgYzKZTKYnrmga2EohuzCHqYP34cDdd+EbN9+ObKsDl88Pf1AgwiXkII+eN4jk8Aiyy4t44M470Gmy+7ZHvS68yWy1BF5kfy63S0GmVm9ov6luR8CGKdkCO7TvrE8zngyg0RUY6vS0W3iUaeVup6aA9wSYeo26BhcHIiFMjgxiOOrFoelFHG5H0JBxFKqyX7Fq7XYPYzEvNrWy2BpsYXQsgbqAWMsbw9jO/RjasQ8TO/ciLTfVj2f8I6GGddt4PQk09NYY1Dy+MrAxmUwm0yOKxrnTbqkH/Nabb8Gtt92Gex44io5TYMPlEdAJYGB0DKVCHvfeeTs61ZoCDd/HqScW7KO/uo0uWk12/Za/BHYIN6vbteUgAj4uByZSIa1yvFisIxj063RUxO3AaCKCrowh3GmiJHATHxnH1fs3o5XP4MZ7j2MBQbgHxjT2h1WHHU43OrUyxl11PG/vGJ52w/UYPf8qJEYn4ZR9MsiZMwMcC8GGjzMNGv3pp37yS99Tw+MY1Dx+MrAxmUwm02MW42nuO3gYDxw9gZOn5tASg52VZbfe+G1ttMlgYcbYUJyS0ikigQidJuKzQAq9NywEyIaahCC2UtgyGMFQxIej2ToCbMEg8rtdSIQC2DUcg6dVR93hwZ4L9mAw6MAtt96HA4dPodx1IL51F3zDE3B5vJgYHcLOLdtw1WUXYPvWzXALWFB9k6ewJmPhmAg4BA/CTR88vh9x39wvPTUMQejH1Kzft4HN4ycDG5PJZDJ9X2Ll4iWBmZmFJTxw8CCmp6axtLKCAgvlySOXL2Alk0OxWERLgIZ1cwg23TaL83W4A/WgjA5EccFoBNlKA9OFJkIhv3p44uEgJtIxPG3HKHwOJ8LDYxgcG8biYgb5imzn98MXTSA9vgkT23difHwU4VDoYeGhb/b4TLjhg3DD14SQvnflsYpAw/3wwb+5Dz7WBwob0Dz+MrAxmUwm0xkVzUqpVEapXNbU7HK5Is8VVOXvWr2unoxatYp6ra6eDU5ziTnCUCKkRfnyNQGNTg/egA8+twfxaBiDyThS8bCAghf+UBhOr1egiEX45D3hMFzfA4hwnHwQQtZ7cCgCSD8m5pESP/j+/pQW98HX9Mz0p536UEMZ1JwdnXWwWRGKZ0aU6fEXs7nsH5LJZHoiiSZn/WN1mT7p1NXpBom/YesfZ1rfGcPqePoeHD76wEOt97r0t+2DDJf1IYYP/t1/9PV4jN300DrrYMP0bNKt6fEX09DtH5PJZDL9z+qbQj7z0YeWPtz0l/NBEVr6oNP/e/1zX/YbfPZlU1Emk8lkMonWm8P+33zuP05XH1r4vP7v9c+msy8DG5PJZDKZHkZ9E/lIYEMZyDxxZGBjMplMJpNpw8g6cJlMJpPJZNowMrAxmUwmk8m0YWRgYzKZTCaTacPIwMZkMplMJtOGkYGNyWQymUymDSMDG5PJZDKZTBtGBjYmk8lkMpk2jAxsTCaTyWQybRgZ2JhMJpPJZNowMrAxmUwmk8m0YWRgYzKZTCaTacPIwMZkMplMJtOGkYGNyWQymUymDSMDG5PJZDKZTBtGBjYmk8lkMpk2jAxsTCaTyWQybRgZ2JhMJpPJZNowMrAxmUwmk8m0YWRgYzKZTCaTacPIwMZkMplMJtOGkYGNyWQymUymDSMDG5PJZDKZTBtGBjYmk8lkMpk2jAxsTCaTyWQybRg94cCm1+uhVqvp88Op1Wqh3W6vvXp8xOM3Go21VyaTyWQymZ4McogBf3iCeBz0ta99DcvLy3jhC18Iv9+/tnQVVo4ePaqPTqcDt9uNnTt3YuvWrfo3h5nJZHDfffchl8vB4XDout27d8Pj8aDb7eLw4cO49957EY/H8axnPUu3ueOOOzA1NaX75D5cLpcuf8ELXqCvb7/9dhSLRTz3uc/VcVSrVdx///2YmZnR7YLBIPbv34+RkRFdPz8/r+/hMa+//nqUy2XccsstGBgYwEUXXaTbmEwmk8lkOjd6wnhsFhYWcOjQIQwNDeHCCy9EOp3GwYMHsbi4qOsJHPfccw+azaaCxq5duxAKhRQ+KILRysoKotEoSqWSwgo1MTGB888/H4ODg/B6vdi2bZu+JuCcLnqBjhw5gunpaezYsQP79u3T7QhH9CKtF4Hm5MmTa69MJpPJZDI9EfSEARsCDL0g27dvx+bNmxUsKMIKPSsElWw2iy1btiicnHfeefo3vTkUgYfbEGQII4QTip4Ubp9IJBRsxsbG9PVDgU29XtdjEI727Nmj23F/XN4HrL4IYCdOnEClUllbYjKZTCaT6VzrCQM29IDQA+Pz+fQ1n/manhqCDb0wBJ9YLKZeGj6czu8Mf2lpSSFneHgYgUAAs7OzOj31WESPDeNqCEHcN48RDof1uH0PUF+Tk5O67dzcnG5nMplMJpPp3OsJAzaMZSHE0PNCcWqJrwkpBAc+c10fdKj+M8WYGK678847FTj63pfHIoIRvTr5fP7BfXOfBJ5IJKKv+2LMDmN8GPfDY5lMJpPJZDr3Omdgw6kdejs41URxaofgcurUKV3H+BV6XFKplIINPTX0nnA538epJgYF92GHgJFMJtVjw+kjghG9OI9F9BLRW1MoFHD8+HH1+vBY9NhwfOvFsW3atElhyMDGZDKZTKYnhs4J2BAK7rrrLtx22204cOCALiOQ0ANCsLn11lsVKhhn0wcKTksxmJfeGAbz3n333Qoz9KzQW8OpI8bc7N27V4OLCSPMnup7gB6N+B7G1TADitlV/aBhBhvTo3S6uGx8fPy7psRMJpPJZDKdO531dG+CyfrYF0JBP66G0zv9KShCA0FjfZAvh8r1hA16Svg+PnMZ37t+e3pR6Onh1BKfuQ2Py236INLfH5/7Y6A49UQg4jqmpPf3QXEfXNc/Vn/M/JvLTCaTyWQynTuddbAxmUwmk8lkerxkcygmk8lkMpk2jAxsTCaTyWQybRgZ2JhMJpPJZNowMrAxmUwmk8m0YWRgYzKZTCaTacPIwMZkMplMJtOGkYGNyWQymUymDSMDG5PJZDKZTBtGBjYmk8lkMpk2jJ60YFMqlfAnf/In2tPpexWLLt933324//7715aYTCaTyWR6Muusg80Xv/hFXHTRRbj44ovxrGc9Cz/7sz+Le+65Z23toxf7Sf3jP/4jjhw5srbksYv7+MQnPoGPfvSja0senb7whS/g0ksv1Z5S6/U7v/M7+L//9/8qMK3XZz7zGVx55ZX42te+trbkO/qv//ovPO1pT9Nr0n9cd911OHbs2NoWJpPJZDKZHq3OOtiw4zY7ev/ar/0afvInf1JfX3HFFep9eaxtq7j999Pqih3Df/EXfxG/+7u/u7bk0YljJoydfuy5uTntNL5ebJhJEGLjzb/8y79cW/od5fN5bbD5/ve/H7/927+tj1/+5V/WDuMmk8lkMpkem87JVBQN+WWXXYZXvOIVauzp5SBccFqor4MHDyoo9JXJZHQZQaEv7oddvO+44w586Utfwp133olKpbK2dhV8VlZWcOutt+r6b3/72wol68UpLe778dKhQ4dQKBQUXOixWVpaWlvzHSUSCVx11VW49tpr9XH11Vdrd3OTyWQymUyPTec8xoZw8uY3vxmBQEDBoy/Czr/8y7+svQJuuukmXbYeTAgun/3sZ/GpT30Kn/vc5/DzP//z+Ou//usH4YfbfvzjH8cnP/lJnbaiJ4R/cwqK6na7+NM//VP82Z/9mb4+0+L4CGuDg4O4/PLLFWAeajrKZDKZTCbTmdETInjY6/Viy5YtmJ+fV9igCCXlcln/puiZyWazD66n+PeFF16Id7/73Ron84IXvEBjZji9Q3Gq6eUvfzne9773KdS89rWvxec//3n14vRVLBb18XiIAEVv0d69exGJRPCMZzxDweb02BzCzxvf+Eb1YPHxT//0T9/XFJvJZDKZTE9VPSHAhnK73f/N4P9PYtwKg203bdqEdDqtf3NaidNLlM/nw65du3TdXXfdpVNVnN6q1Wq6/nsVvUyPRgSsBx54AOedd56Cygtf+EKNzZmamlrbYlX05BB6brjhBn1s3rx5bY3JZDKZTKbHoicE2HQ6HQ26HR4eVlj5XhWLxfTRj7NhbMvHPvYxvPKVr8Tf//3fq2fI7/d/394QHoPi/teLHiZ6Zvrgw4wtAtVv/MZv4KUvfal6jRYXFzVWaL3Gxsbw+te/Hm95y1v0ccEFFzxqeDKZTCaTyfQdPSHAhtNDy8vLmgLel8vl0imi/tRTf3rpkURooFKplD7fdtttGqfzoQ99SIOTCTh9KPl+tG3bNh0f999Xq9XSbK/x8fG1JdC4nmc/+9kaG/ThD39Yx8EMML6v0WisbWUymUwmk+lM6ZyADT0mhICvfOUr+MAHPoC3vvWteM1rXoNLLrlkbQtozA2DiW+//Xb827/9G/74j/94bc13RE8P4eHw4cOafcSUcdaE6cMLp5wYq8PjMX6HAcYnTpzQdQ8nvudd73qXelkeThwb43kILN/85jf12L/wC7+gGU/XX3+9bkNwYSbWc5/7XD0vTpMxgJjrb7755u+K6+HfnCa75ZZbHnysjy8ymUwmk8n06HROwIZZS0xvfvWrX61G/NOf/jT+z//5PxoT09frXvc6jUUhDNDTQQDiVNJ6DQ0N6dQVYYYBugzWfc973oNwOKzrmVLOdU9/+tOxb98+jeHhNM8jibDEYF4eb32g8npxHMykYuwO07N3796N//f//p/CF2N6KEINIemaa67R1xSnl7jtwsKCPvpiujpBid6c/uPuu+9eW2symUwmk+nRytH7fgNOHkcxVobZUMlk8hFjTvoZUyxq91DbcZorHo/D4/GsLXl4EWaYucQsKxbWeyTx0nGKjKDGlG6LizGZTCaT6dzqCQ0250JsZUBvzHOe85zv8raYTCaTyWR64svA5jTR88OYF0u5NplMJpPpyScDG5PJZDKZTBtGT4h0b5PJZDKZTKYzobPusWHmEjOPTE9MscCgyWQymUxPVp11sGGtl/Uduk1PLK0vMGgymUwm05NNZx1seLizfEjTY9D309LCZDKZTKZzLQseNplMJpPJtGFkt+cmk8lkMpk2jAxsTCaTyWQybRgZ2JhMJpPJZNowMrAxmUwmk8m0YWRgYzKZTCaTacPIwMZkMplMJtOGkYGNyWQymUymDSMDG5PJZDKZTBtGBjYmk8lkMpk2jAxsTCaTyWQybRgZ2JhMJpPJZNowMrAxmUwmk8m0YWRgYzKZTCaTacPIwMZkMplMJtOGkYGNyWQymUymDSMDG5PJZDKZTBtGBjYmk8lkMpk2jAxsTCaTyWQybRgZ2JhMJpPJZNowMrAxmUwmk8m0YWRgYzKZTCaTacPIwMZkMplMJtOGkYGNyWQymUymDSMDG5PJZDKZTBtGBjYmk8lkMpk2jJ60YNPr9dDpdNZemUwmk8lkMgEOAYTe2t9nRffccw9yuZz+7fF4kEqlsHPnTjgcDmQyGRw5cgSjo6PYtGkTKpUKDh48CL/fj3379ul7CDNHjx7F4uIiut2uvn/Xrl3wer26fmFhQdcnEgns3bsX+XweBw4cwNjYGCYnJ1Gr1XQM9Xpdt6fGx8exbdu2tVcmk8lkMpmerDrrHhtCzdLSEtxuN8rlMu69917cfffduq7ZbGJ5eVmBhmq328hmsygUCvqauu+++/Q91WpVwebw4cO4+eab19ZCgYX7P3bsmEJNq9XCysrKd+2Tr/twZTKZTCaTaePonExF0TtzySWX4JprrkE0GsXc3NzamlURRgguhBTCS18EHEJLIBDADTfcgGuvvVa9LfTSEFbWi+B0/Pjxh52u4nGf9rSn4fLLL8eWLVvWlppMJpPJZHoy65zF2MzPz2NqakrhhdNG6zUzM4NbbrnlQc9MX9yWXp3h4WG4XC59xONxOJ3O7/LqUJzKoveHXpuHUrFYxG233YY77rhDp6dMJpPJZDI9+XVOwIZeGMbO0FMzMTGB/fv3r61ZVTgcVnhJp9PqeemLnh6K00l90SPDMCHCzXrRIxMMBtWTs97r05fP58PQ0BAGBwe/6xgmk8lkMpmevDonYEMIecYznqFTSRdccIGCzHoRaBgQvHnzZgWQvggqfM2pJ05XEXDokSG4JJPJta1WxWPw/Yyl4bani9NZO3bs0KDh9ccwmUwmk8n05NU5m4qil4SP0z0tFD0z6x99EYA4xUR96Utfwle+8hWdbtq+fTtisZguXy8CEqe5Hirxi8Dz5S9/WR+c8jKZTCaTyfTkl+v/E639fVZEL0skEtFpIMbIrFd/SolAQojpAwnjaPpxOHzmOkIRvS5M4Wa6eB+Q6L3huoGBAT0O08CZLs7Xfc8Qt+E6vp8PTludHudjMplMJpPpyaezXsfmTInD7oOQyWQymUwmE/WkBRuTyWQymUym02XuDpPJZDKZTBtGBjYmk8lkMpk2jAxsTCaTyWQybRgZ2JhMJpPJZNowMrAxmUwmk8m0YWRgYzKZTCaTacPIwMZkMplMJtOGkYGNyWQymUymDSMDG5PJZDKZTBtGT8jKwxzSqVOnUCwWtcEl+zk9ksrlMu6++240Gg3tCj46OvpdzTMpbnPkyBHtUcX168UO4YcPH9bGmMPDwzjvvPMeseM3e01x+7m5OR0bO4SzF9Xpx6TYiXx6elq7mLNvVV+HDh3SBp7rdc0116z99dDqn2etVsPY2Bh2796ty5vNJg4ePIhSqaSv1+uSSy558Ppls1ncc889uj07n3Pcp/frMplMJpPpyaxzBjb1eh2dTgehUGhtyaq47D3veY8aYDam/NVf/VVs3bp1be1/F439Bz/4QZw4cUIbWxIu2NdzYmJibQvg61//Oj7xiU/gvvvuw8/93M/hDW94w4MQcvLkSfz6r/86KpWKNuicnZ3Fm970JrzmNa/R9aeLl+uv//qv8elPf1rhgsenfvmXf1kbcq4XQYNj+9rXvoZ//dd/xeDg4Noa4C1veYvCyHrI+sxnPvOQcEQtLS3hAx/4gIJSKpXS59/8zd/UBqAEst/4jd/AsWPH1rYGFhcXsbKyot3L2VQ0k8ngXe96l153NhWdn5/H+9//fgUfk8lkMpk2jAg2Z1vdbrf3T//0T73f/u3f7glMrC1dlYBN72//9m97H/7wh3tPf/rTew888MDamofWP/7jP/b27NnTO3r0aE+gpPf617++J5CxtnZVhw4d6v35n/+57u93fud39Ph93Xnnnb3f+q3f6s3MzPQEBnoCIr3LLrtsbe1D60tf+lLvpptu6gls9O69997elVde2fvIRz6ytvY7+vznP69j279/f29ubm5t6aquvfbangCYHrf/eCRx26uuuqon8KLH/fa3v90TqNJ1vIYce38/vBYvetGL9D396/u5z32uNz4+3puenu4J8PR++qd/uvfjP/7jus5kMplMpo2icxZjQ28GvQini926X/GKV+BZz3rWo+rc/W//9m+6LadV6P145jOfCTHia2tXRa8G93m6R4W68MIL1YtD7ws9KpwOoqeD3puH0w033IDLL79cp584HcT30uOzXpxGo0eEY6PH5HRxWmjHjh069TUyMqL7eDjRiySwB4E99V7xuAJTD3q7OJ3EsXMfvAYHDhzQZfR89aeaOB5eIx6PHp9LL71UPT0mk8lkMm0knVWwYWwI41xoeGmsCRD8m4/TweDRiNMqnKLZu3fv2hJo7AinaRhv81gloIeZmRmMj4/D7XavLX1oMU7llltuwV/8xV/oOF772teurQGq1Sre+c534vzzz8fLX/5yjclZL76X58tr8fGPfxyf+tSnNObm4cR4I+6D5/mf//mf+PznP/+w2xNgvvjFL+J5z3ved8UJXX/99XpNfuu3fgu33norbrvtNrzqVa9aW2symUwm08bQWQUbBst+9rOf1XgXxn7cfvvt+OQnP6kPxnw8VhGUaKwZM9JX34vBgODHKgLRF77wBfXu/E+ix4mxOR/96Ec12HjLli26nHD0D//wD3jggQfwS7/0Sw8b+PySl7xE17VaLfzzP/8zfvZnf1Yh7aHU92z9yq/8Cr761a9qfM/b3vY2jQ86XQQzghA9Sus9XoQ1emn+5m/+Bm9961tx9OhR/MAP/MDaWpPJZDKZNobOKthwGuSNb3wj3vGOd6hH4YorrsDb3/52nQqi4X2sokfC4/F8l7eHoEO4YCDxYxGDluk54TO9LP+TYrGYBjb/6Z/+KaampjR4mKInhV6Ya6+9Fvfeey+++c1vKpjQ08LsKIrZUQwE5rn/zM/8DH7xF39R38dtHkoMKKbHhh6Wn//5n9dAYZ7zn/3Zn61t8R0RqPx+v17r9eKY6M3hNN2HPvQhnaJi8LHJZDKZTBtJZxVsaNAZA7Jp0yaNOyEc8G/GvtAYP1YFg0HdBzOi+qLXhR4crnu0IjT84z/+o3qT6AlZn1H1UCI4caqK8S6MdXnOc56DP/qjP9J1hBhC1X/8x39oRlQffDgFdNddd+k2fD/HTSgjYFx00UVIJpPfdR7rxWtFuKHHhftmTA7TxwlOp+vmm29WSGQcTV+M5/mXf/kXvO51r9MxM+7n3e9+t06j0etlMplMJtNG0VkFm/ViPRlO35ye3kyPC6eRONXDAF56GQqFwtra/y4a6S996UtaU4bbcYqL0zx9ESK4D+6T0z405PybcS4UX/enduhBYaAxY38eqiYMxfgZxrhwKodeE06v3XTTTQpo1NVXX63rCRh8EGwuvvhiXfaiF71It2EtGsbnMHiXx+GY+fz0pz9d158uTnURtghPPCanm+64446H3J7TUwSh9TFCBCgC0Te+8Q29RrzG9B7x2vN8TCaTyWTaKDpndWwIGfSUnF4Ij54OggaBgTE4nK4iNHzsYx9b2+K7xe2Y/UMwoKeGsEBPST+gmEb8fe97nwYrEzToySAovPnNb9YMKMbU/MRP/IROQV133XX6TPFv1po5Xdw/vS8s0EevC0GB+6YH5MUvfvHaVt8RAYbjozeInhaKIPYnf/InCIfD+ppBxAQiThE9XNDyV77yFc2KInjRK8SP7Q/+4A80Q2q9CHovfelLdYprvVhHh+PmteR1Yg0dnuN73/vetS1MJpPJZHry6wlXeZhBxPQ6rB8Wp7A4DfNw6mdXEW6Yfs3MqH7gLEGFxf5On3JhRWOmSPN4DLbtA01fXMdtHkr0+HCM9BLRq8TtWPG4n1q9Xizgx6kopnb3Kw/zPVzGY7OQHqeOOO5oNKrrH0qEQHqJjh8/rq/37dv3kHFJLEJI2KFHbL14TL6XRfx4LTj9x2M+lik7k8lkMpme6HrCgY3JZDKZTCbT96pzFmNjMplMJpPJdKZlYGMymUwmk2nDyMDGZDKZTCbThpGBjclkMplMpg2jsx48zLYB/RoypqemmB3GrDOTyWQymc60zjrYMP359NRq01NLTIvv1/AxmUwmk+lMytK9TSaTyWQybRhZjI3JZDKZTKYNIwMbk8lkMplMG0YGNiaTyWQymTaMDGxMJpPJZDJtGBnYmEwmk8lk2jAysDGZTCaTybRhZGBjMplMJpNpw8jAxmQymUwm04aRgY3JZDKZTKYNIwMbk8lkMplMG0YGNiaTyWQymTaMDGxMJpPJZDJtGBnYmEwmk8lk2jAysDGZTCaTybRBBPz/yHCLAz8wp+kAAAAASUVORK5CYII=;" vertex="1" parent="AH1il1_bG7945f-aipRP-10">
          <mxGeometry width="621.22" height="360" as="geometry" />
        </mxCell>
        <mxCell id="AH1il1_bG7945f-aipRP-5" value="description" style="rounded=0;whiteSpace=wrap;html=1;" vertex="1" parent="AH1il1_bG7945f-aipRP-10">
          <mxGeometry x="30" y="290" width="110" height="20" as="geometry" />
        </mxCell>
        <mxCell id="AH1il1_bG7945f-aipRP-6" value="gender" style="rounded=0;whiteSpace=wrap;html=1;" vertex="1" parent="AH1il1_bG7945f-aipRP-10">
          <mxGeometry x="30" y="220" width="110" height="20" as="geometry" />
        </mxCell>
        <mxCell id="AH1il1_bG7945f-aipRP-7" value="birthday" style="rounded=0;whiteSpace=wrap;html=1;" vertex="1" parent="AH1il1_bG7945f-aipRP-10">
          <mxGeometry x="30" y="150" width="110" height="25" as="geometry" />
        </mxCell>
        <mxCell id="AH1il1_bG7945f-aipRP-8" value="nickname" style="rounded=0;whiteSpace=wrap;html=1;" vertex="1" parent="AH1il1_bG7945f-aipRP-10">
          <mxGeometry x="30" y="80" width="100" height="20" as="geometry" />
        </mxCell>
        <mxCell id="AH1il1_bG7945f-aipRP-9" value="name" style="rounded=0;whiteSpace=wrap;html=1;" vertex="1" parent="AH1il1_bG7945f-aipRP-10">
          <mxGeometry x="30" y="10" width="100" height="20" as="geometry" />
        </mxCell>
        <mxCell id="AH1il1_bG7945f-aipRP-37" value="input" style="strokeWidth=1;shadow=0;dashed=0;align=center;html=1;shape=mxgraph.mockup.text.textBox;fontColor=#666666;align=left;fontSize=17;spacingLeft=4;spacingTop=-3;whiteSpace=wrap;strokeColor=#666666;mainText=" vertex="1" parent="AH1il1_bG7945f-aipRP-10">
          <mxGeometry x="30" y="40" width="140" height="30" as="geometry" />
        </mxCell>
        <mxCell id="AH1il1_bG7945f-aipRP-38" value="input" style="strokeWidth=1;shadow=0;dashed=0;align=center;html=1;shape=mxgraph.mockup.text.textBox;fontColor=#666666;align=left;fontSize=17;spacingLeft=4;spacingTop=-3;whiteSpace=wrap;strokeColor=#666666;mainText=" vertex="1" parent="AH1il1_bG7945f-aipRP-10">
          <mxGeometry x="30" y="110" width="200" height="30" as="geometry" />
        </mxCell>
        <mxCell id="AH1il1_bG7945f-aipRP-39" value="calendar input" style="strokeWidth=1;shadow=0;dashed=0;align=center;html=1;shape=mxgraph.mockup.text.textBox;fontColor=#666666;align=left;fontSize=17;spacingLeft=4;spacingTop=-3;whiteSpace=wrap;strokeColor=#666666;mainText=" vertex="1" parent="AH1il1_bG7945f-aipRP-10">
          <mxGeometry x="30" y="180" width="200" height="30" as="geometry" />
        </mxCell>
        <mxCell id="AH1il1_bG7945f-aipRP-41" value="input" style="strokeWidth=1;shadow=0;dashed=0;align=center;html=1;shape=mxgraph.mockup.text.textBox;fontColor=#666666;align=left;fontSize=17;spacingLeft=4;spacingTop=-3;whiteSpace=wrap;strokeColor=#666666;mainText=" vertex="1" parent="AH1il1_bG7945f-aipRP-10">
          <mxGeometry x="30" y="320" width="200" height="30" as="geometry" />
        </mxCell>
        <mxCell id="AH1il1_bG7945f-aipRP-45" value="" style="rounded=0;whiteSpace=wrap;html=1;" vertex="1" parent="AH1il1_bG7945f-aipRP-10">
          <mxGeometry x="30" y="245" width="190" height="30" as="geometry" />
        </mxCell>
        <mxCell id="AH1il1_bG7945f-aipRP-42" value="male" style="shape=ellipse;fillColor=#eeeeee;strokeColor=#999999;gradientColor=#cccccc;html=1;align=left;spacingLeft=4;fontSize=17;fontColor=#666666;labelPosition=right;shadow=0;" vertex="1" parent="AH1il1_bG7945f-aipRP-10">
          <mxGeometry x="50" y="252.5" width="15" height="15" as="geometry" />
        </mxCell>
        <mxCell id="AH1il1_bG7945f-aipRP-48" value="female" style="shape=ellipse;fillColor=#eeeeee;strokeColor=#999999;gradientColor=#cccccc;html=1;align=left;spacingLeft=4;fontSize=17;fontColor=#666666;labelPosition=right;shadow=0;" vertex="1" parent="AH1il1_bG7945f-aipRP-10">
          <mxGeometry x="130" y="252.5" width="15" height="15" as="geometry" />
        </mxCell>
      </root>
    </mxGraphModel>
  </diagram>
</mxfile>
